<svg width="1466mm" height="483mm" viewBox="0 0 1466 483" xmlns="http://www.w3.org/2000/svg" version="1.1" preserveAspectRatio="xMidYMid meet"><g id="svgGroup" stroke-linecap="round" fill-rule="evenodd" font-size="9pt" stroke="#000" stroke-width="0.25mm" fill="none" style="stroke:#000;stroke-width:0.25mm;fill:none"><path d="M 0 453 L 0 462.875 L 3 462.875 L 3 466.375 L 4.95 466.375 L 4.95 465.125 L 7.6 465.125 L 7.6 466.375 L 10.25 466.375 L 10.25 469.625 L 7.6 469.625 L 7.6 470.875 L 4.95 470.875 L 4.95 469.625 L 3 469.625 L 3 473.125 L 0 473.125 L 0 483 L 50.833 483 L 50.833 480 L 100.042 480 L 100.042 478.05 L 98.792 478.05 L 98.792 475.4 L 100.042 475.4 L 100.042 472.75 L 103.292 472.75 L 103.292 475.4 L 104.542 475.4 L 104.542 478.05 L 103.292 478.05 L 103.292 480 L 152.5 480 L 152.5 483 L 254.167 483 L 254.167 480 L 303.375 480 L 303.375 478.05 L 302.125 478.05 L 302.125 475.4 L 303.375 475.4 L 303.375 472.75 L 306.625 472.75 L 306.625 475.4 L 307.875 475.4 L 307.875 478.05 L 306.625 478.05 L 306.625 480 L 355.833 480 L 355.833 483 L 457.5 483 L 457.5 480 L 506.708 480 L 506.708 478.05 L 505.458 478.05 L 505.458 475.4 L 506.708 475.4 L 506.708 472.75 L 509.958 472.75 L 509.958 475.4 L 511.208 475.4 L 511.208 478.05 L 509.958 478.05 L 509.958 480 L 559.167 480 L 559.167 483 L 610 483 L 610 473.125 L 607 473.125 L 607 469.625 L 605.05 469.625 L 605.05 470.875 L 602.4 470.875 L 602.4 469.625 L 599.75 469.625 L 599.75 466.375 L 602.4 466.375 L 602.4 465.125 L 605.05 465.125 L 605.05 466.375 L 607 466.375 L 607 462.875 L 610 462.875 L 610 453 L 559.167 453 L 559.167 456 L 509.958 456 L 509.958 457.95 L 511.208 457.95 L 511.208 460.6 L 509.958 460.6 L 509.958 463.25 L 506.708 463.25 L 506.708 460.6 L 505.458 460.6 L 505.458 457.95 L 506.708 457.95 L 506.708 456 L 457.5 456 L 457.5 453 L 355.833 453 L 355.833 456 L 306.625 456 L 306.625 457.95 L 307.875 457.95 L 307.875 460.6 L 306.625 460.6 L 306.625 463.25 L 303.375 463.25 L 303.375 460.6 L 302.125 460.6 L 302.125 457.95 L 303.375 457.95 L 303.375 456 L 254.167 456 L 254.167 453 L 152.5 453 L 152.5 456 L 103.292 456 L 103.292 457.95 L 104.542 457.95 L 104.542 460.6 L 103.292 460.6 L 103.292 463.25 L 100.042 463.25 L 100.042 460.6 L 98.792 460.6 L 98.792 457.95 L 100.042 457.95 L 100.042 456 L 50.833 456 L 50.833 453 L 0 453 Z" id="front_outsideCutPath" stroke="#FF0000" stroke-width="0.1" style="stroke:#FF0000;stroke-width:0.1" vector-effect="non-scaling-stroke"/><path d="M 309.373 470.266 L 308.886 470.266 L 308.886 468.189 A 1.375 1.375 0 0 0 308.87 467.973 Q 308.833 467.739 308.708 467.603 A 0.548 0.548 0 0 0 308.483 467.459 Q 308.394 467.428 308.286 467.417 A 1.289 1.289 0 0 0 308.148 467.41 A 1.472 1.472 0 0 0 307.873 467.434 Q 307.719 467.463 307.601 467.528 A 0.686 0.686 0 0 0 307.41 467.682 A 0.795 0.795 0 0 0 307.271 467.924 Q 307.188 468.145 307.177 468.476 A 3.116 3.116 0 0 0 307.175 468.581 L 307.175 470.266 L 306.689 470.266 L 306.689 467.055 L 307.084 467.055 L 307.164 467.495 L 307.187 467.495 A 0.985 0.985 0 0 1 307.573 467.144 A 1.184 1.184 0 0 1 307.606 467.127 A 1.317 1.317 0 0 1 308.075 467.002 A 1.592 1.592 0 0 1 308.207 466.997 A 1.92 1.92 0 0 1 308.533 467.022 Q 308.71 467.053 308.85 467.12 A 0.874 0.874 0 0 1 309.08 467.276 A 0.843 0.843 0 0 1 309.285 467.599 Q 309.334 467.732 309.356 467.896 A 2.122 2.122 0 0 1 309.373 468.171 L 309.373 470.266 Z M 300.03 467.055 L 300.03 467.433 L 299.212 467.433 L 299.212 470.266 L 298.726 470.266 L 298.726 467.433 L 298.152 467.433 L 298.152 467.213 L 298.726 467.038 L 298.726 466.859 Q 298.726 465.837 299.497 465.697 A 1.478 1.478 0 0 1 299.76 465.675 A 1.566 1.566 0 0 1 299.982 465.692 Q 300.09 465.708 300.21 465.737 A 3.148 3.148 0 0 1 300.358 465.778 L 300.232 466.167 A 2.362 2.362 0 0 0 300.048 466.116 Q 299.882 466.077 299.751 466.077 A 0.656 0.656 0 0 0 299.593 466.094 A 0.421 0.421 0 0 0 299.344 466.26 Q 299.212 466.443 299.212 466.847 L 299.212 467.055 L 300.03 467.055 Z M 311.848 469.865 L 311.848 470.237 A 0.478 0.478 0 0 1 311.791 470.259 Q 311.731 470.279 311.644 470.295 A 1.819 1.819 0 0 1 311.615 470.3 A 2.108 2.108 0 0 1 311.478 470.318 Q 311.404 470.325 311.338 470.325 A 1.27 1.27 0 0 1 310.964 470.274 Q 310.553 470.147 310.445 469.7 A 1.529 1.529 0 0 1 310.407 469.343 L 310.407 467.433 L 309.947 467.433 L 309.947 467.199 L 310.407 466.997 L 310.612 466.311 L 310.893 466.311 L 310.893 467.055 L 311.825 467.055 L 311.825 467.433 L 310.893 467.433 L 310.893 469.323 A 0.979 0.979 0 0 0 310.907 469.495 Q 310.924 469.589 310.961 469.664 A 0.472 0.472 0 0 0 311.031 469.768 A 0.452 0.452 0 0 0 311.308 469.916 A 0.65 0.65 0 0 0 311.409 469.923 Q 311.538 469.923 311.658 469.904 A 2.631 2.631 0 0 0 311.728 469.892 Q 311.795 469.88 311.842 469.867 A 0.726 0.726 0 0 0 311.848 469.865 Z M 302.464 467.032 L 302.397 467.483 Q 302.231 467.446 302.098 467.44 A 1.141 1.141 0 0 0 302.045 467.439 A 0.843 0.843 0 0 0 301.423 467.708 A 1.153 1.153 0 0 0 301.379 467.755 A 1.111 1.111 0 0 0 301.111 468.379 A 1.476 1.476 0 0 0 301.102 468.543 L 301.102 470.266 L 300.616 470.266 L 300.616 467.055 L 301.017 467.055 L 301.073 467.65 L 301.096 467.65 A 1.642 1.642 0 0 1 301.28 467.387 A 1.255 1.255 0 0 1 301.527 467.166 A 0.969 0.969 0 0 1 302.081 466.997 A 2.233 2.233 0 0 1 302.28 467.005 A 1.63 1.63 0 0 1 302.464 467.032 Z M 305.792 469.146 A 2.512 2.512 0 0 0 305.836 468.658 A 2.854 2.854 0 0 0 305.835 468.58 Q 305.816 467.87 305.439 467.445 Q 305.042 466.997 304.369 466.997 A 1.889 1.889 0 0 0 304.029 467.026 A 1.286 1.286 0 0 0 303.279 467.435 A 1.344 1.344 0 0 0 303.114 467.663 Q 302.987 467.885 302.931 468.169 A 2.525 2.525 0 0 0 302.886 468.658 A 2.433 2.433 0 0 0 302.917 469.052 A 1.799 1.799 0 0 0 303.068 469.542 Q 303.25 469.92 303.583 470.122 A 1.354 1.354 0 0 0 303.894 470.261 A 1.562 1.562 0 0 0 304.348 470.325 Q 305.045 470.325 305.441 469.884 Q 305.704 469.591 305.792 469.146 Z M 303.39 468.658 A 2.463 2.463 0 0 0 303.414 469.009 Q 303.466 469.372 303.636 469.595 A 0.797 0.797 0 0 0 304.155 469.901 A 1.208 1.208 0 0 0 304.36 469.917 A 1.13 1.13 0 0 0 304.658 469.88 A 0.786 0.786 0 0 0 305.085 469.597 A 1.044 1.044 0 0 0 305.248 469.28 Q 305.295 469.134 305.316 468.955 A 2.562 2.562 0 0 0 305.333 468.658 A 2.427 2.427 0 0 0 305.31 468.312 Q 305.257 467.948 305.085 467.727 A 0.8 0.8 0 0 0 304.588 467.431 A 1.227 1.227 0 0 0 304.354 467.41 A 1.157 1.157 0 0 0 304.066 467.443 A 0.775 0.775 0 0 0 303.633 467.723 A 1.006 1.006 0 0 0 303.477 468.025 Q 303.431 468.164 303.409 468.334 A 2.57 2.57 0 0 0 303.39 468.658 Z" id="front_labelLayer" stroke="#777777" fill="#777777" style="stroke:#777777;fill:#777777" vector-effect="non-scaling-stroke"/><path d="M 616 453 L 616 462.875 L 613 462.875 L 613 466.375 L 616.25 466.375 L 616.25 468 L 616.25 469.625 L 613 469.625 L 613 473.125 L 616 473.125 L 616 483 L 633 483 L 633 480 L 651.375 480 L 651.375 478.05 L 650.125 478.05 L 650.125 475.4 L 651.375 475.4 L 651.375 472.75 L 654.625 472.75 L 654.625 475.4 L 655.875 475.4 L 655.875 478.05 L 654.625 478.05 L 654.625 480 L 673 480 L 673 483 L 713 483 L 713 480 L 731.375 480 L 731.375 478.05 L 730.125 478.05 L 730.125 475.4 L 731.375 475.4 L 731.375 472.75 L 734.625 472.75 L 734.625 475.4 L 735.875 475.4 L 735.875 478.05 L 734.625 478.05 L 734.625 480 L 753 480 L 753 483 L 793 483 L 793 480 L 811.375 480 L 811.375 478.05 L 810.125 478.05 L 810.125 475.4 L 811.375 475.4 L 811.375 472.75 L 814.625 472.75 L 814.625 475.4 L 815.875 475.4 L 815.875 478.05 L 814.625 478.05 L 814.625 480 L 833 480 L 833 483 L 850 483 L 850 473.125 L 853 473.125 L 853 469.625 L 849.75 469.625 L 849.75 468 L 849.75 466.375 L 853 466.375 L 853 462.875 L 850 462.875 L 850 453 L 833 453 L 833 456 L 814.625 456 L 814.625 457.95 L 815.875 457.95 L 815.875 460.6 L 814.625 460.6 L 814.625 463.25 L 811.375 463.25 L 811.375 460.6 L 810.125 460.6 L 810.125 457.95 L 811.375 457.95 L 811.375 456 L 793 456 L 793 453 L 753 453 L 753 456 L 734.625 456 L 734.625 457.95 L 735.875 457.95 L 735.875 460.6 L 734.625 460.6 L 734.625 463.25 L 731.375 463.25 L 731.375 460.6 L 730.125 460.6 L 730.125 457.95 L 731.375 457.95 L 731.375 456 L 713 456 L 713 453 L 673 453 L 673 456 L 654.625 456 L 654.625 457.95 L 655.875 457.95 L 655.875 460.6 L 654.625 460.6 L 654.625 463.25 L 651.375 463.25 L 651.375 460.6 L 650.125 460.6 L 650.125 457.95 L 651.375 457.95 L 651.375 456 L 633 456 L 633 453 L 616 453 Z" id="left_outsideCutPath" stroke="#FF0000" stroke-width="0.1" style="stroke:#FF0000;stroke-width:0.1" vector-effect="non-scaling-stroke"/><path d="M 735.134 467.055 L 735.134 467.433 L 734.317 467.433 L 734.317 470.266 L 733.831 470.266 L 733.831 467.433 L 733.256 467.433 L 733.256 467.213 L 733.831 467.038 L 733.831 466.859 Q 733.831 465.837 734.601 465.697 A 1.478 1.478 0 0 1 734.865 465.675 A 1.566 1.566 0 0 1 735.086 465.692 Q 735.194 465.708 735.314 465.737 A 3.148 3.148 0 0 1 735.462 465.778 L 735.336 466.167 A 2.362 2.362 0 0 0 735.153 466.116 Q 734.987 466.077 734.856 466.077 A 0.656 0.656 0 0 0 734.698 466.094 A 0.421 0.421 0 0 0 734.449 466.26 Q 734.317 466.443 734.317 466.847 L 734.317 467.055 L 735.134 467.055 Z M 732.858 468.441 L 732.858 468.748 L 730.646 468.748 A 1.952 1.952 0 0 0 730.68 469.075 Q 730.715 469.253 730.786 469.394 A 0.913 0.913 0 0 0 730.932 469.607 A 0.884 0.884 0 0 0 731.396 469.868 A 1.339 1.339 0 0 0 731.695 469.9 A 2.569 2.569 0 0 0 732.657 469.709 A 2.943 2.943 0 0 0 732.72 469.683 L 732.72 470.117 Q 732.462 470.228 732.232 470.276 Q 732.054 470.314 731.817 470.322 A 3.962 3.962 0 0 1 731.677 470.325 A 1.89 1.89 0 0 1 731.204 470.269 A 1.338 1.338 0 0 1 730.554 469.891 A 1.431 1.431 0 0 1 730.211 469.262 Q 730.142 469.003 730.142 468.687 Q 730.142 468.054 730.396 467.633 A 1.44 1.44 0 0 1 730.524 467.454 A 1.246 1.246 0 0 1 731.433 467.001 A 1.719 1.719 0 0 1 731.551 466.997 A 1.482 1.482 0 0 1 731.968 467.052 A 1.127 1.127 0 0 1 732.506 467.393 A 1.36 1.36 0 0 1 732.814 468.015 A 1.979 1.979 0 0 1 732.858 468.441 Z M 737.197 469.865 L 737.197 470.237 A 0.478 0.478 0 0 1 737.14 470.259 Q 737.08 470.279 736.993 470.295 A 1.819 1.819 0 0 1 736.964 470.3 A 2.108 2.108 0 0 1 736.826 470.318 Q 736.752 470.325 736.687 470.325 A 1.27 1.27 0 0 1 736.313 470.274 Q 735.901 470.147 735.794 469.7 A 1.529 1.529 0 0 1 735.755 469.343 L 735.755 467.433 L 735.295 467.433 L 735.295 467.199 L 735.755 466.997 L 735.96 466.311 L 736.242 466.311 L 736.242 467.055 L 737.173 467.055 L 737.173 467.433 L 736.242 467.433 L 736.242 469.323 A 0.979 0.979 0 0 0 736.256 469.495 Q 736.273 469.589 736.31 469.664 A 0.472 0.472 0 0 0 736.379 469.768 A 0.452 0.452 0 0 0 736.657 469.916 A 0.65 0.65 0 0 0 736.757 469.923 Q 736.886 469.923 737.006 469.904 A 2.631 2.631 0 0 0 737.077 469.892 Q 737.144 469.88 737.19 469.867 A 0.726 0.726 0 0 0 737.197 469.865 Z M 729.29 465.707 L 729.29 470.266 L 728.803 470.266 L 728.803 465.707 L 729.29 465.707 Z M 730.658 468.353 L 732.336 468.353 Q 732.336 468.042 732.243 467.829 A 0.752 0.752 0 0 0 732.131 467.648 A 0.666 0.666 0 0 0 731.73 467.42 A 0.999 0.999 0 0 0 731.545 467.404 A 0.959 0.959 0 0 0 731.268 467.442 A 0.741 0.741 0 0 0 730.929 467.656 A 0.961 0.961 0 0 0 730.738 467.978 Q 730.689 468.11 730.667 468.27 A 1.837 1.837 0 0 0 730.658 468.353 Z" id="left_labelLayer" stroke="#777777" fill="#777777" style="stroke:#777777;fill:#777777" vector-effect="non-scaling-stroke"/><path d="M 859 246 L 859 263 L 856 263 L 856 281.375 L 859.25 281.375 L 859.25 283 L 859.25 284.625 L 856 284.625 L 856 303 L 859 303 L 859 343 L 856 343 L 856 361.375 L 859.25 361.375 L 859.25 363 L 859.25 364.625 L 856 364.625 L 856 383 L 859 383 L 859 423 L 856 423 L 856 441.375 L 859.25 441.375 L 859.25 443 L 859.25 444.625 L 856 444.625 L 856 463 L 859 463 L 859 480 L 906.833 480 L 906.833 483 L 956.042 483 L 956.042 479.75 L 957.667 479.75 L 959.292 479.75 L 959.292 483 L 1008.5 483 L 1008.5 480 L 1110.167 480 L 1110.167 483 L 1159.375 483 L 1159.375 479.75 L 1161 479.75 L 1162.625 479.75 L 1162.625 483 L 1211.833 483 L 1211.833 480 L 1313.5 480 L 1313.5 483 L 1362.708 483 L 1362.708 479.75 L 1364.333 479.75 L 1365.958 479.75 L 1365.958 483 L 1415.167 483 L 1415.167 480 L 1463 480 L 1463 463 L 1466 463 L 1466 444.625 L 1462.75 444.625 L 1462.75 443 L 1462.75 441.375 L 1466 441.375 L 1466 423 L 1463 423 L 1463 383 L 1466 383 L 1466 364.625 L 1462.75 364.625 L 1462.75 363 L 1462.75 361.375 L 1466 361.375 L 1466 343 L 1463 343 L 1463 303 L 1466 303 L 1466 284.625 L 1462.75 284.625 L 1462.75 283 L 1462.75 281.375 L 1466 281.375 L 1466 263 L 1463 263 L 1463 246 L 1415.167 246 L 1415.167 243 L 1365.958 243 L 1365.958 246.25 L 1364.333 246.25 L 1362.708 246.25 L 1362.708 243 L 1313.5 243 L 1313.5 246 L 1211.833 246 L 1211.833 243 L 1162.625 243 L 1162.625 246.25 L 1161 246.25 L 1159.375 246.25 L 1159.375 243 L 1110.167 243 L 1110.167 246 L 1008.5 246 L 1008.5 243 L 959.292 243 L 959.292 246.25 L 957.667 246.25 L 956.042 246.25 L 956.042 243 L 906.833 243 L 906.833 246 L 859 246 Z" id="top_outsideCutPath" stroke="#FF0000" stroke-width="0.1" style="stroke:#FF0000;stroke-width:0.1" vector-effect="non-scaling-stroke"/><path d="M 1178.25 369.75 L 1177.969 369.75 A 36.82 36.82 0 0 1 1178.21 372.471 A 30.853 30.853 0 0 1 1178.25 374.016 L 1178.25 384.586 L 1174.359 384.586 L 1174.359 347.367 L 1177.523 347.367 L 1178.062 350.883 L 1178.25 350.883 A 10.473 10.473 0 0 1 1179.764 349.163 A 8.098 8.098 0 0 1 1181.742 347.836 A 9.743 9.743 0 0 1 1184.535 347.02 A 12.611 12.611 0 0 1 1186.312 346.898 A 11.926 11.926 0 0 1 1189.681 347.349 A 8.815 8.815 0 0 1 1194.199 350.391 Q 1196.469 353.245 1196.884 357.979 A 25.335 25.335 0 0 1 1196.976 360.187 A 22.812 22.812 0 0 1 1196.674 364.026 Q 1196.052 367.662 1194.152 370.02 A 9.21 9.21 0 0 1 1187.606 373.462 A 13.196 13.196 0 0 1 1186.312 373.523 A 11.801 11.801 0 0 1 1183.347 373.162 A 10.268 10.268 0 0 1 1181.73 372.598 A 8.617 8.617 0 0 1 1178.25 369.75 Z M 1140.234 369.844 L 1140.234 372.82 A 3.827 3.827 0 0 1 1139.78 373 Q 1139.296 373.161 1138.603 373.285 A 14.549 14.549 0 0 1 1138.371 373.324 A 16.863 16.863 0 0 1 1137.271 373.467 Q 1136.753 373.516 1136.288 373.523 A 9.974 9.974 0 0 1 1136.156 373.523 A 10.162 10.162 0 0 1 1133.161 373.12 Q 1129.87 372.105 1129.008 368.529 A 12.229 12.229 0 0 1 1128.703 365.672 L 1128.703 350.391 L 1125.023 350.391 L 1125.023 348.516 L 1128.703 346.898 L 1130.344 341.414 L 1132.594 341.414 L 1132.594 347.367 L 1140.047 347.367 L 1140.047 350.391 L 1132.594 350.391 L 1132.594 365.508 A 7.834 7.834 0 0 0 1132.707 366.884 Q 1132.841 367.639 1133.137 368.236 A 3.774 3.774 0 0 0 1133.695 369.07 A 3.614 3.614 0 0 0 1135.917 370.253 A 5.2 5.2 0 0 0 1136.719 370.312 A 12.777 12.777 0 0 0 1138.59 370.179 A 11.774 11.774 0 0 0 1138.711 370.16 A 21.047 21.047 0 0 0 1139.272 370.064 Q 1139.809 369.964 1140.182 369.859 A 5.843 5.843 0 0 0 1140.234 369.844 Z M 1167.182 364.097 A 20.097 20.097 0 0 0 1167.539 360.188 A 22.834 22.834 0 0 0 1167.531 359.57 Q 1167.473 357.431 1167.01 355.615 A 12.115 12.115 0 0 0 1164.363 350.484 A 10.185 10.185 0 0 0 1159.635 347.435 A 13.073 13.073 0 0 0 1155.797 346.898 A 15.111 15.111 0 0 0 1153.082 347.131 A 10.291 10.291 0 0 0 1147.078 350.402 A 10.749 10.749 0 0 0 1145.758 352.233 Q 1144.741 354.005 1144.292 356.281 A 20.201 20.201 0 0 0 1143.937 360.188 A 19.463 19.463 0 0 0 1144.182 363.34 A 14.393 14.393 0 0 0 1145.39 367.266 A 12.788 12.788 0 0 0 1145.674 367.82 A 10.533 10.533 0 0 0 1149.515 371.906 A 10.833 10.833 0 0 0 1152.002 373.012 A 12.494 12.494 0 0 0 1155.633 373.523 A 15.108 15.108 0 0 0 1158.271 373.303 A 10.372 10.372 0 0 0 1164.375 369.996 A 10.853 10.853 0 0 0 1165.667 368.221 Q 1166.721 366.417 1167.182 364.097 Z M 1148.798 365.588 A 8.162 8.162 0 0 0 1149.937 367.688 A 6.377 6.377 0 0 0 1154.09 370.133 A 9.663 9.663 0 0 0 1155.726 370.266 A 9.037 9.037 0 0 0 1158.11 369.969 A 6.289 6.289 0 0 0 1161.527 367.699 Q 1163 365.791 1163.377 362.567 A 20.494 20.494 0 0 0 1163.508 360.188 Q 1163.508 355.289 1161.527 352.746 A 6.4 6.4 0 0 0 1157.548 350.372 A 9.813 9.813 0 0 0 1155.679 350.203 Q 1151.859 350.203 1149.914 352.711 A 8.044 8.044 0 0 0 1148.663 355.127 Q 1147.969 357.218 1147.969 360.188 Q 1147.969 363.381 1148.798 365.588 Z M 1178.25 359.32 L 1178.25 360.188 A 25.724 25.724 0 0 0 1178.377 362.846 Q 1178.657 365.529 1179.552 367.161 A 5.868 5.868 0 0 0 1180.054 367.934 Q 1181.859 370.266 1185.844 370.266 A 6.556 6.556 0 0 0 1188.392 369.787 Q 1189.862 369.173 1190.911 367.773 A 7.753 7.753 0 0 0 1191.058 367.57 Q 1192.547 365.444 1192.861 362.047 A 20.727 20.727 0 0 0 1192.945 360.141 Q 1192.945 355.336 1191.058 352.77 A 6.052 6.052 0 0 0 1186.632 350.248 A 8.371 8.371 0 0 0 1185.75 350.203 A 11.21 11.21 0 0 0 1183.656 350.385 Q 1182.489 350.607 1181.594 351.101 A 5.141 5.141 0 0 0 1180.054 352.383 A 6.666 6.666 0 0 0 1179.012 354.282 Q 1178.28 356.272 1178.25 359.32 Z" id="top_labelLayer" stroke="#777777" fill="#777777" style="stroke:#777777;fill:#777777" vector-effect="non-scaling-stroke"/><path d="M 0 420 L 0 429.875 L 3 429.875 L 3 433.375 L 4.95 433.375 L 4.95 432.125 L 7.6 432.125 L 7.6 433.375 L 10.25 433.375 L 10.25 436.625 L 7.6 436.625 L 7.6 437.875 L 4.95 437.875 L 4.95 436.625 L 3 436.625 L 3 440.125 L 0 440.125 L 0 450 L 50.833 450 L 50.833 447 L 100.042 447 L 100.042 445.05 L 98.792 445.05 L 98.792 442.4 L 100.042 442.4 L 100.042 439.75 L 103.292 439.75 L 103.292 442.4 L 104.542 442.4 L 104.542 445.05 L 103.292 445.05 L 103.292 447 L 152.5 447 L 152.5 450 L 254.167 450 L 254.167 447 L 303.375 447 L 303.375 445.05 L 302.125 445.05 L 302.125 442.4 L 303.375 442.4 L 303.375 439.75 L 306.625 439.75 L 306.625 442.4 L 307.875 442.4 L 307.875 445.05 L 306.625 445.05 L 306.625 447 L 355.833 447 L 355.833 450 L 457.5 450 L 457.5 447 L 506.708 447 L 506.708 445.05 L 505.458 445.05 L 505.458 442.4 L 506.708 442.4 L 506.708 439.75 L 509.958 439.75 L 509.958 442.4 L 511.208 442.4 L 511.208 445.05 L 509.958 445.05 L 509.958 447 L 559.167 447 L 559.167 450 L 610 450 L 610 440.125 L 607 440.125 L 607 436.625 L 605.05 436.625 L 605.05 437.875 L 602.4 437.875 L 602.4 436.625 L 599.75 436.625 L 599.75 433.375 L 602.4 433.375 L 602.4 432.125 L 605.05 432.125 L 605.05 433.375 L 607 433.375 L 607 429.875 L 610 429.875 L 610 420 L 559.167 420 L 559.167 423 L 509.958 423 L 509.958 424.95 L 511.208 424.95 L 511.208 427.6 L 509.958 427.6 L 509.958 430.25 L 506.708 430.25 L 506.708 427.6 L 505.458 427.6 L 505.458 424.95 L 506.708 424.95 L 506.708 423 L 457.5 423 L 457.5 420 L 355.833 420 L 355.833 423 L 306.625 423 L 306.625 424.95 L 307.875 424.95 L 307.875 427.6 L 306.625 427.6 L 306.625 430.25 L 303.375 430.25 L 303.375 427.6 L 302.125 427.6 L 302.125 424.95 L 303.375 424.95 L 303.375 423 L 254.167 423 L 254.167 420 L 152.5 420 L 152.5 423 L 103.292 423 L 103.292 424.95 L 104.542 424.95 L 104.542 427.6 L 103.292 427.6 L 103.292 430.25 L 100.042 430.25 L 100.042 427.6 L 98.792 427.6 L 98.792 424.95 L 100.042 424.95 L 100.042 423 L 50.833 423 L 50.833 420 L 0 420 Z" id="back_outsideCutPath" stroke="#FF0000" stroke-width="0.1" style="stroke:#FF0000;stroke-width:0.1" vector-effect="non-scaling-stroke"/><path d="M 309.107 435.606 L 309.131 435.606 Q 309.227 435.47 309.401 435.268 A 10.448 10.448 0 0 1 309.515 435.138 L 310.552 434.039 L 311.129 434.039 L 309.828 435.407 L 311.22 437.25 L 310.631 437.25 L 309.497 435.732 L 309.131 436.049 L 309.131 437.25 L 308.65 437.25 L 308.65 432.691 L 309.131 432.691 L 309.131 435.108 Q 309.131 435.269 309.107 435.606 Z M 299.267 436.837 L 299.231 436.837 L 299.129 437.25 L 298.78 437.25 L 298.78 432.691 L 299.267 432.691 L 299.267 433.799 A 10.14 10.14 0 0 1 299.261 434.141 Q 299.256 434.303 299.245 434.448 A 6.057 6.057 0 0 1 299.243 434.467 L 299.267 434.467 Q 299.606 433.986 300.274 433.986 A 1.486 1.486 0 0 1 300.693 434.042 A 1.113 1.113 0 0 1 301.257 434.418 Q 301.538 434.764 301.594 435.341 A 3.122 3.122 0 0 1 301.607 435.642 A 2.851 2.851 0 0 1 301.57 436.121 Q 301.492 436.576 301.254 436.871 Q 300.901 437.309 300.274 437.309 A 1.475 1.475 0 0 1 299.904 437.263 A 1.283 1.283 0 0 1 299.702 437.193 A 1.077 1.077 0 0 1 299.267 436.837 Z M 304.792 437.25 L 304.432 437.25 L 304.335 436.793 L 304.312 436.793 A 2.016 2.016 0 0 1 304.148 436.976 Q 304.061 437.062 303.973 437.122 A 0.896 0.896 0 0 1 303.833 437.202 A 1.121 1.121 0 0 1 303.601 437.275 Q 303.437 437.309 303.236 437.309 A 1.492 1.492 0 0 1 302.933 437.28 Q 302.747 437.241 302.604 437.151 A 0.837 0.837 0 0 1 302.488 437.062 A 0.799 0.799 0 0 1 302.247 436.641 A 1.224 1.224 0 0 1 302.217 436.362 Q 302.217 435.421 303.674 435.347 A 4.751 4.751 0 0 1 303.772 435.343 L 304.317 435.325 L 304.317 435.126 Q 304.317 434.748 304.155 434.568 Q 304.025 434.424 303.771 434.395 A 1.202 1.202 0 0 0 303.635 434.388 Q 303.312 434.388 302.921 434.547 A 3.257 3.257 0 0 0 302.727 434.634 L 302.577 434.262 A 2.242 2.242 0 0 1 303.01 434.084 A 2.552 2.552 0 0 1 303.097 434.06 A 2.252 2.252 0 0 1 303.664 433.986 A 2.054 2.054 0 0 1 303.977 434.008 Q 304.32 434.061 304.515 434.241 A 0.77 0.77 0 0 1 304.714 434.548 Q 304.76 434.674 304.779 434.83 A 1.914 1.914 0 0 1 304.792 435.059 L 304.792 437.25 Z M 307.936 434.147 L 307.786 434.561 A 2.163 2.163 0 0 0 307.551 434.482 A 2.584 2.584 0 0 0 307.435 434.454 A 2.009 2.009 0 0 0 307.282 434.425 Q 307.182 434.411 307.098 434.411 A 1.079 1.079 0 0 0 306.66 434.493 Q 306.119 434.732 306.119 435.659 Q 306.119 436.048 306.222 436.317 A 1.009 1.009 0 0 0 306.358 436.567 A 0.772 0.772 0 0 0 306.858 436.866 A 1.177 1.177 0 0 0 307.065 436.884 Q 307.467 436.884 307.889 436.711 L 307.889 437.142 A 1.383 1.383 0 0 1 307.55 437.261 Q 307.337 437.309 307.077 437.309 A 1.818 1.818 0 0 1 306.635 437.258 A 1.233 1.233 0 0 1 305.998 436.879 A 1.407 1.407 0 0 1 305.705 436.342 Q 305.64 436.129 305.622 435.872 A 2.941 2.941 0 0 1 305.615 435.665 Q 305.615 434.859 306.003 434.42 A 1.259 1.259 0 0 1 306.693 434.023 A 1.909 1.909 0 0 1 307.109 433.98 A 2.195 2.195 0 0 1 307.572 434.03 A 2.428 2.428 0 0 1 307.707 434.063 Q 307.845 434.101 307.936 434.147 Z M 300.204 434.394 A 1.367 1.367 0 0 0 299.939 434.417 Q 299.789 434.447 299.674 434.514 A 0.647 0.647 0 0 0 299.486 434.679 Q 299.293 434.93 299.27 435.483 A 3.747 3.747 0 0 0 299.267 435.642 Q 299.267 436.216 299.429 436.513 A 0.734 0.734 0 0 0 299.492 436.61 A 0.706 0.706 0 0 0 299.85 436.851 Q 299.97 436.889 300.116 436.898 A 1.564 1.564 0 0 0 300.216 436.901 A 0.969 0.969 0 0 0 300.491 436.864 A 0.699 0.699 0 0 0 300.884 436.575 A 1.116 1.116 0 0 0 301.022 436.276 Q 301.065 436.134 301.086 435.962 A 2.787 2.787 0 0 0 301.104 435.636 A 2.873 2.873 0 0 0 301.086 435.308 Q 301.045 434.95 300.906 434.734 A 0.807 0.807 0 0 0 300.884 434.701 A 0.709 0.709 0 0 0 300.432 434.415 A 1.125 1.125 0 0 0 300.204 434.394 Z M 304.306 435.961 L 304.306 435.671 L 303.819 435.691 Q 303.335 435.708 303.076 435.823 A 0.747 0.747 0 0 0 302.983 435.872 Q 302.727 436.031 302.727 436.368 A 0.695 0.695 0 0 0 302.744 436.528 Q 302.773 436.65 302.85 436.734 A 0.433 0.433 0 0 0 302.886 436.769 Q 303.046 436.907 303.333 436.907 Q 303.725 436.907 303.972 436.721 A 0.812 0.812 0 0 0 304.046 436.658 Q 304.306 436.409 304.306 435.961 Z" id="back_labelLayer" stroke="#777777" fill="#777777" style="stroke:#777777;fill:#777777" vector-effect="non-scaling-stroke"/><path d="M 616 420 L 616 429.875 L 613 429.875 L 613 433.375 L 616.25 433.375 L 616.25 435 L 616.25 436.625 L 613 436.625 L 613 440.125 L 616 440.125 L 616 450 L 633 450 L 633 447 L 651.375 447 L 651.375 445.05 L 650.125 445.05 L 650.125 442.4 L 651.375 442.4 L 651.375 439.75 L 654.625 439.75 L 654.625 442.4 L 655.875 442.4 L 655.875 445.05 L 654.625 445.05 L 654.625 447 L 673 447 L 673 450 L 713 450 L 713 447 L 731.375 447 L 731.375 445.05 L 730.125 445.05 L 730.125 442.4 L 731.375 442.4 L 731.375 439.75 L 734.625 439.75 L 734.625 442.4 L 735.875 442.4 L 735.875 445.05 L 734.625 445.05 L 734.625 447 L 753 447 L 753 450 L 793 450 L 793 447 L 811.375 447 L 811.375 445.05 L 810.125 445.05 L 810.125 442.4 L 811.375 442.4 L 811.375 439.75 L 814.625 439.75 L 814.625 442.4 L 815.875 442.4 L 815.875 445.05 L 814.625 445.05 L 814.625 447 L 833 447 L 833 450 L 850 450 L 850 440.125 L 853 440.125 L 853 436.625 L 849.75 436.625 L 849.75 435 L 849.75 433.375 L 853 433.375 L 853 429.875 L 850 429.875 L 850 420 L 833 420 L 833 423 L 814.625 423 L 814.625 424.95 L 815.875 424.95 L 815.875 427.6 L 814.625 427.6 L 814.625 430.25 L 811.375 430.25 L 811.375 427.6 L 810.125 427.6 L 810.125 424.95 L 811.375 424.95 L 811.375 423 L 793 423 L 793 420 L 753 420 L 753 423 L 734.625 423 L 734.625 424.95 L 735.875 424.95 L 735.875 427.6 L 734.625 427.6 L 734.625 430.25 L 731.375 430.25 L 731.375 427.6 L 730.125 427.6 L 730.125 424.95 L 731.375 424.95 L 731.375 423 L 713 423 L 713 420 L 673 420 L 673 423 L 654.625 423 L 654.625 424.95 L 655.875 424.95 L 655.875 427.6 L 654.625 427.6 L 654.625 430.25 L 651.375 430.25 L 651.375 427.6 L 650.125 427.6 L 650.125 424.95 L 651.375 424.95 L 651.375 423 L 633 423 L 633 420 L 616 420 Z" id="right_outsideCutPath" stroke="#FF0000" stroke-width="0.1" style="stroke:#FF0000;stroke-width:0.1" vector-effect="non-scaling-stroke"/><path d="M 736.731 436.559 L 736.245 436.559 L 736.245 434.481 A 1.375 1.375 0 0 0 736.229 434.266 Q 736.192 434.031 736.066 433.895 A 0.548 0.548 0 0 0 735.841 433.752 Q 735.753 433.721 735.644 433.709 A 1.289 1.289 0 0 0 735.506 433.702 A 1.472 1.472 0 0 0 735.231 433.726 Q 735.079 433.755 734.961 433.82 A 0.681 0.681 0 0 0 734.767 433.978 A 0.809 0.809 0 0 0 734.629 434.221 Q 734.534 434.478 734.534 434.88 L 734.534 436.559 L 734.047 436.559 L 734.047 432 L 734.534 432 L 734.534 433.38 A 4.375 4.375 0 0 1 734.531 433.548 Q 734.528 433.627 734.522 433.694 A 1.902 1.902 0 0 1 734.51 433.793 L 734.54 433.793 A 0.972 0.972 0 0 1 734.88 433.465 A 1.187 1.187 0 0 1 734.948 433.428 A 1.248 1.248 0 0 1 735.358 433.307 A 1.578 1.578 0 0 1 735.553 433.295 A 1.973 1.973 0 0 1 735.885 433.321 Q 736.232 433.38 736.437 433.575 A 0.847 0.847 0 0 1 736.645 433.903 Q 736.696 434.039 736.716 434.208 A 2.103 2.103 0 0 1 736.731 434.464 L 736.731 436.559 Z M 732.278 433.348 L 733.388 433.348 L 733.388 433.655 L 732.793 433.726 A 0.79 0.79 0 0 1 732.862 433.827 Q 732.892 433.88 732.919 433.943 A 1.499 1.499 0 0 1 732.94 433.994 A 0.936 0.936 0 0 1 732.995 434.217 A 1.202 1.202 0 0 1 733.004 434.367 A 1.115 1.115 0 0 1 732.953 434.713 A 0.902 0.902 0 0 1 732.682 435.12 A 1.079 1.079 0 0 1 732.258 435.344 Q 732.052 435.401 731.797 435.401 A 1.563 1.563 0 0 1 731.617 435.391 A 1.32 1.32 0 0 1 731.528 435.378 Q 731.351 435.472 731.274 435.593 A 0.366 0.366 0 0 0 731.217 435.791 Q 731.217 435.923 731.326 435.986 A 0.341 0.341 0 0 0 731.401 436.017 Q 731.481 436.04 731.601 436.046 A 1.85 1.85 0 0 0 731.698 436.049 L 732.266 436.049 A 1.991 1.991 0 0 1 732.568 436.07 Q 732.727 436.095 732.854 436.147 A 0.879 0.879 0 0 1 733.067 436.269 A 0.711 0.711 0 0 1 733.332 436.722 A 1.069 1.069 0 0 1 733.347 436.907 A 1.053 1.053 0 0 1 733.287 437.271 Q 733.187 437.545 732.919 437.72 A 1.458 1.458 0 0 1 732.543 437.891 Q 732.184 438 731.671 438 Q 731.258 438 730.969 437.899 A 1.13 1.13 0 0 1 730.7 437.766 A 0.775 0.775 0 0 1 730.45 437.494 Q 730.359 437.325 730.359 437.103 Q 730.359 436.811 730.546 436.597 A 0.849 0.849 0 0 1 730.838 436.384 A 1.204 1.204 0 0 1 731.074 436.307 A 0.505 0.505 0 0 1 730.878 436.148 A 0.599 0.599 0 0 1 730.867 436.134 A 0.451 0.451 0 0 1 730.784 435.89 A 0.558 0.558 0 0 1 730.784 435.861 A 0.556 0.556 0 0 1 730.812 435.682 A 0.493 0.493 0 0 1 730.877 435.554 Q 730.948 435.454 731.081 435.359 A 1.528 1.528 0 0 1 731.173 435.299 A 0.853 0.853 0 0 1 730.803 435.002 A 1.057 1.057 0 0 1 730.768 434.95 A 1.005 1.005 0 0 1 730.613 434.466 A 1.227 1.227 0 0 1 730.611 434.388 A 1.405 1.405 0 0 1 730.648 434.055 A 0.924 0.924 0 0 1 730.927 433.575 A 1.033 1.033 0 0 1 731.324 433.356 Q 731.481 433.308 731.671 433.294 A 2.148 2.148 0 0 1 731.824 433.289 A 1.864 1.864 0 0 1 732.07 433.305 A 1.42 1.42 0 0 1 732.278 433.348 Z M 739.207 436.157 L 739.207 436.529 A 0.478 0.478 0 0 1 739.15 436.552 Q 739.089 436.572 739.003 436.587 A 1.819 1.819 0 0 1 738.974 436.592 A 2.108 2.108 0 0 1 738.836 436.61 Q 738.762 436.617 738.697 436.617 A 1.27 1.27 0 0 1 738.322 436.567 Q 737.911 436.44 737.803 435.993 A 1.529 1.529 0 0 1 737.765 435.636 L 737.765 433.726 L 737.305 433.726 L 737.305 433.491 L 737.765 433.289 L 737.97 432.603 L 738.251 432.603 L 738.251 433.348 L 739.183 433.348 L 739.183 433.726 L 738.251 433.726 L 738.251 435.615 A 0.979 0.979 0 0 0 738.266 435.787 Q 738.282 435.882 738.319 435.956 A 0.472 0.472 0 0 0 738.389 436.061 A 0.452 0.452 0 0 0 738.667 436.208 A 0.65 0.65 0 0 0 738.767 436.216 Q 738.896 436.216 739.016 436.197 A 2.631 2.631 0 0 0 739.086 436.185 Q 739.153 436.172 739.2 436.159 A 0.726 0.726 0 0 0 739.207 436.157 Z M 728.642 433.324 L 728.575 433.775 Q 728.409 433.739 728.275 433.733 A 1.141 1.141 0 0 0 728.223 433.731 A 0.843 0.843 0 0 0 727.601 434 A 1.153 1.153 0 0 0 727.557 434.048 A 1.111 1.111 0 0 0 727.289 434.671 A 1.476 1.476 0 0 0 727.28 434.836 L 727.28 436.559 L 726.793 436.559 L 726.793 433.348 L 727.195 433.348 L 727.25 433.942 L 727.274 433.942 A 1.642 1.642 0 0 1 727.458 433.68 A 1.255 1.255 0 0 1 727.705 433.459 A 0.969 0.969 0 0 1 728.258 433.289 A 2.233 2.233 0 0 1 728.458 433.298 A 1.63 1.63 0 0 1 728.642 433.324 Z M 729.729 433.348 L 729.729 436.559 L 729.243 436.559 L 729.243 433.348 L 729.729 433.348 Z M 732.111 436.485 L 731.528 436.485 A 1.118 1.118 0 0 0 731.326 436.502 Q 731.136 436.537 731.012 436.644 Q 730.828 436.802 730.828 437.098 A 0.488 0.488 0 0 0 730.86 437.279 Q 730.906 437.396 731.019 437.474 A 0.571 0.571 0 0 0 731.047 437.493 A 0.779 0.779 0 0 0 731.239 437.575 Q 731.419 437.628 731.673 437.628 A 2.498 2.498 0 0 0 731.677 437.628 Q 732.224 437.628 732.518 437.482 A 0.808 0.808 0 0 0 732.584 437.445 A 0.709 0.709 0 0 0 732.749 437.307 A 0.532 0.532 0 0 0 732.878 436.948 A 0.658 0.658 0 0 0 732.866 436.818 Q 732.851 436.742 732.817 436.686 A 0.307 0.307 0 0 0 732.717 436.586 Q 732.595 436.509 732.307 436.491 A 3.094 3.094 0 0 0 732.111 436.485 Z M 731.091 434.376 A 0.949 0.949 0 0 0 731.111 434.575 Q 731.152 434.768 731.282 434.886 Q 731.472 435.059 731.812 435.059 A 1.059 1.059 0 0 0 732.089 435.025 Q 732.524 434.907 732.524 434.367 Q 732.524 433.793 732.07 433.674 A 1.058 1.058 0 0 0 731.803 433.644 Q 731.541 433.644 731.371 433.752 A 0.56 0.56 0 0 0 731.276 433.828 Q 731.119 433.985 731.096 434.27 A 1.279 1.279 0 0 0 731.091 434.376 Z M 729.209 432.388 A 0.539 0.539 0 0 0 729.202 432.478 Q 729.202 432.642 729.284 432.722 A 0.273 0.273 0 0 0 729.382 432.785 A 0.309 0.309 0 0 0 729.489 432.803 Q 729.606 432.803 729.691 432.722 A 0.237 0.237 0 0 0 729.737 432.661 Q 729.758 432.621 729.768 432.57 A 0.503 0.503 0 0 0 729.776 432.478 Q 729.776 432.397 729.756 432.338 A 0.246 0.246 0 0 0 729.691 432.234 Q 729.606 432.155 729.489 432.155 A 0.371 0.371 0 0 0 729.464 432.156 A 0.281 0.281 0 0 0 729.284 432.233 A 0.227 0.227 0 0 0 729.233 432.304 Q 729.216 432.341 729.209 432.388 Z" id="right_labelLayer" stroke="#777777" fill="#777777" style="stroke:#777777;fill:#777777" vector-effect="non-scaling-stroke"/><path d="M 859 3 L 859 20 L 856 20 L 856 38.375 L 859.25 38.375 L 859.25 40 L 859.25 41.625 L 856 41.625 L 856 60 L 859 60 L 859 100 L 856 100 L 856 118.375 L 859.25 118.375 L 859.25 120 L 859.25 121.625 L 856 121.625 L 856 140 L 859 140 L 859 180 L 856 180 L 856 198.375 L 859.25 198.375 L 859.25 200 L 859.25 201.625 L 856 201.625 L 856 220 L 859 220 L 859 237 L 906.833 237 L 906.833 240 L 956.042 240 L 956.042 236.75 L 957.667 236.75 L 959.292 236.75 L 959.292 240 L 1008.5 240 L 1008.5 237 L 1110.167 237 L 1110.167 240 L 1159.375 240 L 1159.375 236.75 L 1161 236.75 L 1162.625 236.75 L 1162.625 240 L 1211.833 240 L 1211.833 237 L 1313.5 237 L 1313.5 240 L 1362.708 240 L 1362.708 236.75 L 1364.333 236.75 L 1365.958 236.75 L 1365.958 240 L 1415.167 240 L 1415.167 237 L 1463 237 L 1463 220 L 1466 220 L 1466 201.625 L 1462.75 201.625 L 1462.75 200 L 1462.75 198.375 L 1466 198.375 L 1466 180 L 1463 180 L 1463 140 L 1466 140 L 1466 121.625 L 1462.75 121.625 L 1462.75 120 L 1462.75 118.375 L 1466 118.375 L 1466 100 L 1463 100 L 1463 60 L 1466 60 L 1466 41.625 L 1462.75 41.625 L 1462.75 40 L 1462.75 38.375 L 1466 38.375 L 1466 20 L 1463 20 L 1463 3 L 1415.167 3 L 1415.167 0 L 1365.958 0 L 1365.958 3.25 L 1364.333 3.25 L 1362.708 3.25 L 1362.708 0 L 1313.5 0 L 1313.5 3 L 1211.833 3 L 1211.833 0 L 1162.625 0 L 1162.625 3.25 L 1161 3.25 L 1159.375 3.25 L 1159.375 0 L 1110.167 0 L 1110.167 3 L 1008.5 3 L 1008.5 0 L 959.292 0 L 959.292 3.25 L 957.667 3.25 L 956.042 3.25 L 956.042 0 L 906.833 0 L 906.833 3 L 859 3 Z" id="bottom_outsideCutPath" stroke="#FF0000" stroke-width="0.1" style="stroke:#FF0000;stroke-width:0.1" vector-effect="non-scaling-stroke"/><path d="M 1239.961 137.999 L 1236.07 137.999 L 1236.07 121.288 A 11.478 11.478 0 0 0 1235.955 119.601 Q 1235.826 118.739 1235.555 118.044 A 4.702 4.702 0 0 0 1234.758 116.683 Q 1233.445 115.148 1230.68 115.148 Q 1227.047 115.148 1225.312 117.234 Q 1223.586 119.31 1223.578 123.616 A 21.655 21.655 0 0 0 1223.578 123.656 L 1223.578 137.999 L 1219.687 137.999 L 1219.687 121.288 A 11.478 11.478 0 0 0 1219.572 119.601 Q 1219.443 118.739 1219.172 118.044 A 4.702 4.702 0 0 0 1218.375 116.683 A 4.081 4.081 0 0 0 1216.498 115.463 Q 1215.537 115.148 1214.273 115.148 A 9.663 9.663 0 0 0 1212.275 115.341 Q 1210.113 115.798 1208.918 117.339 A 6.524 6.524 0 0 0 1207.95 119.177 Q 1207.323 120.951 1207.234 123.612 A 27.088 27.088 0 0 0 1207.219 124.523 L 1207.219 137.999 L 1203.328 137.999 L 1203.328 112.312 L 1206.492 112.312 L 1207.125 115.828 L 1207.312 115.828 A 7.646 7.646 0 0 1 1210.418 112.898 A 9.237 9.237 0 0 1 1214.066 111.874 A 11.157 11.157 0 0 1 1214.906 111.843 A 12.738 12.738 0 0 1 1217.773 112.142 Q 1219.537 112.55 1220.767 113.515 A 6.642 6.642 0 0 1 1222.781 116.203 L 1222.969 116.203 A 8.123 8.123 0 0 1 1226.028 113.165 A 9.76 9.76 0 0 1 1226.297 113.015 A 9.847 9.847 0 0 1 1229.909 111.916 A 12.279 12.279 0 0 1 1231.266 111.843 A 13.524 13.524 0 0 1 1233.719 112.051 Q 1236.285 112.525 1237.793 114.081 Q 1239.371 115.711 1239.801 118.763 A 17.845 17.845 0 0 1 1239.961 121.242 L 1239.961 137.999 Z M 1085.93 134.695 L 1085.648 134.695 L 1084.828 137.999 L 1082.039 137.999 L 1082.039 101.531 L 1085.93 101.531 L 1085.93 110.39 A 81.116 81.116 0 0 1 1085.886 113.131 Q 1085.842 114.427 1085.754 115.581 A 48.551 48.551 0 0 1 1085.742 115.734 L 1085.93 115.734 Q 1088.648 111.89 1093.992 111.89 A 11.891 11.891 0 0 1 1097.339 112.336 A 8.902 8.902 0 0 1 1101.855 115.347 Q 1104.098 118.115 1104.545 122.725 A 24.973 24.973 0 0 1 1104.656 125.132 A 22.812 22.812 0 0 1 1104.354 128.97 Q 1103.732 132.607 1101.832 134.964 A 9.21 9.21 0 0 1 1095.286 138.406 A 13.196 13.196 0 0 1 1093.992 138.468 A 11.801 11.801 0 0 1 1091.027 138.107 A 10.268 10.268 0 0 1 1089.41 137.542 A 8.617 8.617 0 0 1 1085.93 134.695 Z M 1152.258 134.788 L 1152.258 137.765 A 3.827 3.827 0 0 1 1151.804 137.945 Q 1151.32 138.106 1150.627 138.229 A 14.549 14.549 0 0 1 1150.394 138.269 A 16.863 16.863 0 0 1 1149.295 138.412 Q 1148.777 138.461 1148.311 138.467 A 9.974 9.974 0 0 1 1148.18 138.468 A 10.162 10.162 0 0 1 1145.185 138.065 Q 1141.893 137.049 1141.032 133.474 A 12.229 12.229 0 0 1 1140.726 130.617 L 1140.726 115.335 L 1137.047 115.335 L 1137.047 113.46 L 1140.726 111.843 L 1142.367 106.359 L 1144.617 106.359 L 1144.617 112.312 L 1152.07 112.312 L 1152.07 115.335 L 1144.617 115.335 L 1144.617 130.453 A 7.834 7.834 0 0 0 1144.73 131.828 Q 1144.865 132.583 1145.161 133.181 A 3.774 3.774 0 0 0 1145.719 134.015 A 3.614 3.614 0 0 0 1147.941 135.198 A 5.2 5.2 0 0 0 1148.742 135.257 A 12.777 12.777 0 0 0 1150.614 135.123 A 11.774 11.774 0 0 0 1150.734 135.105 A 21.047 21.047 0 0 0 1151.296 135.009 Q 1151.833 134.908 1152.206 134.803 A 5.843 5.843 0 0 0 1152.258 134.788 Z M 1169.203 134.788 L 1169.203 137.765 A 3.827 3.827 0 0 1 1168.749 137.945 Q 1168.265 138.106 1167.572 138.229 A 14.549 14.549 0 0 1 1167.34 138.269 A 16.863 16.863 0 0 1 1166.24 138.412 Q 1165.722 138.461 1165.257 138.467 A 9.974 9.974 0 0 1 1165.125 138.468 A 10.162 10.162 0 0 1 1162.13 138.065 Q 1158.839 137.049 1157.977 133.474 A 12.229 12.229 0 0 1 1157.672 130.617 L 1157.672 115.335 L 1153.992 115.335 L 1153.992 113.46 L 1157.672 111.843 L 1159.312 106.359 L 1161.562 106.359 L 1161.562 112.312 L 1169.016 112.312 L 1169.016 115.335 L 1161.562 115.335 L 1161.562 130.453 A 7.834 7.834 0 0 0 1161.675 131.828 Q 1161.81 132.583 1162.106 133.181 A 3.774 3.774 0 0 0 1162.664 134.015 A 3.614 3.614 0 0 0 1164.886 135.198 A 5.2 5.2 0 0 0 1165.687 135.257 A 12.777 12.777 0 0 0 1167.559 135.123 A 11.774 11.774 0 0 0 1167.68 135.105 A 21.047 21.047 0 0 0 1168.241 135.009 Q 1168.778 134.908 1169.151 134.803 A 5.843 5.843 0 0 0 1169.203 134.788 Z M 1133.268 129.042 A 20.097 20.097 0 0 0 1133.625 125.132 A 22.834 22.834 0 0 0 1133.617 124.515 Q 1133.559 122.376 1133.096 120.56 A 12.115 12.115 0 0 0 1130.449 115.429 A 10.185 10.185 0 0 0 1125.721 112.379 A 13.073 13.073 0 0 0 1121.883 111.843 A 15.111 15.111 0 0 0 1119.168 112.076 A 10.291 10.291 0 0 0 1113.164 115.347 A 10.749 10.749 0 0 0 1111.844 117.178 Q 1110.827 118.95 1110.378 121.225 A 20.201 20.201 0 0 0 1110.023 125.132 A 19.463 19.463 0 0 0 1110.268 128.285 A 14.393 14.393 0 0 0 1111.476 132.21 A 12.788 12.788 0 0 0 1111.76 132.765 A 10.533 10.533 0 0 0 1115.601 136.851 A 10.833 10.833 0 0 0 1118.088 137.957 A 12.494 12.494 0 0 0 1121.719 138.468 A 15.108 15.108 0 0 0 1124.357 138.248 A 10.372 10.372 0 0 0 1130.461 134.941 A 10.853 10.853 0 0 0 1131.753 133.165 Q 1132.807 131.362 1133.268 129.042 Z M 1196.151 129.042 A 20.097 20.097 0 0 0 1196.508 125.132 A 22.834 22.834 0 0 0 1196.499 124.515 Q 1196.442 122.376 1195.979 120.56 A 12.115 12.115 0 0 0 1193.332 115.429 A 10.185 10.185 0 0 0 1188.604 112.379 A 13.073 13.073 0 0 0 1184.766 111.843 A 15.111 15.111 0 0 0 1182.051 112.076 A 10.291 10.291 0 0 0 1176.047 115.347 A 10.749 10.749 0 0 0 1174.727 117.178 Q 1173.709 118.95 1173.261 121.225 A 20.201 20.201 0 0 0 1172.906 125.132 A 19.463 19.463 0 0 0 1173.151 128.285 A 14.393 14.393 0 0 0 1174.359 132.21 A 12.788 12.788 0 0 0 1174.642 132.765 A 10.533 10.533 0 0 0 1178.484 136.851 A 10.833 10.833 0 0 0 1180.971 137.957 A 12.494 12.494 0 0 0 1184.601 138.468 A 15.108 15.108 0 0 0 1187.24 138.248 A 10.372 10.372 0 0 0 1193.344 134.941 A 10.853 10.853 0 0 0 1194.636 133.165 Q 1195.69 131.362 1196.151 129.042 Z M 1114.884 130.533 A 8.162 8.162 0 0 0 1116.023 132.632 A 6.377 6.377 0 0 0 1120.176 135.078 A 9.663 9.663 0 0 0 1121.812 135.21 A 9.037 9.037 0 0 0 1124.197 134.914 A 6.289 6.289 0 0 0 1127.613 132.644 Q 1129.086 130.735 1129.463 127.511 A 20.494 20.494 0 0 0 1129.594 125.132 Q 1129.594 120.234 1127.613 117.691 A 6.4 6.4 0 0 0 1123.634 115.317 A 9.813 9.813 0 0 0 1121.766 115.148 Q 1117.945 115.148 1116 117.656 A 8.044 8.044 0 0 0 1114.749 120.072 Q 1114.055 122.163 1114.055 125.132 Q 1114.055 128.326 1114.884 130.533 Z M 1177.766 130.533 A 8.162 8.162 0 0 0 1178.906 132.632 A 6.377 6.377 0 0 0 1183.059 135.078 A 9.663 9.663 0 0 0 1184.695 135.21 A 9.037 9.037 0 0 0 1187.079 134.914 A 6.289 6.289 0 0 0 1190.496 132.644 Q 1191.969 130.735 1192.346 127.511 A 20.494 20.494 0 0 0 1192.476 125.132 Q 1192.476 120.234 1190.496 117.691 A 6.4 6.4 0 0 0 1186.517 115.317 A 9.813 9.813 0 0 0 1184.648 115.148 Q 1180.828 115.148 1178.883 117.656 A 8.044 8.044 0 0 0 1177.632 120.072 Q 1176.937 122.163 1176.937 125.132 Q 1176.937 128.326 1177.766 130.533 Z M 1093.43 115.148 A 10.933 10.933 0 0 0 1091.312 115.339 Q 1090.106 115.577 1089.19 116.114 A 5.174 5.174 0 0 0 1087.687 117.433 Q 1086.143 119.441 1085.955 123.864 A 29.975 29.975 0 0 0 1085.93 125.132 A 25.724 25.724 0 0 0 1086.057 127.791 Q 1086.337 130.474 1087.232 132.106 A 5.868 5.868 0 0 0 1087.734 132.878 Q 1089.539 135.21 1093.523 135.21 A 7.756 7.756 0 0 0 1095.726 134.915 A 5.595 5.595 0 0 0 1098.867 132.597 A 8.931 8.931 0 0 0 1099.972 130.207 Q 1100.625 128.07 1100.625 125.085 A 22.986 22.986 0 0 0 1100.486 122.466 Q 1100.156 119.601 1099.045 117.872 A 6.454 6.454 0 0 0 1098.867 117.609 A 5.674 5.674 0 0 0 1095.255 115.323 A 8.998 8.998 0 0 0 1093.43 115.148 Z" id="bottom_labelLayer" stroke="#777777" fill="#777777" style="stroke:#777777;fill:#777777" vector-effect="non-scaling-stroke"/></g></svg>