0
SECTION
2
HEADER
9
$INSUNITS
70
4
0
ENDSEC
0
SECTION
2
TABLES
0
TABLE
2
LTYPE
0
LTYPE
72
65
70
64
2
CONTINUOUS
3
______
73
0
40
0
0
ENDTAB
0
TABLE
2
LAYER
0
ENDTAB
0
ENDSEC
0
SECTION
2
ENTITIES
0
LINE
8
front_outsideCutPath
10
0
20
33
11
0
21
23.125
0
LINE
8
front_outsideCutPath
10
0
20
23.125
11
3
21
23.125
0
LINE
8
front_outsideCutPath
10
3
20
23.125
11
3
21
19.625
0
LINE
8
front_outsideCutPath
10
3
20
19.625
11
4.95
21
19.625
0
LINE
8
front_outsideCutPath
10
4.95
20
19.625
11
4.95
21
20.875
0
LINE
8
front_outsideCutPath
10
4.95
20
20.875
11
7.6
21
20.875
0
LINE
8
front_outsideCutPath
10
7.6
20
20.875
11
7.6
21
19.625
0
LINE
8
front_outsideCutPath
10
7.6
20
19.625
11
10.25
21
19.625
0
LINE
8
front_outsideCutPath
10
10.25
20
19.625
11
10.25
21
16.375
0
LINE
8
front_outsideCutPath
10
10.25
20
16.375
11
7.6
21
16.375
0
LINE
8
front_outsideCutPath
10
7.6
20
16.375
11
7.6
21
15.125
0
LINE
8
front_outsideCutPath
10
7.6
20
15.125
11
4.95
21
15.125
0
LINE
8
front_outsideCutPath
10
4.95
20
15.125
11
4.95
21
16.375
0
LINE
8
front_outsideCutPath
10
4.95
20
16.375
11
3
21
16.375
0
LINE
8
front_outsideCutPath
10
3
20
16.375
11
3
21
12.875
0
LINE
8
front_outsideCutPath
10
3
20
12.875
11
0
21
12.875
0
LINE
8
front_outsideCutPath
10
0
20
12.875
11
0
21
3
0
LINE
8
front_outsideCutPath
10
0
20
3
11
50.8333333
21
3
0
LINE
8
front_outsideCutPath
10
50.8333333
20
3
11
50.8333333
21
6
0
LINE
8
front_outsideCutPath
10
50.8333333
20
6
11
100.0416667
21
6
0
LINE
8
front_outsideCutPath
10
100.0416667
20
6
11
100.0416667
21
7.95
0
LINE
8
front_outsideCutPath
10
100.0416667
20
7.95
11
98.7916667
21
7.95
0
LINE
8
front_outsideCutPath
10
98.7916667
20
7.95
11
98.7916667
21
10.6
0
LINE
8
front_outsideCutPath
10
98.7916667
20
10.6
11
100.0416667
21
10.6
0
LINE
8
front_outsideCutPath
10
100.0416667
20
10.6
11
100.0416667
21
13.25
0
LINE
8
front_outsideCutPath
10
100.0416667
20
13.25
11
103.2916667
21
13.25
0
LINE
8
front_outsideCutPath
10
103.2916667
20
13.25
11
103.2916667
21
10.6
0
LINE
8
front_outsideCutPath
10
103.2916667
20
10.6
11
104.5416667
21
10.6
0
LINE
8
front_outsideCutPath
10
104.5416667
20
10.6
11
104.5416667
21
7.95
0
LINE
8
front_outsideCutPath
10
104.5416667
20
7.95
11
103.2916667
21
7.95
0
LINE
8
front_outsideCutPath
10
103.2916667
20
7.95
11
103.2916667
21
6
0
LINE
8
front_outsideCutPath
10
103.2916667
20
6
11
152.5
21
6
0
LINE
8
front_outsideCutPath
10
152.5
20
6
11
152.5
21
3
0
LINE
8
front_outsideCutPath
10
152.5
20
3
11
254.1666667
21
3
0
LINE
8
front_outsideCutPath
10
254.1666667
20
3
11
254.1666667
21
6
0
LINE
8
front_outsideCutPath
10
254.1666667
20
6
11
303.375
21
6
0
LINE
8
front_outsideCutPath
10
303.375
20
6
11
303.375
21
7.95
0
LINE
8
front_outsideCutPath
10
303.375
20
7.95
11
302.125
21
7.95
0
LINE
8
front_outsideCutPath
10
302.125
20
7.95
11
302.125
21
10.6
0
LINE
8
front_outsideCutPath
10
302.125
20
10.6
11
303.375
21
10.6
0
LINE
8
front_outsideCutPath
10
303.375
20
10.6
11
303.375
21
13.25
0
LINE
8
front_outsideCutPath
10
303.375
20
13.25
11
306.625
21
13.25
0
LINE
8
front_outsideCutPath
10
306.625
20
13.25
11
306.625
21
10.6
0
LINE
8
front_outsideCutPath
10
306.625
20
10.6
11
307.875
21
10.6
0
LINE
8
front_outsideCutPath
10
307.875
20
10.6
11
307.875
21
7.95
0
LINE
8
front_outsideCutPath
10
307.875
20
7.95
11
306.625
21
7.95
0
LINE
8
front_outsideCutPath
10
306.625
20
7.95
11
306.625
21
6
0
LINE
8
front_outsideCutPath
10
306.625
20
6
11
355.8333333
21
6
0
LINE
8
front_outsideCutPath
10
355.8333333
20
6
11
355.8333333
21
3
0
LINE
8
front_outsideCutPath
10
355.8333333
20
3
11
457.5
21
3
0
LINE
8
front_outsideCutPath
10
457.5
20
3
11
457.5
21
6
0
LINE
8
front_outsideCutPath
10
457.5
20
6
11
506.7083333
21
6
0
LINE
8
front_outsideCutPath
10
506.7083333
20
6
11
506.7083333
21
7.95
0
LINE
8
front_outsideCutPath
10
506.7083333
20
7.95
11
505.4583333
21
7.95
0
LINE
8
front_outsideCutPath
10
505.4583333
20
7.95
11
505.4583333
21
10.6
0
LINE
8
front_outsideCutPath
10
505.4583333
20
10.6
11
506.7083333
21
10.6
0
LINE
8
front_outsideCutPath
10
506.7083333
20
10.6
11
506.7083333
21
13.25
0
LINE
8
front_outsideCutPath
10
506.7083333
20
13.25
11
509.9583333
21
13.25
0
LINE
8
front_outsideCutPath
10
509.9583333
20
13.25
11
509.9583333
21
10.6
0
LINE
8
front_outsideCutPath
10
509.9583333
20
10.6
11
511.2083333
21
10.6
0
LINE
8
front_outsideCutPath
10
511.2083333
20
10.6
11
511.2083333
21
7.95
0
LINE
8
front_outsideCutPath
10
511.2083333
20
7.95
11
509.9583333
21
7.95
0
LINE
8
front_outsideCutPath
10
509.9583333
20
7.95
11
509.9583333
21
6
0
LINE
8
front_outsideCutPath
10
509.9583333
20
6
11
559.1666667
21
6
0
LINE
8
front_outsideCutPath
10
559.1666667
20
6
11
559.1666667
21
3
0
LINE
8
front_outsideCutPath
10
559.1666667
20
3
11
610
21
3
0
LINE
8
front_outsideCutPath
10
610
20
3
11
610
21
12.875
0
LINE
8
front_outsideCutPath
10
610
20
12.875
11
607
21
12.875
0
LINE
8
front_outsideCutPath
10
607
20
12.875
11
607
21
16.375
0
LINE
8
front_outsideCutPath
10
607
20
16.375
11
605.05
21
16.375
0
LINE
8
front_outsideCutPath
10
605.05
20
16.375
11
605.05
21
15.125
0
LINE
8
front_outsideCutPath
10
605.05
20
15.125
11
602.4
21
15.125
0
LINE
8
front_outsideCutPath
10
602.4
20
15.125
11
602.4
21
16.375
0
LINE
8
front_outsideCutPath
10
602.4
20
16.375
11
599.75
21
16.375
0
LINE
8
front_outsideCutPath
10
599.75
20
16.375
11
599.75
21
19.625
0
LINE
8
front_outsideCutPath
10
599.75
20
19.625
11
602.4
21
19.625
0
LINE
8
front_outsideCutPath
10
602.4
20
19.625
11
602.4
21
20.875
0
LINE
8
front_outsideCutPath
10
602.4
20
20.875
11
605.05
21
20.875
0
LINE
8
front_outsideCutPath
10
605.05
20
20.875
11
605.05
21
19.625
0
LINE
8
front_outsideCutPath
10
605.05
20
19.625
11
607
21
19.625
0
LINE
8
front_outsideCutPath
10
607
20
19.625
11
607
21
23.125
0
LINE
8
front_outsideCutPath
10
607
20
23.125
11
610
21
23.125
0
LINE
8
front_outsideCutPath
10
610
20
23.125
11
610
21
33
0
LINE
8
front_outsideCutPath
10
610
20
33
11
559.1666667
21
33
0
LINE
8
front_outsideCutPath
10
559.1666667
20
33
11
559.1666667
21
30
0
LINE
8
front_outsideCutPath
10
559.1666667
20
30
11
509.9583333
21
30
0
LINE
8
front_outsideCutPath
10
509.9583333
20
30
11
509.9583333
21
28.05
0
LINE
8
front_outsideCutPath
10
509.9583333
20
28.05
11
511.2083333
21
28.05
0
LINE
8
front_outsideCutPath
10
511.2083333
20
28.05
11
511.2083333
21
25.4
0
LINE
8
front_outsideCutPath
10
511.2083333
20
25.4
11
509.9583333
21
25.4
0
LINE
8
front_outsideCutPath
10
509.9583333
20
25.4
11
509.9583333
21
22.75
0
LINE
8
front_outsideCutPath
10
509.9583333
20
22.75
11
506.7083333
21
22.75
0
LINE
8
front_outsideCutPath
10
506.7083333
20
22.75
11
506.7083333
21
25.4
0
LINE
8
front_outsideCutPath
10
506.7083333
20
25.4
11
505.4583333
21
25.4
0
LINE
8
front_outsideCutPath
10
505.4583333
20
25.4
11
505.4583333
21
28.05
0
LINE
8
front_outsideCutPath
10
505.4583333
20
28.05
11
506.7083333
21
28.05
0
LINE
8
front_outsideCutPath
10
506.7083333
20
28.05
11
506.7083333
21
30
0
LINE
8
front_outsideCutPath
10
506.7083333
20
30
11
457.5
21
30
0
LINE
8
front_outsideCutPath
10
457.5
20
30
11
457.5
21
33
0
LINE
8
front_outsideCutPath
10
457.5
20
33
11
355.8333333
21
33
0
LINE
8
front_outsideCutPath
10
355.8333333
20
33
11
355.8333333
21
30
0
LINE
8
front_outsideCutPath
10
355.8333333
20
30
11
306.625
21
30
0
LINE
8
front_outsideCutPath
10
306.625
20
30
11
306.625
21
28.05
0
LINE
8
front_outsideCutPath
10
306.625
20
28.05
11
307.875
21
28.05
0
LINE
8
front_outsideCutPath
10
307.875
20
28.05
11
307.875
21
25.4
0
LINE
8
front_outsideCutPath
10
307.875
20
25.4
11
306.625
21
25.4
0
LINE
8
front_outsideCutPath
10
306.625
20
25.4
11
306.625
21
22.75
0
LINE
8
front_outsideCutPath
10
306.625
20
22.75
11
303.375
21
22.75
0
LINE
8
front_outsideCutPath
10
303.375
20
22.75
11
303.375
21
25.4
0
LINE
8
front_outsideCutPath
10
303.375
20
25.4
11
302.125
21
25.4
0
LINE
8
front_outsideCutPath
10
302.125
20
25.4
11
302.125
21
28.05
0
LINE
8
front_outsideCutPath
10
302.125
20
28.05
11
303.375
21
28.05
0
LINE
8
front_outsideCutPath
10
303.375
20
28.05
11
303.375
21
30
0
LINE
8
front_outsideCutPath
10
303.375
20
30
11
254.1666667
21
30
0
LINE
8
front_outsideCutPath
10
254.1666667
20
30
11
254.1666667
21
33
0
LINE
8
front_outsideCutPath
10
254.1666667
20
33
11
152.5
21
33
0
LINE
8
front_outsideCutPath
10
152.5
20
33
11
152.5
21
30
0
LINE
8
front_outsideCutPath
10
152.5
20
30
11
103.2916667
21
30
0
LINE
8
front_outsideCutPath
10
103.2916667
20
30
11
103.2916667
21
28.05
0
LINE
8
front_outsideCutPath
10
103.2916667
20
28.05
11
104.5416667
21
28.05
0
LINE
8
front_outsideCutPath
10
104.5416667
20
28.05
11
104.5416667
21
25.4
0
LINE
8
front_outsideCutPath
10
104.5416667
20
25.4
11
103.2916667
21
25.4
0
LINE
8
front_outsideCutPath
10
103.2916667
20
25.4
11
103.2916667
21
22.75
0
LINE
8
front_outsideCutPath
10
103.2916667
20
22.75
11
100.0416667
21
22.75
0
LINE
8
front_outsideCutPath
10
100.0416667
20
22.75
11
100.0416667
21
25.4
0
LINE
8
front_outsideCutPath
10
100.0416667
20
25.4
11
98.7916667
21
25.4
0
LINE
8
front_outsideCutPath
10
98.7916667
20
25.4
11
98.7916667
21
28.05
0
LINE
8
front_outsideCutPath
10
98.7916667
20
28.05
11
100.0416667
21
28.05
0
LINE
8
front_outsideCutPath
10
100.0416667
20
28.05
11
100.0416667
21
30
0
LINE
8
front_outsideCutPath
10
100.0416667
20
30
11
50.8333333
21
30
0
LINE
8
front_outsideCutPath
10
50.8333333
20
30
11
50.8333333
21
33
0
LINE
8
front_outsideCutPath
10
50.8333333
20
33
11
0
21
33
0
LINE
8
front_labelLayer
10
300.0297852
20
18.9448878
11
300.0297852
21
18.5669581
0
LINE
8
front_labelLayer
10
300.0297852
20
18.5669581
11
299.2124023
21
18.5669581
0
LINE
8
front_labelLayer
10
299.2124023
20
18.5669581
11
299.2124023
21
15.7339503
0
LINE
8
front_labelLayer
10
299.2124023
20
15.7339503
11
298.7260742
21
15.7339503
0
LINE
8
front_labelLayer
10
298.7260742
20
15.7339503
11
298.7260742
21
18.5669581
0
LINE
8
front_labelLayer
10
298.7260742
20
18.5669581
11
298.1518555
21
18.5669581
0
LINE
8
front_labelLayer
10
298.1518555
20
18.5669581
11
298.1518555
21
18.7866847
0
LINE
8
front_labelLayer
10
298.1518555
20
18.7866847
11
298.7260742
21
18.9624659
0
LINE
8
front_labelLayer
10
298.7260742
20
18.9624659
11
298.7260742
21
19.1411768
0
LINE
8
front_labelLayer
10
300.3579102
20
20.2222315
11
300.2319336
21
19.8325831
0
LINE
8
front_labelLayer
10
299.2124023
20
19.1528956
11
299.2124023
21
18.9448878
0
LINE
8
front_labelLayer
10
299.2124023
20
18.9448878
11
300.0297852
21
18.9448878
0
ARC
8
front_labelLayer
10
300.6969867
20
19.1638363
40
1.9710428
50
167.5775859
51
180.6586981
0
ARC
8
front_labelLayer
10
299.7701413
20
19.3799231
40
1.0194789
50
141.7433852
51
168.2321874
0
ARC
8
front_labelLayer
10
299.6192302
20
19.4586878
40
0.8527923
50
98.2551397
51
139.620341
0
ARC
8
front_labelLayer
10
299.7517309
20
18.846588
40
1.478207
50
89.6696449
51
99.9314391
0
ARC
8
front_labelLayer
10
299.7521
20
18.7586868
40
1.566105
50
81.5641195
51
89.7016897
0
ARC
8
front_labelLayer
10
299.642005
20
17.9906007
40
2.3420352
50
75.973991
51
81.6565033
0
ARC
8
front_labelLayer
10
299.453014
20
17.2067256
40
3.148351
50
73.2964959
51
76.0945645
0
ARC
8
front_labelLayer
10
299.5006339
20
17.5870326
40
2.36163
50
71.9613253
51
76.5917517
0
ARC
8
front_labelLayer
10
299.6838638
20
18.3642966
40
1.5630646
50
76.5183451
51
83.021747
0
ARC
8
front_labelLayer
10
299.7476804
20
18.8775163
40
1.045894
50
83.0760609
51
89.7926833
0
ARC
8
front_labelLayer
10
299.745581
20
19.2675561
40
0.6558737
50
89.4859917
51
103.41966
0
ARC
8
front_labelLayer
10
299.6864493
20
19.4947389
40
0.4211977
50
102.7677547
51
144.3380553
0
ARC
8
front_labelLayer
10
299.8055768
20
19.4180916
40
0.5627168
50
145.0689252
51
162.1801381
0
ARC
8
front_labelLayer
10
300.214015
20
19.2806734
40
0.99363
50
161.8437903
51
171.7846869
0
ARC
8
front_labelLayer
10
300.8801992
20
19.1806167
40
1.6672799
50
171.6528461
51
178.4383388
0
ARC
8
front_labelLayer
10
301.508119
20
19.1538303
40
2.2957169
50
178.1971487
51
180.0233278
0
LINE
8
front_labelLayer
10
302.4643555
20
18.9683253
11
302.3969727
21
18.5171534
0
LINE
8
front_labelLayer
10
301.1020508
20
17.4566065
11
301.1020508
21
15.7339503
0
LINE
8
front_labelLayer
10
301.1020508
20
15.7339503
11
300.6157227
21
15.7339503
0
LINE
8
front_labelLayer
10
300.6157227
20
15.7339503
11
300.6157227
21
18.9448878
0
LINE
8
front_labelLayer
10
300.6157227
20
18.9448878
11
301.0170898
21
18.9448878
0
LINE
8
front_labelLayer
10
301.0170898
20
18.9448878
11
301.0727539
21
18.3501612
0
LINE
8
front_labelLayer
10
301.0727539
20
18.3501612
11
301.0961914
21
18.3501612
0
ARC
8
front_labelLayer
10
302.0855562
20
16.7707977
40
2.2326894
50
84.9923143
51
90.1280485
0
ARC
8
front_labelLayer
10
302.1391782
20
17.3715792
40
1.6295208
50
78.4891262
51
85.0266149
0
ARC
8
front_labelLayer
10
301.9310714
20
16.4250487
40
2.1433539
50
77.4453821
51
81.6360842
0
ARC
8
front_labelLayer
10
302.0244533
20
17.0687478
40
1.4929184
50
81.5883484
51
87.1917083
0
ARC
8
front_labelLayer
10
302.0447329
20
17.42054
40
1.140559
50
87.343391
51
89.9659779
0
ARC
8
front_labelLayer
10
302.0400208
20
17.718453
40
0.842663
50
89.6335522
51
137.0880746
0
ARC
8
front_labelLayer
10
302.2468275
20
17.4858939
40
1.1528498
50
135.620924
51
138.8377333
0
ARC
8
front_labelLayer
10
302.2165221
20
17.5154743
40
1.1105672
50
138.957568
51
174.5422119
0
ARC
8
front_labelLayer
10
302.5782387
20
17.4588792
40
1.4761897
50
173.690817
51
180.0882094
0
ARC
8
front_labelLayer
10
302.5270734
20
17.5440091
40
1.6423473
50
139.4139472
51
150.6032957
0
ARC
8
front_labelLayer
10
302.2326019
20
17.7963387
40
1.2545538
50
124.232174
51
139.4160736
0
ARC
8
front_labelLayer
10
302.0751458
20
18.0340173
40
0.9694794
50
89.6796416
51
124.4405817
0
ARC
8
front_labelLayer
10
303.3244056
20
17.3254126
40
2.5120773
50
349.1761822
51
0.3862843
0
ARC
8
front_labelLayer
10
304.1701573
20
17.1568104
40
1.6497243
50
330.2507005
51
349.4116278
0
ARC
8
front_labelLayer
10
304.4304378
20
17.0215267
40
1.3566695
50
318.1440004
51
329.7566246
0
ARC
8
front_labelLayer
10
304.4774175
20
16.9838778
40
1.2965604
50
278.8959133
51
317.9979108
0
ARC
8
front_labelLayer
10
304.3563739
20
17.5638153
40
1.8884767
50
269.7503242
51
279.8032928
0
ARC
8
front_labelLayer
10
304.336745
20
17.2370526
40
1.5617377
50
253.5436883
51
270.4182222
0
ARC
8
front_labelLayer
10
304.2847527
20
17.0359418
40
1.3541554
50
238.8114964
51
253.2428942
0
ARC
8
front_labelLayer
10
304.2679786
20
17.0022109
40
1.3166168
50
207.7946953
51
238.6758065
0
ARC
8
front_labelLayer
10
304.5088985
20
17.1497472
40
1.5986404
50
205.6562219
51
208.4460038
0
ARC
8
front_labelLayer
10
304.6941722
20
17.2269268
40
1.7990956
50
188.9102346
51
205.3171231
0
ARC
8
front_labelLayer
10
305.3191026
20
17.3327709
40
2.4328909
50
179.7744383
51
189.0933004
0
ARC
8
front_labelLayer
10
305.4113037
20
17.3594518
40
2.5251312
50
169.2443
51
180.3880763
0
ARC
8
front_labelLayer
10
304.5537889
20
17.5289514
40
1.6510618
50
150.7111621
51
169.4695502
0
ARC
8
front_labelLayer
10
304.2800438
20
17.6695287
40
1.3435864
50
138.1759371
51
150.2287237
0
ARC
8
front_labelLayer
10
304.2345077
20
17.7044727
40
1.2863581
50
99.1759406
51
137.9832784
0
ARC
8
front_labelLayer
10
304.3598383
20
17.114659
40
1.8888432
50
89.732635
51
100.0760152
0
ARC
8
front_labelLayer
10
304.3848876
20
17.3693762
40
1.634186
50
73.5222782
51
90.569228
0
ARC
8
front_labelLayer
10
304.4807224
20
17.7175709
40
1.2731272
50
41.1445722
51
73.2133729
0
ARC
8
front_labelLayer
10
304.297778
20
17.5603339
40
1.514351
50
13.5014655
51
41.0703124
0
ARC
8
front_labelLayer
10
303.5909826
20
17.3753758
40
2.2448445
50
1.1277439
51
13.8800007
0
ARC
8
front_labelLayer
10
302.982322
20
17.3427523
40
2.8541039
50
359.9918982
51
1.542049
0
ARC
8
front_labelLayer
10
305.8528526
20
17.3297088
40
2.4627484
50
179.7059305
51
187.916072
0
ARC
8
front_labelLayer
10
304.9495871
20
17.199955
40
1.5502255
50
187.7638939
51
200.0977446
0
ARC
8
front_labelLayer
10
304.451992
20
17.0176334
40
1.0202803
50
200.0845689
51
216.9131874
0
ARC
8
front_labelLayer
10
304.2702879
20
16.8878884
40
0.7970924
50
217.3009927
51
261.7098714
0
ARC
8
front_labelLayer
10
304.354643
20
17.2904229
40
1.2078512
50
260.5032951
51
270.2476284
0
ARC
8
front_labelLayer
10
304.3707429
20
17.2121476
40
1.1296169
50
269.4481597
51
284.7255453
0
ARC
8
front_labelLayer
10
304.4601679
20
16.8804977
40
0.7861323
50
284.5662276
51
322.6333814
0
ARC
8
front_labelLayer
10
304.2510834
20
17.0315507
40
1.0440045
50
323.0089829
51
342.6390183
0
ARC
8
front_labelLayer
10
303.6530667
20
17.2269987
40
1.6731174
50
342.3615879
51
353.7537292
0
ARC
8
front_labelLayer
10
302.7707873
20
17.3333432
40
2.561748
50
353.5363472
51
0.2014159
0
ARC
8
front_labelLayer
10
302.9059811
20
17.3547351
40
2.42657
50
359.7075333
51
7.8972444
0
ARC
8
front_labelLayer
10
303.794666
20
17.4821359
40
1.5288142
50
7.7439623
51
20.0690561
0
ARC
8
front_labelLayer
10
304.2898636
20
17.6638556
40
1.0013278
50
20.0257232
51
37.4350524
0
ARC
8
front_labelLayer
10
304.4541696
20
17.7804446
40
0.8000252
50
37.9577721
51
80.4005987
0
ARC
8
front_labelLayer
10
304.3608004
20
17.3638377
40
1.2265767
50
79.3453563
51
90.3174801
0
ARC
8
front_labelLayer
10
304.343511
20
17.4330396
40
1.1574036
50
89.4805568
51
103.8804771
0
ARC
8
front_labelLayer
10
304.2462597
20
17.8033739
40
0.7745732
50
103.4685096
51
142.3119003
0
ARC
8
front_labelLayer
10
304.4353293
20
17.6704069
40
1.005538
50
142.9026052
51
162.3749031
0
ARC
8
front_labelLayer
10
305.0310753
20
17.4718778
40
1.6334545
50
162.0653369
51
173.1674762
0
ARC
8
front_labelLayer
10
305.9599787
20
17.3533997
40
2.5698659
50
173.0085721
51
180.2463856
0
LINE
8
front_labelLayer
10
309.3725586
20
15.7339503
11
308.8862305
21
15.7339503
0
LINE
8
front_labelLayer
10
308.8862305
20
15.7339503
11
308.8862305
21
17.8110987
0
LINE
8
front_labelLayer
10
307.175293
20
17.4185206
11
307.175293
21
15.7339503
0
LINE
8
front_labelLayer
10
307.175293
20
15.7339503
11
306.6889648
21
15.7339503
0
LINE
8
front_labelLayer
10
306.6889648
20
15.7339503
11
306.6889648
21
18.9448878
0
LINE
8
front_labelLayer
10
306.6889648
20
18.9448878
11
307.0844727
21
18.9448878
0
LINE
8
front_labelLayer
10
307.0844727
20
18.9448878
11
307.1635742
21
18.5054347
0
LINE
8
front_labelLayer
10
307.1635742
20
18.5054347
11
307.1870117
21
18.5054347
0
LINE
8
front_labelLayer
10
309.3725586
20
17.8286768
11
309.3725586
21
15.7339503
0
ARC
8
front_labelLayer
10
307.5115403
20
17.8189839
40
1.3747128
50
359.6713544
51
8.6877624
0
ARC
8
front_labelLayer
10
308.0210406
20
17.8997888
40
0.8588578
50
8.4931085
51
22.6579903
0
ARC
8
front_labelLayer
10
308.2799103
20
18.0073679
40
0.5785249
50
22.7023647
51
42.3420402
0
ARC
8
front_labelLayer
10
308.3090059
20
18.0204565
40
0.5482932
50
43.3790558
51
71.5386894
0
ARC
8
front_labelLayer
10
308.2001939
20
17.7164124
40
0.871175
50
71.0827481
51
84.3691501
0
ARC
8
front_labelLayer
10
308.1513484
20
17.3011368
40
1.2892634
50
84.0196907
51
90.151063
0
ARC
8
front_labelLayer
10
308.1375026
20
17.1185381
40
1.4718946
50
89.5933473
51
100.3718033
0
ARC
8
front_labelLayer
10
308.0334843
20
17.6642873
40
0.916345
50
100.1176487
51
118.1602831
0
ARC
8
front_labelLayer
10
307.9286595
20
17.8698379
40
0.6856697
50
118.5439011
51
139.1927105
0
ARC
8
front_labelLayer
10
308.0200573
20
17.8085081
40
0.7950412
50
140.1518673
51
160.3147128
0
ARC
8
front_labelLayer
10
308.5719922
20
17.6017755
40
1.3843857
50
159.9534282
51
171.3801288
0
ARC
8
front_labelLayer
10
309.4735926
20
17.4568466
40
2.2975382
50
171.1765947
51
178.321768
0
ARC
8
front_labelLayer
10
310.2910916
20
17.4198013
40
3.1157989
50
178.0810996
51
180.0235499
0
ARC
8
front_labelLayer
10
308.0189498
20
17.9785409
40
0.9847527
50
116.9442828
51
147.652573
0
ARC
8
front_labelLayer
10
308.1215632
20
17.806872
40
1.1843623
50
115.8072477
51
117.6064452
0
ARC
8
front_labelLayer
10
308.1738506
20
17.6849239
40
1.3169245
50
94.3226347
51
115.5454591
0
ARC
8
front_labelLayer
10
308.2053724
20
17.4111005
40
1.5923816
50
89.9578818
51
94.7109966
0
ARC
8
front_labelLayer
10
308.2184004
20
17.083403
40
1.9201151
50
80.5585795
51
90.3538259
0
ARC
8
front_labelLayer
10
308.3383966
20
17.7784702
40
1.214787
50
65.109418
51
80.7638667
0
ARC
8
front_labelLayer
10
308.4786621
20
18.0891544
40
0.8739324
50
46.5584969
51
64.8782351
0
ARC
8
front_labelLayer
10
308.4898883
20
18.1215192
40
0.8428317
50
19.384922
51
45.5997023
0
ARC
8
front_labelLayer
10
308.0022889
20
17.9385638
40
1.3635565
50
6.9633398
51
19.8363474
0
ARC
8
front_labelLayer
10
307.2502441
20
17.8374516
40
2.1223324
50
359.7631118
51
7.2115161
0
LINE
8
front_labelLayer
10
311.8481445
20
16.1353175
11
311.8481445
21
15.7632472
0
LINE
8
front_labelLayer
10
310.4067383
20
16.6568018
11
310.4067383
21
18.5669581
0
LINE
8
front_labelLayer
10
310.4067383
20
18.5669581
11
309.9467773
21
18.5669581
0
LINE
8
front_labelLayer
10
309.9467773
20
18.5669581
11
309.9467773
21
18.8013331
0
LINE
8
front_labelLayer
10
309.9467773
20
18.8013331
11
310.4067383
21
19.0034815
0
LINE
8
front_labelLayer
10
310.4067383
20
19.0034815
11
310.6118164
21
19.6890284
0
LINE
8
front_labelLayer
10
310.6118164
20
19.6890284
11
310.8930664
21
19.6890284
0
LINE
8
front_labelLayer
10
310.8930664
20
19.6890284
11
310.8930664
21
18.9448878
0
LINE
8
front_labelLayer
10
310.8930664
20
18.9448878
11
311.824707
21
18.9448878
0
LINE
8
front_labelLayer
10
311.824707
20
18.9448878
11
311.824707
21
18.5669581
0
LINE
8
front_labelLayer
10
311.824707
20
18.5669581
11
310.8930664
21
18.5669581
0
LINE
8
front_labelLayer
10
310.8930664
20
18.5669581
11
310.8930664
21
16.6773097
0
ARC
8
front_labelLayer
10
311.4120279
20
17.673869
40
1.5971488
50
269.8803067
51
278.3028861
0
ARC
8
front_labelLayer
10
311.4271182
20
17.5503874
40
1.4727852
50
278.4156826
51
279.0079693
0
ARC
8
front_labelLayer
10
311.2480806
20
18.6941825
40
2.6305066
50
278.9588155
51
280.5104563
0
ARC
8
front_labelLayer
10
311.4188791
20
17.7777797
40
1.6983234
50
280.4845744
51
282.6270635
0
ARC
8
front_labelLayer
10
311.568601
20
17.1126339
40
1.0165355
50
282.5877786
51
285.5796974
0
ARC
8
front_labelLayer
10
311.6449341
20
16.832106
40
0.7258158
50
285.7229919
51
286.2587204
0
ARC
8
front_labelLayer
10
311.6436849
20
16.1956906
40
0.478342
50
287.9886298
51
295.3048258
0
ARC
8
front_labelLayer
10
311.5283122
20
16.5447382
40
0.84596
50
283.3068243
51
288.119837
0
ARC
8
front_labelLayer
10
311.4064454
20
17.0530532
40
1.3686781
50
280.0069092
51
283.3737271
0
ARC
8
front_labelLayer
10
311.3248541
20
17.4958075
40
1.8188776
50
279.1864695
51
280.1144539
0
ARC
8
front_labelLayer
10
311.2748082
20
17.7805096
40
2.1079215
50
275.5260628
51
279.2938845
0
ARC
8
front_labelLayer
10
311.3312199
20
17.1913008
40
1.5160189
50
270.8933569
51
275.5483787
0
ARC
8
front_labelLayer
10
311.3383256
20
16.919827
40
1.2444705
50
270.0024528
51
270.7611186
0
ARC
8
front_labelLayer
10
311.3187547
20
16.9454259
40
1.270221
50
253.7848084
51
270.8852241
0
ARC
8
front_labelLayer
10
311.1682673
20
16.432205
40
0.7353942
50
190.3817819
51
253.8772252
0
ARC
8
front_labelLayer
10
311.9352986
20
16.6395969
40
1.5286573
50
179.3551249
51
192.8477761
0
ARC
8
front_labelLayer
10
311.8723501
20
16.6711838
40
0.9793029
50
179.6415966
51
189.7505385
0
ARC
8
front_labelLayer
10
311.5266387
20
16.6095229
40
0.6281464
50
189.5479551
51
205.7873402
0
ARC
8
front_labelLayer
10
311.3845688
20
16.5440115
40
0.4717333
50
206.12956
51
221.4083365
0
ARC
8
front_labelLayer
10
311.3686335
20
16.5319194
40
0.4517861
50
221.5948522
51
262.350566
0
ARC
8
front_labelLayer
10
311.4065221
20
16.7267537
40
0.6500338
50
261.3265738
51
270.1912059
0
LINE
8
left_outsideCutPath
10
616
20
33
11
616
21
23.125
0
LINE
8
left_outsideCutPath
10
616
20
23.125
11
613
21
23.125
0
LINE
8
left_outsideCutPath
10
613
20
23.125
11
613
21
19.625
0
LINE
8
left_outsideCutPath
10
613
20
19.625
11
616.25
21
19.625
0
LINE
8
left_outsideCutPath
10
616.25
20
19.625
11
616.25
21
18
0
LINE
8
left_outsideCutPath
10
616.25
20
18
11
616.25
21
18
0
LINE
8
left_outsideCutPath
10
616.25
20
18
11
616.25
21
16.375
0
LINE
8
left_outsideCutPath
10
616.25
20
16.375
11
613
21
16.375
0
LINE
8
left_outsideCutPath
10
613
20
16.375
11
613
21
12.875
0
LINE
8
left_outsideCutPath
10
613
20
12.875
11
616
21
12.875
0
LINE
8
left_outsideCutPath
10
616
20
12.875
11
616
21
3
0
LINE
8
left_outsideCutPath
10
616
20
3
11
633
21
3
0
LINE
8
left_outsideCutPath
10
633
20
3
11
633
21
6
0
LINE
8
left_outsideCutPath
10
633
20
6
11
651.375
21
6
0
LINE
8
left_outsideCutPath
10
651.375
20
6
11
651.375
21
7.95
0
LINE
8
left_outsideCutPath
10
651.375
20
7.95
11
650.125
21
7.95
0
LINE
8
left_outsideCutPath
10
650.125
20
7.95
11
650.125
21
10.6
0
LINE
8
left_outsideCutPath
10
650.125
20
10.6
11
651.375
21
10.6
0
LINE
8
left_outsideCutPath
10
651.375
20
10.6
11
651.375
21
13.25
0
LINE
8
left_outsideCutPath
10
651.375
20
13.25
11
654.625
21
13.25
0
LINE
8
left_outsideCutPath
10
654.625
20
13.25
11
654.625
21
10.6
0
LINE
8
left_outsideCutPath
10
654.625
20
10.6
11
655.875
21
10.6
0
LINE
8
left_outsideCutPath
10
655.875
20
10.6
11
655.875
21
7.95
0
LINE
8
left_outsideCutPath
10
655.875
20
7.95
11
654.625
21
7.95
0
LINE
8
left_outsideCutPath
10
654.625
20
7.95
11
654.625
21
6
0
LINE
8
left_outsideCutPath
10
654.625
20
6
11
673
21
6
0
LINE
8
left_outsideCutPath
10
673
20
6
11
673
21
3
0
LINE
8
left_outsideCutPath
10
673
20
3
11
713
21
3
0
LINE
8
left_outsideCutPath
10
713
20
3
11
713
21
6
0
LINE
8
left_outsideCutPath
10
713
20
6
11
731.375
21
6
0
LINE
8
left_outsideCutPath
10
731.375
20
6
11
731.375
21
7.95
0
LINE
8
left_outsideCutPath
10
731.375
20
7.95
11
730.125
21
7.95
0
LINE
8
left_outsideCutPath
10
730.125
20
7.95
11
730.125
21
10.6
0
LINE
8
left_outsideCutPath
10
730.125
20
10.6
11
731.375
21
10.6
0
LINE
8
left_outsideCutPath
10
731.375
20
10.6
11
731.375
21
13.25
0
LINE
8
left_outsideCutPath
10
731.375
20
13.25
11
734.625
21
13.25
0
LINE
8
left_outsideCutPath
10
734.625
20
13.25
11
734.625
21
10.6
0
LINE
8
left_outsideCutPath
10
734.625
20
10.6
11
735.875
21
10.6
0
LINE
8
left_outsideCutPath
10
735.875
20
10.6
11
735.875
21
7.95
0
LINE
8
left_outsideCutPath
10
735.875
20
7.95
11
734.625
21
7.95
0
LINE
8
left_outsideCutPath
10
734.625
20
7.95
11
734.625
21
6
0
LINE
8
left_outsideCutPath
10
734.625
20
6
11
753
21
6
0
LINE
8
left_outsideCutPath
10
753
20
6
11
753
21
3
0
LINE
8
left_outsideCutPath
10
753
20
3
11
793
21
3
0
LINE
8
left_outsideCutPath
10
793
20
3
11
793
21
6
0
LINE
8
left_outsideCutPath
10
793
20
6
11
811.375
21
6
0
LINE
8
left_outsideCutPath
10
811.375
20
6
11
811.375
21
7.95
0
LINE
8
left_outsideCutPath
10
811.375
20
7.95
11
810.125
21
7.95
0
LINE
8
left_outsideCutPath
10
810.125
20
7.95
11
810.125
21
10.6
0
LINE
8
left_outsideCutPath
10
810.125
20
10.6
11
811.375
21
10.6
0
LINE
8
left_outsideCutPath
10
811.375
20
10.6
11
811.375
21
13.25
0
LINE
8
left_outsideCutPath
10
811.375
20
13.25
11
814.625
21
13.25
0
LINE
8
left_outsideCutPath
10
814.625
20
13.25
11
814.625
21
10.6
0
LINE
8
left_outsideCutPath
10
814.625
20
10.6
11
815.875
21
10.6
0
LINE
8
left_outsideCutPath
10
815.875
20
10.6
11
815.875
21
7.95
0
LINE
8
left_outsideCutPath
10
815.875
20
7.95
11
814.625
21
7.95
0
LINE
8
left_outsideCutPath
10
814.625
20
7.95
11
814.625
21
6
0
LINE
8
left_outsideCutPath
10
814.625
20
6
11
833
21
6
0
LINE
8
left_outsideCutPath
10
833
20
6
11
833
21
3
0
LINE
8
left_outsideCutPath
10
833
20
3
11
850
21
3
0
LINE
8
left_outsideCutPath
10
850
20
3
11
850
21
12.875
0
LINE
8
left_outsideCutPath
10
850
20
12.875
11
853
21
12.875
0
LINE
8
left_outsideCutPath
10
853
20
12.875
11
853
21
16.375
0
LINE
8
left_outsideCutPath
10
853
20
16.375
11
849.75
21
16.375
0
LINE
8
left_outsideCutPath
10
849.75
20
16.375
11
849.75
21
18
0
LINE
8
left_outsideCutPath
10
849.75
20
18
11
849.75
21
18
0
LINE
8
left_outsideCutPath
10
849.75
20
18
11
849.75
21
19.625
0
LINE
8
left_outsideCutPath
10
849.75
20
19.625
11
853
21
19.625
0
LINE
8
left_outsideCutPath
10
853
20
19.625
11
853
21
23.125
0
LINE
8
left_outsideCutPath
10
853
20
23.125
11
850
21
23.125
0
LINE
8
left_outsideCutPath
10
850
20
23.125
11
850
21
33
0
LINE
8
left_outsideCutPath
10
850
20
33
11
833
21
33
0
LINE
8
left_outsideCutPath
10
833
20
33
11
833
21
30
0
LINE
8
left_outsideCutPath
10
833
20
30
11
814.625
21
30
0
LINE
8
left_outsideCutPath
10
814.625
20
30
11
814.625
21
28.05
0
LINE
8
left_outsideCutPath
10
814.625
20
28.05
11
815.875
21
28.05
0
LINE
8
left_outsideCutPath
10
815.875
20
28.05
11
815.875
21
25.4
0
LINE
8
left_outsideCutPath
10
815.875
20
25.4
11
814.625
21
25.4
0
LINE
8
left_outsideCutPath
10
814.625
20
25.4
11
814.625
21
22.75
0
LINE
8
left_outsideCutPath
10
814.625
20
22.75
11
811.375
21
22.75
0
LINE
8
left_outsideCutPath
10
811.375
20
22.75
11
811.375
21
25.4
0
LINE
8
left_outsideCutPath
10
811.375
20
25.4
11
810.125
21
25.4
0
LINE
8
left_outsideCutPath
10
810.125
20
25.4
11
810.125
21
28.05
0
LINE
8
left_outsideCutPath
10
810.125
20
28.05
11
811.375
21
28.05
0
LINE
8
left_outsideCutPath
10
811.375
20
28.05
11
811.375
21
30
0
LINE
8
left_outsideCutPath
10
811.375
20
30
11
793
21
30
0
LINE
8
left_outsideCutPath
10
793
20
30
11
793
21
33
0
LINE
8
left_outsideCutPath
10
793
20
33
11
753
21
33
0
LINE
8
left_outsideCutPath
10
753
20
33
11
753
21
30
0
LINE
8
left_outsideCutPath
10
753
20
30
11
734.625
21
30
0
LINE
8
left_outsideCutPath
10
734.625
20
30
11
734.625
21
28.05
0
LINE
8
left_outsideCutPath
10
734.625
20
28.05
11
735.875
21
28.05
0
LINE
8
left_outsideCutPath
10
735.875
20
28.05
11
735.875
21
25.4
0
LINE
8
left_outsideCutPath
10
735.875
20
25.4
11
734.625
21
25.4
0
LINE
8
left_outsideCutPath
10
734.625
20
25.4
11
734.625
21
22.75
0
LINE
8
left_outsideCutPath
10
734.625
20
22.75
11
731.375
21
22.75
0
LINE
8
left_outsideCutPath
10
731.375
20
22.75
11
731.375
21
25.4
0
LINE
8
left_outsideCutPath
10
731.375
20
25.4
11
730.125
21
25.4
0
LINE
8
left_outsideCutPath
10
730.125
20
25.4
11
730.125
21
28.05
0
LINE
8
left_outsideCutPath
10
730.125
20
28.05
11
731.375
21
28.05
0
LINE
8
left_outsideCutPath
10
731.375
20
28.05
11
731.375
21
30
0
LINE
8
left_outsideCutPath
10
731.375
20
30
11
713
21
30
0
LINE
8
left_outsideCutPath
10
713
20
30
11
713
21
33
0
LINE
8
left_outsideCutPath
10
713
20
33
11
673
21
33
0
LINE
8
left_outsideCutPath
10
673
20
33
11
673
21
30
0
LINE
8
left_outsideCutPath
10
673
20
30
11
654.625
21
30
0
LINE
8
left_outsideCutPath
10
654.625
20
30
11
654.625
21
28.05
0
LINE
8
left_outsideCutPath
10
654.625
20
28.05
11
655.875
21
28.05
0
LINE
8
left_outsideCutPath
10
655.875
20
28.05
11
655.875
21
25.4
0
LINE
8
left_outsideCutPath
10
655.875
20
25.4
11
654.625
21
25.4
0
LINE
8
left_outsideCutPath
10
654.625
20
25.4
11
654.625
21
22.75
0
LINE
8
left_outsideCutPath
10
654.625
20
22.75
11
651.375
21
22.75
0
LINE
8
left_outsideCutPath
10
651.375
20
22.75
11
651.375
21
25.4
0
LINE
8
left_outsideCutPath
10
651.375
20
25.4
11
650.125
21
25.4
0
LINE
8
left_outsideCutPath
10
650.125
20
25.4
11
650.125
21
28.05
0
LINE
8
left_outsideCutPath
10
650.125
20
28.05
11
651.375
21
28.05
0
LINE
8
left_outsideCutPath
10
651.375
20
28.05
11
651.375
21
30
0
LINE
8
left_outsideCutPath
10
651.375
20
30
11
633
21
30
0
LINE
8
left_outsideCutPath
10
633
20
30
11
633
21
33
0
LINE
8
left_outsideCutPath
10
633
20
33
11
616
21
33
0
LINE
8
left_labelLayer
10
729.2895508
20
20.292544
11
729.2895508
21
15.7339503
0
LINE
8
left_labelLayer
10
729.2895508
20
15.7339503
11
728.8032227
21
15.7339503
0
LINE
8
left_labelLayer
10
728.8032227
20
15.7339503
11
728.8032227
21
20.292544
0
LINE
8
left_labelLayer
10
728.8032227
20
20.292544
11
729.2895508
21
20.292544
0
LINE
8
left_labelLayer
10
732.8579102
20
17.5591456
11
732.8579102
21
17.2515284
0
LINE
8
left_labelLayer
10
732.8579102
20
17.2515284
11
730.6459961
21
17.2515284
0
LINE
8
left_labelLayer
10
732.7202148
20
16.3169581
11
732.7202148
21
15.8833643
0
LINE
8
left_labelLayer
10
730.6577148
20
17.6470362
11
732.3364258
21
17.6470362
0
ARC
8
left_labelLayer
10
731.6612559
20
17.5651373
40
1.8898484
50
256.008769
51
270.4847908
0
ARC
8
left_labelLayer
10
731.5236377
20
17.0308763
40
1.3381724
50
223.546584
51
256.1956791
0
ARC
8
left_labelLayer
10
731.5995537
20
17.0860528
40
1.4312639
50
194.0877135
51
223.0538227
0
ARC
8
left_labelLayer
10
732.2951705
20
17.2762779
40
2.1523153
50
181.3574626
51
194.491975
0
ARC
8
left_labelLayer
10
732.9203493
20
17.3125107
40
2.7782596
50
179.9888412
51
181.7990483
0
ARC
8
left_labelLayer
10
732.6957201
20
17.3301831
40
2.5536877
50
168.9539033
51
180.3843681
0
ARC
8
left_labelLayer
10
731.8617029
20
17.5000044
40
1.7025984
50
149.4070783
51
169.1853772
0
ARC
8
left_labelLayer
10
731.6293235
20
17.6227848
40
1.4401329
50
140.1055637
51
148.9067368
0
ARC
8
left_labelLayer
10
731.4865681
20
17.7544009
40
1.2462273
50
92.4762512
51
140.5386395
0
ARC
8
left_labelLayer
10
731.5501839
20
17.2842447
40
1.719237
50
89.9638185
51
93.9175362
0
ARC
8
left_labelLayer
10
731.5653637
20
17.5218958
40
1.4816527
50
74.2125845
51
90.5450339
0
ARC
8
left_labelLayer
10
731.658163
20
17.8638097
40
1.1273949
50
41.2064889
51
74.0232525
0
ARC
8
left_labelLayer
10
731.4824187
20
17.711716
40
1.3598105
50
11.599401
51
41.1496171
0
ARC
8
left_labelLayer
10
730.878551
20
17.5724528
40
1.9794039
50
359.614807
51
12.0336193
0
ARC
8
left_labelLayer
10
732.5975756
20
17.2905262
40
1.9519691
50
181.1447705
51
190.8006362
0
ARC
8
left_labelLayer
10
731.9089295
20
17.1547092
40
1.2500788
50
190.6006128
51
206.0275009
0
ARC
8
left_labelLayer
10
731.6042556
20
17.0106741
40
0.9131109
50
206.2950628
51
222.5557922
0
ARC
8
left_labelLayer
10
731.5772568
20
16.9965373
40
0.8836972
50
223.0645122
51
258.140166
0
ARC
8
left_labelLayer
10
731.6847296
20
17.4390696
40
1.3389463
50
257.5312236
51
270.4319709
0
ARC
8
left_labelLayer
10
731.6859299
20
18.6687143
40
2.5685685
50
270.1984005
51
292.2090283
0
ARC
8
left_labelLayer
10
731.5626058
20
19.0229089
40
2.9431665
50
291.8254007
51
293.1612972
0
ARC
8
left_labelLayer
10
731.5566564
20
18.5611394
40
2.9196486
50
287.9023566
51
293.4861184
0
ARC
8
left_labelLayer
10
731.7684539
20
17.9076867
40
2.2327292
50
281.9936372
51
287.8850609
0
ARC
8
left_labelLayer
10
731.8197948
20
17.7231567
40
2.0415932
50
275.9054525
51
281.6603933
0
ARC
8
left_labelLayer
10
731.7170382
20
18.6823029
40
3.0062236
50
271.9119985
51
275.9726811
0
ARC
8
left_labelLayer
10
731.6795281
20
19.6377346
40
3.9623788
50
269.9670023
51
271.993144
0
ARC
8
left_labelLayer
10
731.5360778
20
17.6376362
40
0.9586642
50
89.4422338
51
106.2089933
0
ARC
8
left_labelLayer
10
731.4784023
20
17.8479259
40
0.7406414
50
106.465649
51
137.9176967
0
ARC
8
left_labelLayer
10
731.6437582
20
17.7027145
40
0.9606908
50
138.0994622
51
160.5866037
0
ARC
8
left_labelLayer
10
732.0687976
20
17.5463498
40
1.4135509
50
160.3353246
51
172.5315286
0
ARC
8
left_labelLayer
10
732.4872427
20
17.4792986
40
1.8372013
50
172.1543997
51
174.7615636
0
ARC
8
left_labelLayer
10
730.6792208
20
17.6564504
40
1.6572317
50
359.6745197
51
8.922464
0
ARC
8
left_labelLayer
10
731.2713898
20
17.7529362
40
1.0572695
50
8.7341931
51
23.2772088
0
ARC
8
left_labelLayer
10
731.5525176
20
17.8709475
40
0.7523935
50
23.4820922
51
39.7072995
0
ARC
8
left_labelLayer
10
731.6215657
20
17.9226191
40
0.6662767
50
40.0822878
51
80.6243096
0
ARC
8
left_labelLayer
10
731.5504854
20
17.5967785
40
0.9994893
50
79.6469325
51
90.2909419
0
LINE
8
left_labelLayer
10
735.1342773
20
18.9448878
11
735.1342773
21
18.5669581
0
LINE
8
left_labelLayer
10
735.1342773
20
18.5669581
11
734.3168945
21
18.5669581
0
LINE
8
left_labelLayer
10
734.3168945
20
18.5669581
11
734.3168945
21
15.7339503
0
LINE
8
left_labelLayer
10
734.3168945
20
15.7339503
11
733.8305664
21
15.7339503
0
LINE
8
left_labelLayer
10
733.8305664
20
15.7339503
11
733.8305664
21
18.5669581
0
LINE
8
left_labelLayer
10
733.8305664
20
18.5669581
11
733.2563477
21
18.5669581
0
LINE
8
left_labelLayer
10
733.2563477
20
18.5669581
11
733.2563477
21
18.7866847
0
LINE
8
left_labelLayer
10
733.2563477
20
18.7866847
11
733.8305664
21
18.9624659
0
LINE
8
left_labelLayer
10
733.8305664
20
18.9624659
11
733.8305664
21
19.1411768
0
LINE
8
left_labelLayer
10
735.4624023
20
20.2222315
11
735.3364258
21
19.8325831
0
LINE
8
left_labelLayer
10
734.3168945
20
19.1528956
11
734.3168945
21
18.9448878
0
LINE
8
left_labelLayer
10
734.3168945
20
18.9448878
11
735.1342773
21
18.9448878
0
ARC
8
left_labelLayer
10
735.8014789
20
19.1638363
40
1.9710428
50
167.5775859
51
180.6586981
0
ARC
8
left_labelLayer
10
734.8746335
20
19.3799231
40
1.0194789
50
141.7433852
51
168.2321874
0
ARC
8
left_labelLayer
10
734.7237224
20
19.4586878
40
0.8527923
50
98.2551397
51
139.620341
0
ARC
8
left_labelLayer
10
734.8562231
20
18.846588
40
1.478207
50
89.6696449
51
99.9314391
0
ARC
8
left_labelLayer
10
734.8565922
20
18.7586868
40
1.566105
50
81.5641195
51
89.7016897
0
ARC
8
left_labelLayer
10
734.7464972
20
17.9906007
40
2.3420352
50
75.973991
51
81.6565033
0
ARC
8
left_labelLayer
10
734.5575062
20
17.2067256
40
3.148351
50
73.2964959
51
76.0945645
0
ARC
8
left_labelLayer
10
734.6051261
20
17.5870326
40
2.36163
50
71.9613253
51
76.5917517
0
ARC
8
left_labelLayer
10
734.788356
20
18.3642966
40
1.5630646
50
76.5183451
51
83.021747
0
ARC
8
left_labelLayer
10
734.8521726
20
18.8775163
40
1.045894
50
83.0760609
51
89.7926833
0
ARC
8
left_labelLayer
10
734.8500732
20
19.2675561
40
0.6558737
50
89.4859917
51
103.41966
0
ARC
8
left_labelLayer
10
734.7909415
20
19.4947389
40
0.4211977
50
102.7677547
51
144.3380553
0
ARC
8
left_labelLayer
10
734.910069
20
19.4180916
40
0.5627168
50
145.0689252
51
162.1801381
0
ARC
8
left_labelLayer
10
735.3185072
20
19.2806734
40
0.99363
50
161.8437903
51
171.7846869
0
ARC
8
left_labelLayer
10
735.9846914
20
19.1806167
40
1.6672799
50
171.6528461
51
178.4383388
0
ARC
8
left_labelLayer
10
736.6126112
20
19.1538303
40
2.2957169
50
178.1971487
51
180.0233278
0
LINE
8
left_labelLayer
10
737.1967773
20
16.1353175
11
737.1967773
21
15.7632472
0
LINE
8
left_labelLayer
10
735.7553711
20
16.6568018
11
735.7553711
21
18.5669581
0
LINE
8
left_labelLayer
10
735.7553711
20
18.5669581
11
735.2954102
21
18.5669581
0
LINE
8
left_labelLayer
10
735.2954102
20
18.5669581
11
735.2954102
21
18.8013331
0
LINE
8
left_labelLayer
10
735.2954102
20
18.8013331
11
735.7553711
21
19.0034815
0
LINE
8
left_labelLayer
10
735.7553711
20
19.0034815
11
735.9604492
21
19.6890284
0
LINE
8
left_labelLayer
10
735.9604492
20
19.6890284
11
736.2416992
21
19.6890284
0
LINE
8
left_labelLayer
10
736.2416992
20
19.6890284
11
736.2416992
21
18.9448878
0
LINE
8
left_labelLayer
10
736.2416992
20
18.9448878
11
737.1733398
21
18.9448878
0
LINE
8
left_labelLayer
10
737.1733398
20
18.9448878
11
737.1733398
21
18.5669581
0
LINE
8
left_labelLayer
10
737.1733398
20
18.5669581
11
736.2416992
21
18.5669581
0
LINE
8
left_labelLayer
10
736.2416992
20
18.5669581
11
736.2416992
21
16.6773097
0
ARC
8
left_labelLayer
10
736.7606607
20
17.673869
40
1.5971488
50
269.8803067
51
278.3028861
0
ARC
8
left_labelLayer
10
736.775751
20
17.5503874
40
1.4727852
50
278.4156826
51
279.0079693
0
ARC
8
left_labelLayer
10
736.5967134
20
18.6941825
40
2.6305066
50
278.9588155
51
280.5104563
0
ARC
8
left_labelLayer
10
736.7675119
20
17.7777797
40
1.6983234
50
280.4845744
51
282.6270635
0
ARC
8
left_labelLayer
10
736.9172338
20
17.1126339
40
1.0165355
50
282.5877786
51
285.5796974
0
ARC
8
left_labelLayer
10
736.9935669
20
16.832106
40
0.7258158
50
285.7229919
51
286.2587204
0
ARC
8
left_labelLayer
10
736.9923177
20
16.1956906
40
0.478342
50
287.9886298
51
295.3048258
0
ARC
8
left_labelLayer
10
736.876945
20
16.5447382
40
0.84596
50
283.3068243
51
288.119837
0
ARC
8
left_labelLayer
10
736.7550783
20
17.0530532
40
1.3686781
50
280.0069092
51
283.3737271
0
ARC
8
left_labelLayer
10
736.6734869
20
17.4958075
40
1.8188776
50
279.1864695
51
280.1144539
0
ARC
8
left_labelLayer
10
736.623441
20
17.7805096
40
2.1079215
50
275.5260628
51
279.2938845
0
ARC
8
left_labelLayer
10
736.6798527
20
17.1913008
40
1.5160189
50
270.8933569
51
275.5483787
0
ARC
8
left_labelLayer
10
736.6869584
20
16.919827
40
1.2444705
50
270.0024528
51
270.7611186
0
ARC
8
left_labelLayer
10
736.6673875
20
16.9454259
40
1.270221
50
253.7848084
51
270.8852241
0
ARC
8
left_labelLayer
10
736.5169001
20
16.432205
40
0.7353942
50
190.3817819
51
253.8772252
0
ARC
8
left_labelLayer
10
737.2839314
20
16.6395969
40
1.5286573
50
179.3551249
51
192.8477761
0
ARC
8
left_labelLayer
10
737.2209829
20
16.6711838
40
0.9793029
50
179.6415966
51
189.7505385
0
ARC
8
left_labelLayer
10
736.8752715
20
16.6095229
40
0.6281464
50
189.5479551
51
205.7873402
0
ARC
8
left_labelLayer
10
736.7332016
20
16.5440115
40
0.4717333
50
206.12956
51
221.4083365
0
ARC
8
left_labelLayer
10
736.7172663
20
16.5319194
40
0.4517861
50
221.5948522
51
262.350566
0
ARC
8
left_labelLayer
10
736.7551549
20
16.7267537
40
0.6500338
50
261.3265738
51
270.1912059
0
LINE
8
top_outsideCutPath
10
859
20
240
11
859
21
223
0
LINE
8
top_outsideCutPath
10
859
20
223
11
856
21
223
0
LINE
8
top_outsideCutPath
10
856
20
223
11
856
21
204.625
0
LINE
8
top_outsideCutPath
10
856
20
204.625
11
859.25
21
204.625
0
LINE
8
top_outsideCutPath
10
859.25
20
204.625
11
859.25
21
203
0
LINE
8
top_outsideCutPath
10
859.25
20
203
11
859.25
21
203
0
LINE
8
top_outsideCutPath
10
859.25
20
203
11
859.25
21
201.375
0
LINE
8
top_outsideCutPath
10
859.25
20
201.375
11
856
21
201.375
0
LINE
8
top_outsideCutPath
10
856
20
201.375
11
856
21
183
0
LINE
8
top_outsideCutPath
10
856
20
183
11
859
21
183
0
LINE
8
top_outsideCutPath
10
859
20
183
11
859
21
143
0
LINE
8
top_outsideCutPath
10
859
20
143
11
856
21
143
0
LINE
8
top_outsideCutPath
10
856
20
143
11
856
21
124.625
0
LINE
8
top_outsideCutPath
10
856
20
124.625
11
859.25
21
124.625
0
LINE
8
top_outsideCutPath
10
859.25
20
124.625
11
859.25
21
123
0
LINE
8
top_outsideCutPath
10
859.25
20
123
11
859.25
21
123
0
LINE
8
top_outsideCutPath
10
859.25
20
123
11
859.25
21
121.375
0
LINE
8
top_outsideCutPath
10
859.25
20
121.375
11
856
21
121.375
0
LINE
8
top_outsideCutPath
10
856
20
121.375
11
856
21
103
0
LINE
8
top_outsideCutPath
10
856
20
103
11
859
21
103
0
LINE
8
top_outsideCutPath
10
859
20
103
11
859
21
63
0
LINE
8
top_outsideCutPath
10
859
20
63
11
856
21
63
0
LINE
8
top_outsideCutPath
10
856
20
63
11
856
21
44.625
0
LINE
8
top_outsideCutPath
10
856
20
44.625
11
859.25
21
44.625
0
LINE
8
top_outsideCutPath
10
859.25
20
44.625
11
859.25
21
43
0
LINE
8
top_outsideCutPath
10
859.25
20
43
11
859.25
21
43
0
LINE
8
top_outsideCutPath
10
859.25
20
43
11
859.25
21
41.375
0
LINE
8
top_outsideCutPath
10
859.25
20
41.375
11
856
21
41.375
0
LINE
8
top_outsideCutPath
10
856
20
41.375
11
856
21
23
0
LINE
8
top_outsideCutPath
10
856
20
23
11
859
21
23
0
LINE
8
top_outsideCutPath
10
859
20
23
11
859
21
6
0
LINE
8
top_outsideCutPath
10
859
20
6
11
906.8333333
21
6
0
LINE
8
top_outsideCutPath
10
906.8333333
20
6
11
906.8333333
21
3
0
LINE
8
top_outsideCutPath
10
906.8333333
20
3
11
956.0416667
21
3
0
LINE
8
top_outsideCutPath
10
956.0416667
20
3
11
956.0416667
21
6.25
0
LINE
8
top_outsideCutPath
10
956.0416667
20
6.25
11
957.6666667
21
6.25
0
LINE
8
top_outsideCutPath
10
957.6666667
20
6.25
11
957.6666667
21
6.25
0
LINE
8
top_outsideCutPath
10
957.6666667
20
6.25
11
959.2916667
21
6.25
0
LINE
8
top_outsideCutPath
10
959.2916667
20
6.25
11
959.2916667
21
3
0
LINE
8
top_outsideCutPath
10
959.2916667
20
3
11
1008.5
21
3
0
LINE
8
top_outsideCutPath
10
1008.5
20
3
11
1008.5
21
6
0
LINE
8
top_outsideCutPath
10
1008.5
20
6
11
1110.1666667
21
6
0
LINE
8
top_outsideCutPath
10
1110.1666667
20
6
11
1110.1666667
21
3
0
LINE
8
top_outsideCutPath
10
1110.1666667
20
3
11
1159.375
21
3
0
LINE
8
top_outsideCutPath
10
1159.375
20
3
11
1159.375
21
6.25
0
LINE
8
top_outsideCutPath
10
1159.375
20
6.25
11
1161
21
6.25
0
LINE
8
top_outsideCutPath
10
1161
20
6.25
11
1161
21
6.25
0
LINE
8
top_outsideCutPath
10
1161
20
6.25
11
1162.625
21
6.25
0
LINE
8
top_outsideCutPath
10
1162.625
20
6.25
11
1162.625
21
3
0
LINE
8
top_outsideCutPath
10
1162.625
20
3
11
1211.8333333
21
3
0
LINE
8
top_outsideCutPath
10
1211.8333333
20
3
11
1211.8333333
21
6
0
LINE
8
top_outsideCutPath
10
1211.8333333
20
6
11
1313.5
21
6
0
LINE
8
top_outsideCutPath
10
1313.5
20
6
11
1313.5
21
3
0
LINE
8
top_outsideCutPath
10
1313.5
20
3
11
1362.7083333
21
3
0
LINE
8
top_outsideCutPath
10
1362.7083333
20
3
11
1362.7083333
21
6.25
0
LINE
8
top_outsideCutPath
10
1362.7083333
20
6.25
11
1364.3333333
21
6.25
0
LINE
8
top_outsideCutPath
10
1364.3333333
20
6.25
11
1364.3333333
21
6.25
0
LINE
8
top_outsideCutPath
10
1364.3333333
20
6.25
11
1365.9583333
21
6.25
0
LINE
8
top_outsideCutPath
10
1365.9583333
20
6.25
11
1365.9583333
21
3
0
LINE
8
top_outsideCutPath
10
1365.9583333
20
3
11
1415.1666667
21
3
0
LINE
8
top_outsideCutPath
10
1415.1666667
20
3
11
1415.1666667
21
6
0
LINE
8
top_outsideCutPath
10
1415.1666667
20
6
11
1463
21
6
0
LINE
8
top_outsideCutPath
10
1463
20
6
11
1463
21
23
0
LINE
8
top_outsideCutPath
10
1463
20
23
11
1466
21
23
0
LINE
8
top_outsideCutPath
10
1466
20
23
11
1466
21
41.375
0
LINE
8
top_outsideCutPath
10
1466
20
41.375
11
1462.75
21
41.375
0
LINE
8
top_outsideCutPath
10
1462.75
20
41.375
11
1462.75
21
43
0
LINE
8
top_outsideCutPath
10
1462.75
20
43
11
1462.75
21
43
0
LINE
8
top_outsideCutPath
10
1462.75
20
43
11
1462.75
21
44.625
0
LINE
8
top_outsideCutPath
10
1462.75
20
44.625
11
1466
21
44.625
0
LINE
8
top_outsideCutPath
10
1466
20
44.625
11
1466
21
63
0
LINE
8
top_outsideCutPath
10
1466
20
63
11
1463
21
63
0
LINE
8
top_outsideCutPath
10
1463
20
63
11
1463
21
103
0
LINE
8
top_outsideCutPath
10
1463
20
103
11
1466
21
103
0
LINE
8
top_outsideCutPath
10
1466
20
103
11
1466
21
121.375
0
LINE
8
top_outsideCutPath
10
1466
20
121.375
11
1462.75
21
121.375
0
LINE
8
top_outsideCutPath
10
1462.75
20
121.375
11
1462.75
21
123
0
LINE
8
top_outsideCutPath
10
1462.75
20
123
11
1462.75
21
123
0
LINE
8
top_outsideCutPath
10
1462.75
20
123
11
1462.75
21
124.625
0
LINE
8
top_outsideCutPath
10
1462.75
20
124.625
11
1466
21
124.625
0
LINE
8
top_outsideCutPath
10
1466
20
124.625
11
1466
21
143
0
LINE
8
top_outsideCutPath
10
1466
20
143
11
1463
21
143
0
LINE
8
top_outsideCutPath
10
1463
20
143
11
1463
21
183
0
LINE
8
top_outsideCutPath
10
1463
20
183
11
1466
21
183
0
LINE
8
top_outsideCutPath
10
1466
20
183
11
1466
21
201.375
0
LINE
8
top_outsideCutPath
10
1466
20
201.375
11
1462.75
21
201.375
0
LINE
8
top_outsideCutPath
10
1462.75
20
201.375
11
1462.75
21
203
0
LINE
8
top_outsideCutPath
10
1462.75
20
203
11
1462.75
21
203
0
LINE
8
top_outsideCutPath
10
1462.75
20
203
11
1462.75
21
204.625
0
LINE
8
top_outsideCutPath
10
1462.75
20
204.625
11
1466
21
204.625
0
LINE
8
top_outsideCutPath
10
1466
20
204.625
11
1466
21
223
0
LINE
8
top_outsideCutPath
10
1466
20
223
11
1463
21
223
0
LINE
8
top_outsideCutPath
10
1463
20
223
11
1463
21
240
0
LINE
8
top_outsideCutPath
10
1463
20
240
11
1415.1666667
21
240
0
LINE
8
top_outsideCutPath
10
1415.1666667
20
240
11
1415.1666667
21
243
0
LINE
8
top_outsideCutPath
10
1415.1666667
20
243
11
1365.9583333
21
243
0
LINE
8
top_outsideCutPath
10
1365.9583333
20
243
11
1365.9583333
21
239.75
0
LINE
8
top_outsideCutPath
10
1365.9583333
20
239.75
11
1364.3333333
21
239.75
0
LINE
8
top_outsideCutPath
10
1364.3333333
20
239.75
11
1364.3333333
21
239.75
0
LINE
8
top_outsideCutPath
10
1364.3333333
20
239.75
11
1362.7083333
21
239.75
0
LINE
8
top_outsideCutPath
10
1362.7083333
20
239.75
11
1362.7083333
21
243
0
LINE
8
top_outsideCutPath
10
1362.7083333
20
243
11
1313.5
21
243
0
LINE
8
top_outsideCutPath
10
1313.5
20
243
11
1313.5
21
240
0
LINE
8
top_outsideCutPath
10
1313.5
20
240
11
1211.8333333
21
240
0
LINE
8
top_outsideCutPath
10
1211.8333333
20
240
11
1211.8333333
21
243
0
LINE
8
top_outsideCutPath
10
1211.8333333
20
243
11
1162.625
21
243
0
LINE
8
top_outsideCutPath
10
1162.625
20
243
11
1162.625
21
239.75
0
LINE
8
top_outsideCutPath
10
1162.625
20
239.75
11
1161
21
239.75
0
LINE
8
top_outsideCutPath
10
1161
20
239.75
11
1161
21
239.75
0
LINE
8
top_outsideCutPath
10
1161
20
239.75
11
1159.375
21
239.75
0
LINE
8
top_outsideCutPath
10
1159.375
20
239.75
11
1159.375
21
243
0
LINE
8
top_outsideCutPath
10
1159.375
20
243
11
1110.1666667
21
243
0
LINE
8
top_outsideCutPath
10
1110.1666667
20
243
11
1110.1666667
21
240
0
LINE
8
top_outsideCutPath
10
1110.1666667
20
240
11
1008.5
21
240
0
LINE
8
top_outsideCutPath
10
1008.5
20
240
11
1008.5
21
243
0
LINE
8
top_outsideCutPath
10
1008.5
20
243
11
959.2916667
21
243
0
LINE
8
top_outsideCutPath
10
959.2916667
20
243
11
959.2916667
21
239.75
0
LINE
8
top_outsideCutPath
10
959.2916667
20
239.75
11
957.6666667
21
239.75
0
LINE
8
top_outsideCutPath
10
957.6666667
20
239.75
11
957.6666667
21
239.75
0
LINE
8
top_outsideCutPath
10
957.6666667
20
239.75
11
956.0416667
21
239.75
0
LINE
8
top_outsideCutPath
10
956.0416667
20
239.75
11
956.0416667
21
243
0
LINE
8
top_outsideCutPath
10
956.0416667
20
243
11
906.8333333
21
243
0
LINE
8
top_outsideCutPath
10
906.8333333
20
243
11
906.8333333
21
240
0
LINE
8
top_outsideCutPath
10
906.8333333
20
240
11
859
21
240
0
LINE
8
top_labelLayer
10
1140.2341765
20
116.15625
11
1140.2341765
21
113.1796875
0
LINE
8
top_labelLayer
10
1128.7029265
20
120.328125
11
1128.7029265
21
135.609375
0
LINE
8
top_labelLayer
10
1128.7029265
20
135.609375
11
1125.023239
21
135.609375
0
LINE
8
top_labelLayer
10
1125.023239
20
135.609375
11
1125.023239
21
137.484375
0
LINE
8
top_labelLayer
10
1125.023239
20
137.484375
11
1128.7029265
21
139.1015625
0
LINE
8
top_labelLayer
10
1128.7029265
20
139.1015625
11
1130.3435515
21
144.5859375
0
LINE
8
top_labelLayer
10
1130.3435515
20
144.5859375
11
1132.5935515
21
144.5859375
0
LINE
8
top_labelLayer
10
1132.5935515
20
144.5859375
11
1132.5935515
21
138.6328125
0
LINE
8
top_labelLayer
10
1132.5935515
20
138.6328125
11
1140.0466765
21
138.6328125
0
LINE
8
top_labelLayer
10
1140.0466765
20
138.6328125
11
1140.0466765
21
135.609375
0
LINE
8
top_labelLayer
10
1140.0466765
20
135.609375
11
1132.5935515
21
135.609375
0
LINE
8
top_labelLayer
10
1132.5935515
20
135.609375
11
1132.5935515
21
120.4921875
0
ARC
8
top_labelLayer
10
1136.7452329
20
128.4648167
40
12.7773446
50
269.880356
51
278.3028338
0
ARC
8
top_labelLayer
10
1136.8671667
20
127.4689484
40
11.7743293
50
278.4154985
51
279.0081852
0
ARC
8
top_labelLayer
10
1135.4331709
20
136.6298642
40
21.0467908
50
278.9590023
51
280.5104412
0
ARC
8
top_labelLayer
10
1136.7995393
20
129.2984742
40
13.589165
50
280.4847652
51
282.6268478
0
ARC
8
top_labelLayer
10
1137.9978351
20
123.9748448
40
8.1323445
50
282.5876314
51
285.5795281
0
ARC
8
top_labelLayer
10
1138.5984101
20
121.7660767
40
5.8434484
50
285.7237847
51
286.2561282
0
ARC
8
top_labelLayer
10
1138.5984657
20
116.6393056
40
3.8268142
50
287.9887831
51
295.3048298
0
ARC
8
top_labelLayer
10
1137.6754436
20
119.431871
40
6.767946
50
283.3069401
51
288.1197638
0
ARC
8
top_labelLayer
10
1136.70036
20
123.4992746
40
10.950584
50
280.0070276
51
283.3734888
0
ARC
8
top_labelLayer
10
1136.0482035
20
127.0383517
40
14.5491693
50
279.18625
51
280.1143525
0
ARC
8
top_labelLayer
10
1135.6475291
20
129.317407
40
16.8629899
50
275.526042
51
279.2939492
0
ARC
8
top_labelLayer
10
1136.0988049
20
124.6038392
40
12.1278722
50
270.8932567
51
275.5483853
0
ARC
8
top_labelLayer
10
1136.1555033
20
122.4506562
40
9.9740936
50
270.0031491
51
270.7604206
0
ARC
8
top_labelLayer
10
1135.9990521
20
122.6370923
40
10.1617427
50
253.784798
51
270.8852574
0
ARC
8
top_labelLayer
10
1134.7951565
20
118.5313482
40
5.8831512
50
190.3817648
51
253.8772413
0
ARC
8
top_labelLayer
10
1140.9314031
20
120.1904798
40
12.2292513
50
179.355099
51
192.8477572
0
ARC
8
top_labelLayer
10
1140.4278265
20
120.44319
40
7.8344282
50
179.6416623
51
189.7505963
0
ARC
8
top_labelLayer
10
1137.6621187
20
119.9498907
40
5.0251596
50
189.5479455
51
205.7873677
0
ARC
8
top_labelLayer
10
1136.5255315
20
119.4257737
40
3.7738191
50
206.1294271
51
221.4083989
0
ARC
8
top_labelLayer
10
1136.3980919
20
119.3290747
40
3.6142978
50
221.5949153
51
262.3505225
0
ARC
8
top_labelLayer
10
1136.7011891
20
120.8877221
40
5.2002511
50
261.3266336
51
270.1912974
0
ARC
8
top_labelLayer
10
1147.4426522
20
125.677017
40
20.0966684
50
349.1761924
51
0.3862662
0
ARC
8
top_labelLayer
10
1154.2087199
20
124.3281889
40
13.1977895
50
330.2507105
51
349.4116455
0
ARC
8
top_labelLayer
10
1156.2909797
20
123.2459127
40
10.8533328
50
318.1439766
51
329.756625
0
ARC
8
top_labelLayer
10
1156.6667969
20
122.9447336
40
10.3724838
50
278.895917
51
317.9979115
0
ARC
8
top_labelLayer
10
1155.698457
20
127.5841403
40
15.1077213
50
269.7502909
51
279.8033212
0
ARC
8
top_labelLayer
10
1155.5414129
20
124.9701215
40
12.4938919
50
253.543696
51
270.4182433
0
ARC
8
top_labelLayer
10
1155.1255197
20
123.3613338
40
10.8333399
50
238.8115585
51
253.2428266
0
ARC
8
top_labelLayer
10
1154.9912919
20
123.0914016
40
10.5329405
50
207.7947044
51
238.675796
0
ARC
8
top_labelLayer
10
1156.9174485
20
124.2710659
40
12.7877747
50
205.6560336
51
208.4461097
0
ARC
8
top_labelLayer
10
1158.4008301
20
124.889127
40
14.3927612
50
188.9102466
51
205.3171401
0
ARC
8
top_labelLayer
10
1163.4003808
20
125.7358892
40
19.4632301
50
179.7744728
51
189.0932858
0
ARC
8
top_labelLayer
10
1164.1378813
20
125.9493252
40
20.2010432
50
169.2442975
51
180.3880772
0
ARC
8
top_labelLayer
10
1157.2777632
20
127.3053221
40
13.2084882
50
150.7111502
51
169.4695465
0
ARC
8
top_labelLayer
10
1155.0878071
20
128.4299443
40
10.7486876
50
138.1759503
51
150.2287411
0
ARC
8
top_labelLayer
10
1154.7235189
20
128.7094909
40
10.2908652
50
99.1759363
51
137.9832719
0
ARC
8
top_labelLayer
10
1155.7261636
20
123.9909364
40
15.1107906
50
89.7326342
51
100.0759831
0
ARC
8
top_labelLayer
10
1155.9265581
20
126.0287216
40
13.0734861
50
73.5222756
51
90.5692279
0
ARC
8
top_labelLayer
10
1156.6932399
20
128.8142819
40
10.1850128
50
41.1445655
51
73.2133825
0
ARC
8
top_labelLayer
10
1155.229705
20
127.5563937
40
12.1147824
50
13.5014346
51
41.0703413
0
ARC
8
top_labelLayer
10
1149.5753554
20
126.0767249
40
17.9587187
50
1.1277205
51
13.8800038
0
ARC
8
top_labelLayer
10
1144.7048689
20
125.8157206
40
22.8339955
50
359.9919188
51
1.5419906
0
ARC
8
top_labelLayer
10
1167.6703259
20
125.7113899
40
19.7020339
50
179.7059588
51
187.9160805
0
ARC
8
top_labelLayer
10
1160.4442548
20
124.6733724
40
12.4019063
50
187.7639318
51
200.0976809
0
ARC
8
top_labelLayer
10
1156.4634122
20
123.2147871
40
8.1622632
50
200.0845853
51
216.9131611
0
ARC
8
top_labelLayer
10
1155.0097555
20
122.176808
40
6.3767284
50
217.3009547
51
261.7099106
0
ARC
8
top_labelLayer
10
1155.6845947
20
125.3970799
40
9.6627951
50
260.5033253
51
270.2476726
0
ARC
8
top_labelLayer
10
1155.8134006
20
124.7708751
40
9.0369192
50
269.448163
51
284.7255748
0
ARC
8
top_labelLayer
10
1156.5288005
20
122.1176914
40
6.2890581
50
284.5662317
51
322.633386
0
ARC
8
top_labelLayer
10
1154.8561602
20
123.3261002
40
8.351998
50
323.0089243
51
342.6390508
0
ARC
8
top_labelLayer
10
1150.0720647
20
124.8896826
40
13.3848638
50
342.3615621
51
353.7537674
0
ARC
8
top_labelLayer
10
1143.013891
20
125.7404557
40
20.4938497
50
353.5363061
51
0.2014186
0
ARC
8
top_labelLayer
10
1144.095278
20
125.9115794
40
19.4125888
50
359.7075683
51
7.897267
0
ARC
8
top_labelLayer
10
1151.2047252
20
126.9307827
40
12.2305755
50
7.7439931
51
20.0690245
0
ARC
8
top_labelLayer
10
1155.1663783
20
128.384563
40
8.0106093
50
20.0256975
51
37.4350566
0
ARC
8
top_labelLayer
10
1156.4808182
20
129.3172711
40
6.4001963
50
37.9577612
51
80.4006217
0
ARC
8
top_labelLayer
10
1155.7338622
20
125.9844331
40
9.8125925
50
79.34534
51
90.3174871
0
ARC
8
top_labelLayer
10
1155.5955532
20
126.5380115
40
9.259244
50
89.4806021
51
103.8804973
0
ARC
8
top_labelLayer
10
1154.8175369
20
129.5006988
40
6.1965884
50
103.4685209
51
142.3118913
0
ARC
8
top_labelLayer
10
1156.3300629
20
128.4369835
40
8.04427
50
142.90258
51
162.3749602
0
ARC
8
top_labelLayer
10
1161.0960307
20
126.8487385
40
13.0676058
50
162.0653208
51
173.1674858
0
ARC
8
top_labelLayer
10
1168.5274435
20
125.9009068
40
20.559082
50
173.0086217
51
180.2463804
0
LINE
8
top_labelLayer
10
1178.2498015
20
116.25
11
1177.9685515
21
116.25
0
LINE
8
top_labelLayer
10
1178.2498015
20
111.984375
11
1178.2498015
21
101.4140625
0
LINE
8
top_labelLayer
10
1178.2498015
20
101.4140625
11
1174.3591765
21
101.4140625
0
LINE
8
top_labelLayer
10
1174.3591765
20
101.4140625
11
1174.3591765
21
138.6328125
0
LINE
8
top_labelLayer
10
1174.3591765
20
138.6328125
11
1177.523239
21
138.6328125
0
LINE
8
top_labelLayer
10
1177.523239
20
138.6328125
11
1178.0623015
21
135.1171875
0
LINE
8
top_labelLayer
10
1178.0623015
20
135.1171875
11
1178.2498015
21
135.1171875
0
LINE
8
top_labelLayer
10
1178.2498015
20
126.6796875
11
1178.2498015
21
125.8125
0
ARC
8
top_labelLayer
10
1186.2466923
20
124.2774919
40
11.8011118
50
255.7755392
51
270.318542
0
ARC
8
top_labelLayer
10
1185.9099214
20
122.7812527
40
10.2680775
50
245.9801611
51
255.5455756
0
ARC
8
top_labelLayer
10
1185.257627
20
121.2643391
40
8.6170306
50
215.5850176
51
245.8361706
0
ARC
8
top_labelLayer
10
1141.4393877
20
111.6339399
40
36.8196662
50
2.9503246
51
7.2020897
0
ARC
8
top_labelLayer
10
1147.3966283
20
111.9672422
40
30.8531778
50
0.0318165
51
2.9015946
0
ARC
8
top_labelLayer
10
1186.820065
20
129.098283
40
10.472661
50
132.3565008
51
144.9195946
0
ARC
8
top_labelLayer
10
1185.2157477
20
130.8485449
40
8.0983823
50
115.4006111
51
132.3118334
0
ARC
8
top_labelLayer
10
1185.8415423
20
129.3251211
40
9.7433681
50
97.7066308
51
114.8821495
0
ARC
8
top_labelLayer
10
1186.2785901
20
126.49068
40
12.6109275
50
89.8468376
51
97.9474252
0
ARC
8
top_labelLayer
10
1186.4327149
20
127.1764054
40
11.925765
50
74.1923548
51
90.5785203
0
ARC
8
top_labelLayer
10
1187.2579108
20
130.1761667
40
8.8146897
50
38.0523443
51
74.0417325
0
ARC
8
top_labelLayer
10
1184.9818727
20
128.4316815
40
11.6822555
50
16.3356018
51
37.9090557
0
ARC
8
top_labelLayer
10
1179.002669
20
126.5900502
40
17.9382698
50
4.5766542
51
16.608876
0
ARC
8
top_labelLayer
10
1171.6415994
20
125.8565696
40
25.334803
50
359.9003346
51
4.9018247
0
ARC
8
top_labelLayer
10
1174.165128
20
125.6779159
40
22.811633
50
350.6562814
51
0.3380356
0
ARC
8
top_labelLayer
10
1182.1176333
20
124.3252821
40
14.7450955
50
335.8305923
51
350.8254832
0
ARC
8
top_labelLayer
10
1185.6157946
20
122.8154262
40
10.935535
50
321.3161475
51
335.5436135
0
ARC
8
top_labelLayer
10
1186.9531694
20
121.7256692
40
9.2104605
50
274.0640063
51
321.4081019
0
ARC
8
top_labelLayer
10
1186.3301349
20
125.6722131
40
13.1956625
50
269.922567
51
275.5481561
0
ARC
8
top_labelLayer
10
1185.6696671
20
124.5867591
40
11.2104023
50
89.5904339
51
100.3501822
0
ARC
8
top_labelLayer
10
1184.8702817
20
128.7862513
40
6.9356968
50
100.0868136
51
118.1917934
0
ARC
8
top_labelLayer
10
1184.0513803
20
130.3833779
40
5.1412708
50
118.5569477
51
141.0243301
0
ARC
8
top_labelLayer
10
1185.2992235
20
129.5031699
40
6.6657618
50
141.8890389
51
160.5973174
0
ARC
8
top_labelLayer
10
1189.6846583
20
127.8940248
40
11.3368653
50
160.2895695
51
171.2453019
0
ARC
8
top_labelLayer
10
1196.8951068
20
126.7314652
40
18.6403231
50
171.0868421
51
178.3247565
0
ARC
8
top_labelLayer
10
1203.0106983
20
126.4408462
40
24.7620487
50
178.0662763
51
179.4473474
0
ARC
8
top_labelLayer
10
1203.9740857
20
125.7120503
40
25.7244803
50
179.7762693
51
185.7075306
0
ARC
8
top_labelLayer
10
1193.8318694
20
124.6670419
40
15.5286487
50
185.59249
51
194.2050636
0
ARC
8
top_labelLayer
10
1187.3348218
20
122.9808336
40
8.8165654
50
193.9430381
51
208.0218432
0
ARC
8
top_labelLayer
10
1184.7061101
20
121.6435343
40
5.8680002
50
208.5536467
51
217.5605275
0
ARC
8
top_labelLayer
10
1184.4919402
20
121.5544557
40
5.6442415
50
218.1690452
51
253.8047193
0
ARC
8
top_labelLayer
10
1185.5388379
20
124.782148
40
9.0364519
50
253.1382449
51
266.848314
0
ARC
8
top_labelLayer
10
1185.8324052
20
128.2442294
40
12.5098594
50
266.3775735
51
270.0510507
0
ARC
8
top_labelLayer
10
1185.9321427
20
122.2893294
40
6.555553
50
269.2256863
51
292.043038
0
ARC
8
top_labelLayer
10
1186.0205937
20
121.7622038
40
6.0348751
50
293.1429636
51
324.1353874
0
ARC
8
top_labelLayer
10
1184.7062748
20
122.8749651
40
7.7530591
50
323.1615987
51
325.0152855
0
ARC
8
top_labelLayer
10
1183.2991889
20
123.7474245
40
9.4065727
50
325.5753859
51
344.1504579
0
ARC
8
top_labelLayer
10
1178.4315126
20
125.1863586
40
14.4822847
50
343.9336247
51
355.1137447
0
ARC
8
top_labelLayer
10
1172.2177105
20
125.81688
40
20.727447
50
354.8402178
51
0.1174667
0
ARC
8
top_labelLayer
10
1173.3121053
20
125.9584617
40
19.6332587
50
359.710834
51
7.8610421
0
ARC
8
top_labelLayer
10
1180.4507587
20
126.9760581
40
12.4225521
50
7.7149594
51
19.8859686
0
ARC
8
top_labelLayer
10
1184.3768256
20
128.3941709
40
8.2482209
50
19.8991386
51
35.8980196
0
ARC
8
top_labelLayer
10
1186.1280296
20
129.7203992
40
6.0521974
50
35.4481613
51
85.2266598
0
ARC
8
top_labelLayer
10
1185.7621911
20
127.4262226
40
8.3706617
50
84.037889
51
90.0848045
0
LINE
8
back_outsideCutPath
10
0
20
66
11
0
21
56.125
0
LINE
8
back_outsideCutPath
10
0
20
56.125
11
3
21
56.125
0
LINE
8
back_outsideCutPath
10
3
20
56.125
11
3
21
52.625
0
LINE
8
back_outsideCutPath
10
3
20
52.625
11
4.95
21
52.625
0
LINE
8
back_outsideCutPath
10
4.95
20
52.625
11
4.95
21
53.875
0
LINE
8
back_outsideCutPath
10
4.95
20
53.875
11
7.6
21
53.875
0
LINE
8
back_outsideCutPath
10
7.6
20
53.875
11
7.6
21
52.625
0
LINE
8
back_outsideCutPath
10
7.6
20
52.625
11
10.25
21
52.625
0
LINE
8
back_outsideCutPath
10
10.25
20
52.625
11
10.25
21
49.375
0
LINE
8
back_outsideCutPath
10
10.25
20
49.375
11
7.6
21
49.375
0
LINE
8
back_outsideCutPath
10
7.6
20
49.375
11
7.6
21
48.125
0
LINE
8
back_outsideCutPath
10
7.6
20
48.125
11
4.95
21
48.125
0
LINE
8
back_outsideCutPath
10
4.95
20
48.125
11
4.95
21
49.375
0
LINE
8
back_outsideCutPath
10
4.95
20
49.375
11
3
21
49.375
0
LINE
8
back_outsideCutPath
10
3
20
49.375
11
3
21
45.875
0
LINE
8
back_outsideCutPath
10
3
20
45.875
11
0
21
45.875
0
LINE
8
back_outsideCutPath
10
0
20
45.875
11
0
21
36
0
LINE
8
back_outsideCutPath
10
0
20
36
11
50.8333333
21
36
0
LINE
8
back_outsideCutPath
10
50.8333333
20
36
11
50.8333333
21
39
0
LINE
8
back_outsideCutPath
10
50.8333333
20
39
11
100.0416667
21
39
0
LINE
8
back_outsideCutPath
10
100.0416667
20
39
11
100.0416667
21
40.95
0
LINE
8
back_outsideCutPath
10
100.0416667
20
40.95
11
98.7916667
21
40.95
0
LINE
8
back_outsideCutPath
10
98.7916667
20
40.95
11
98.7916667
21
43.6
0
LINE
8
back_outsideCutPath
10
98.7916667
20
43.6
11
100.0416667
21
43.6
0
LINE
8
back_outsideCutPath
10
100.0416667
20
43.6
11
100.0416667
21
46.25
0
LINE
8
back_outsideCutPath
10
100.0416667
20
46.25
11
103.2916667
21
46.25
0
LINE
8
back_outsideCutPath
10
103.2916667
20
46.25
11
103.2916667
21
43.6
0
LINE
8
back_outsideCutPath
10
103.2916667
20
43.6
11
104.5416667
21
43.6
0
LINE
8
back_outsideCutPath
10
104.5416667
20
43.6
11
104.5416667
21
40.95
0
LINE
8
back_outsideCutPath
10
104.5416667
20
40.95
11
103.2916667
21
40.95
0
LINE
8
back_outsideCutPath
10
103.2916667
20
40.95
11
103.2916667
21
39
0
LINE
8
back_outsideCutPath
10
103.2916667
20
39
11
152.5
21
39
0
LINE
8
back_outsideCutPath
10
152.5
20
39
11
152.5
21
36
0
LINE
8
back_outsideCutPath
10
152.5
20
36
11
254.1666667
21
36
0
LINE
8
back_outsideCutPath
10
254.1666667
20
36
11
254.1666667
21
39
0
LINE
8
back_outsideCutPath
10
254.1666667
20
39
11
303.375
21
39
0
LINE
8
back_outsideCutPath
10
303.375
20
39
11
303.375
21
40.95
0
LINE
8
back_outsideCutPath
10
303.375
20
40.95
11
302.125
21
40.95
0
LINE
8
back_outsideCutPath
10
302.125
20
40.95
11
302.125
21
43.6
0
LINE
8
back_outsideCutPath
10
302.125
20
43.6
11
303.375
21
43.6
0
LINE
8
back_outsideCutPath
10
303.375
20
43.6
11
303.375
21
46.25
0
LINE
8
back_outsideCutPath
10
303.375
20
46.25
11
306.625
21
46.25
0
LINE
8
back_outsideCutPath
10
306.625
20
46.25
11
306.625
21
43.6
0
LINE
8
back_outsideCutPath
10
306.625
20
43.6
11
307.875
21
43.6
0
LINE
8
back_outsideCutPath
10
307.875
20
43.6
11
307.875
21
40.95
0
LINE
8
back_outsideCutPath
10
307.875
20
40.95
11
306.625
21
40.95
0
LINE
8
back_outsideCutPath
10
306.625
20
40.95
11
306.625
21
39
0
LINE
8
back_outsideCutPath
10
306.625
20
39
11
355.8333333
21
39
0
LINE
8
back_outsideCutPath
10
355.8333333
20
39
11
355.8333333
21
36
0
LINE
8
back_outsideCutPath
10
355.8333333
20
36
11
457.5
21
36
0
LINE
8
back_outsideCutPath
10
457.5
20
36
11
457.5
21
39
0
LINE
8
back_outsideCutPath
10
457.5
20
39
11
506.7083333
21
39
0
LINE
8
back_outsideCutPath
10
506.7083333
20
39
11
506.7083333
21
40.95
0
LINE
8
back_outsideCutPath
10
506.7083333
20
40.95
11
505.4583333
21
40.95
0
LINE
8
back_outsideCutPath
10
505.4583333
20
40.95
11
505.4583333
21
43.6
0
LINE
8
back_outsideCutPath
10
505.4583333
20
43.6
11
506.7083333
21
43.6
0
LINE
8
back_outsideCutPath
10
506.7083333
20
43.6
11
506.7083333
21
46.25
0
LINE
8
back_outsideCutPath
10
506.7083333
20
46.25
11
509.9583333
21
46.25
0
LINE
8
back_outsideCutPath
10
509.9583333
20
46.25
11
509.9583333
21
43.6
0
LINE
8
back_outsideCutPath
10
509.9583333
20
43.6
11
511.2083333
21
43.6
0
LINE
8
back_outsideCutPath
10
511.2083333
20
43.6
11
511.2083333
21
40.95
0
LINE
8
back_outsideCutPath
10
511.2083333
20
40.95
11
509.9583333
21
40.95
0
LINE
8
back_outsideCutPath
10
509.9583333
20
40.95
11
509.9583333
21
39
0
LINE
8
back_outsideCutPath
10
509.9583333
20
39
11
559.1666667
21
39
0
LINE
8
back_outsideCutPath
10
559.1666667
20
39
11
559.1666667
21
36
0
LINE
8
back_outsideCutPath
10
559.1666667
20
36
11
610
21
36
0
LINE
8
back_outsideCutPath
10
610
20
36
11
610
21
45.875
0
LINE
8
back_outsideCutPath
10
610
20
45.875
11
607
21
45.875
0
LINE
8
back_outsideCutPath
10
607
20
45.875
11
607
21
49.375
0
LINE
8
back_outsideCutPath
10
607
20
49.375
11
605.05
21
49.375
0
LINE
8
back_outsideCutPath
10
605.05
20
49.375
11
605.05
21
48.125
0
LINE
8
back_outsideCutPath
10
605.05
20
48.125
11
602.4
21
48.125
0
LINE
8
back_outsideCutPath
10
602.4
20
48.125
11
602.4
21
49.375
0
LINE
8
back_outsideCutPath
10
602.4
20
49.375
11
599.75
21
49.375
0
LINE
8
back_outsideCutPath
10
599.75
20
49.375
11
599.75
21
52.625
0
LINE
8
back_outsideCutPath
10
599.75
20
52.625
11
602.4
21
52.625
0
LINE
8
back_outsideCutPath
10
602.4
20
52.625
11
602.4
21
53.875
0
LINE
8
back_outsideCutPath
10
602.4
20
53.875
11
605.05
21
53.875
0
LINE
8
back_outsideCutPath
10
605.05
20
53.875
11
605.05
21
52.625
0
LINE
8
back_outsideCutPath
10
605.05
20
52.625
11
607
21
52.625
0
LINE
8
back_outsideCutPath
10
607
20
52.625
11
607
21
56.125
0
LINE
8
back_outsideCutPath
10
607
20
56.125
11
610
21
56.125
0
LINE
8
back_outsideCutPath
10
610
20
56.125
11
610
21
66
0
LINE
8
back_outsideCutPath
10
610
20
66
11
559.1666667
21
66
0
LINE
8
back_outsideCutPath
10
559.1666667
20
66
11
559.1666667
21
63
0
LINE
8
back_outsideCutPath
10
559.1666667
20
63
11
509.9583333
21
63
0
LINE
8
back_outsideCutPath
10
509.9583333
20
63
11
509.9583333
21
61.05
0
LINE
8
back_outsideCutPath
10
509.9583333
20
61.05
11
511.2083333
21
61.05
0
LINE
8
back_outsideCutPath
10
511.2083333
20
61.05
11
511.2083333
21
58.4
0
LINE
8
back_outsideCutPath
10
511.2083333
20
58.4
11
509.9583333
21
58.4
0
LINE
8
back_outsideCutPath
10
509.9583333
20
58.4
11
509.9583333
21
55.75
0
LINE
8
back_outsideCutPath
10
509.9583333
20
55.75
11
506.7083333
21
55.75
0
LINE
8
back_outsideCutPath
10
506.7083333
20
55.75
11
506.7083333
21
58.4
0
LINE
8
back_outsideCutPath
10
506.7083333
20
58.4
11
505.4583333
21
58.4
0
LINE
8
back_outsideCutPath
10
505.4583333
20
58.4
11
505.4583333
21
61.05
0
LINE
8
back_outsideCutPath
10
505.4583333
20
61.05
11
506.7083333
21
61.05
0
LINE
8
back_outsideCutPath
10
506.7083333
20
61.05
11
506.7083333
21
63
0
LINE
8
back_outsideCutPath
10
506.7083333
20
63
11
457.5
21
63
0
LINE
8
back_outsideCutPath
10
457.5
20
63
11
457.5
21
66
0
LINE
8
back_outsideCutPath
10
457.5
20
66
11
355.8333333
21
66
0
LINE
8
back_outsideCutPath
10
355.8333333
20
66
11
355.8333333
21
63
0
LINE
8
back_outsideCutPath
10
355.8333333
20
63
11
306.625
21
63
0
LINE
8
back_outsideCutPath
10
306.625
20
63
11
306.625
21
61.05
0
LINE
8
back_outsideCutPath
10
306.625
20
61.05
11
307.875
21
61.05
0
LINE
8
back_outsideCutPath
10
307.875
20
61.05
11
307.875
21
58.4
0
LINE
8
back_outsideCutPath
10
307.875
20
58.4
11
306.625
21
58.4
0
LINE
8
back_outsideCutPath
10
306.625
20
58.4
11
306.625
21
55.75
0
LINE
8
back_outsideCutPath
10
306.625
20
55.75
11
303.375
21
55.75
0
LINE
8
back_outsideCutPath
10
303.375
20
55.75
11
303.375
21
58.4
0
LINE
8
back_outsideCutPath
10
303.375
20
58.4
11
302.125
21
58.4
0
LINE
8
back_outsideCutPath
10
302.125
20
58.4
11
302.125
21
61.05
0
LINE
8
back_outsideCutPath
10
302.125
20
61.05
11
303.375
21
61.05
0
LINE
8
back_outsideCutPath
10
303.375
20
61.05
11
303.375
21
63
0
LINE
8
back_outsideCutPath
10
303.375
20
63
11
254.1666667
21
63
0
LINE
8
back_outsideCutPath
10
254.1666667
20
63
11
254.1666667
21
66
0
LINE
8
back_outsideCutPath
10
254.1666667
20
66
11
152.5
21
66
0
LINE
8
back_outsideCutPath
10
152.5
20
66
11
152.5
21
63
0
LINE
8
back_outsideCutPath
10
152.5
20
63
11
103.2916667
21
63
0
LINE
8
back_outsideCutPath
10
103.2916667
20
63
11
103.2916667
21
61.05
0
LINE
8
back_outsideCutPath
10
103.2916667
20
61.05
11
104.5416667
21
61.05
0
LINE
8
back_outsideCutPath
10
104.5416667
20
61.05
11
104.5416667
21
58.4
0
LINE
8
back_outsideCutPath
10
104.5416667
20
58.4
11
103.2916667
21
58.4
0
LINE
8
back_outsideCutPath
10
103.2916667
20
58.4
11
103.2916667
21
55.75
0
LINE
8
back_outsideCutPath
10
103.2916667
20
55.75
11
100.0416667
21
55.75
0
LINE
8
back_outsideCutPath
10
100.0416667
20
55.75
11
100.0416667
21
58.4
0
LINE
8
back_outsideCutPath
10
100.0416667
20
58.4
11
98.7916667
21
58.4
0
LINE
8
back_outsideCutPath
10
98.7916667
20
58.4
11
98.7916667
21
61.05
0
LINE
8
back_outsideCutPath
10
98.7916667
20
61.05
11
100.0416667
21
61.05
0
LINE
8
back_outsideCutPath
10
100.0416667
20
61.05
11
100.0416667
21
63
0
LINE
8
back_outsideCutPath
10
100.0416667
20
63
11
50.8333333
21
63
0
LINE
8
back_outsideCutPath
10
50.8333333
20
63
11
50.8333333
21
66
0
LINE
8
back_outsideCutPath
10
50.8333333
20
66
11
0
21
66
0
LINE
8
back_labelLayer
10
299.2666016
20
49.163119
11
299.2314453
21
49.163119
0
LINE
8
back_labelLayer
10
299.2314453
20
49.163119
11
299.1289063
21
48.7500331
0
LINE
8
back_labelLayer
10
299.1289063
20
48.7500331
11
298.7802734
21
48.7500331
0
LINE
8
back_labelLayer
10
298.7802734
20
48.7500331
11
298.7802734
21
53.3086268
0
LINE
8
back_labelLayer
10
298.7802734
20
53.3086268
11
299.2666016
21
53.3086268
0
LINE
8
back_labelLayer
10
299.2666016
20
53.3086268
11
299.2666016
21
52.201205
0
LINE
8
back_labelLayer
10
299.2431641
20
51.5332362
11
299.2666016
21
51.5332362
0
ARC
8
back_labelLayer
10
300.2890033
20
50.527389
40
1.4863876
50
74.2393332
51
90.5623791
0
ARC
8
back_labelLayer
10
300.3872886
20
50.8879526
40
1.1126883
50
38.5631023
51
74.067041
0
ARC
8
back_labelLayer
10
300.1343566
20
50.6912827
40
1.4330662
50
16.4709315
51
38.4075268
0
ARC
8
back_labelLayer
10
299.4056997
20
50.4627969
40
2.1966396
50
5.1338523
51
16.7973489
0
ARC
8
back_labelLayer
10
298.4858498
20
50.3650842
40
3.1215791
50
359.8778919
51
5.4093574
0
ARC
8
back_labelLayer
10
298.756021
20
50.3416086
40
2.8514505
50
350.656267
51
0.3380336
0
ARC
8
back_labelLayer
10
299.7500836
20
50.1725277
40
1.8431337
50
335.8305992
51
350.8255177
0
ARC
8
back_labelLayer
10
300.1873493
20
49.9837982
40
1.3669435
50
321.3161558
51
335.5436048
0
ARC
8
back_labelLayer
10
300.3545222
20
49.8475783
40
1.1513082
50
274.0640204
51
321.4080868
0
ARC
8
back_labelLayer
10
300.2766449
20
50.3408455
40
1.6494077
50
269.922507
51
275.5482672
0
ARC
8
back_labelLayer
10
300.2662121
20
50.166548
40
1.4751314
50
255.7754994
51
270.3185769
0
ARC
8
back_labelLayer
10
300.2241118
20
49.9795139
40
1.2834971
50
245.9801401
51
255.545649
0
ARC
8
back_labelLayer
10
300.1425794
20
49.789911
40
1.0771283
50
215.5850097
51
245.836178
0
ARC
8
back_labelLayer
10
289.1269011
20
52.1926386
40
10.1397041
50
358.1123158
51
0.0484056
0
ARC
8
back_labelLayer
10
291.949092
20
52.0978895
40
7.315924
50
355.7238445
51
358.125894
0
ARC
8
back_labelLayer
10
293.2045854
20
52.0114938
40
6.0574883
50
355.4716062
51
355.6532911
0
ARC
8
back_labelLayer
10
300.1735824
20
50.9007739
40
1.1057228
50
95.1835189
51
145.1108942
0
ARC
8
back_labelLayer
10
300.2707727
20
50.3526916
40
1.6610174
50
89.8743941
51
96.8144856
0
ARC
8
back_labelLayer
10
300.193921
20
50.2398916
40
1.3666247
50
89.5731753
51
100.7324508
0
ARC
8
back_labelLayer
10
300.0927532
20
50.7510276
40
0.8456006
50
100.4470006
51
119.6700663
0
ARC
8
back_labelLayer
10
299.9989382
20
50.9264255
40
0.6467822
50
120.1402695
51
142.4248784
0
ARC
8
back_labelLayer
10
300.1541438
20
50.8237519
40
0.8325073
50
143.3382119
51
161.2559964
0
ARC
8
back_labelLayer
10
300.8031954
20
50.5933174
40
1.521214
50
160.8926572
51
171.2334117
0
ARC
8
back_labelLayer
10
301.8867023
20
50.4185216
40
2.6187144
50
171.0667578
51
177.8456456
0
ARC
8
back_labelLayer
10
303.0138087
20
50.3612085
40
3.7472081
50
177.6177785
51
180.0424604
0
ARC
8
back_labelLayer
10
302.482177
20
50.3458772
40
3.2155999
50
179.7763053
51
185.707493
0
ARC
8
back_labelLayer
10
301.2143626
20
50.2152486
40
1.9410835
50
185.5924635
51
194.2050267
0
ARC
8
back_labelLayer
10
300.402233
20
50.0044744
40
1.1020748
50
193.9430483
51
208.0218016
0
ARC
8
back_labelLayer
10
300.0736463
20
49.8373156
40
0.7335077
50
208.5537421
51
217.5605273
0
ARC
8
back_labelLayer
10
300.0468698
20
49.8261774
40
0.7055317
50
218.1690886
51
253.8046816
0
ARC
8
back_labelLayer
10
300.1777318
20
50.229638
40
1.1295571
50
253.1382176
51
266.8482795
0
ARC
8
back_labelLayer
10
300.21443
20
50.6623954
40
1.5637303
50
266.3774579
51
270.0509403
0
ARC
8
back_labelLayer
10
300.2261945
20
50.0681023
40
0.9694919
50
269.3868853
51
285.8630339
0
ARC
8
back_labelLayer
10
300.298222
20
49.8077847
40
0.6994022
50
286.0162585
51
326.8497502
0
ARC
8
back_labelLayer
10
299.950583
20
50.0380837
40
1.1163984
50
326.7104752
51
343.6661707
0
ARC
8
back_labelLayer
10
299.2998173
20
50.2369356
40
1.7968395
50
343.4171607
51
353.6369203
0
ARC
8
back_labelLayer
10
298.3168937
20
50.3535646
40
2.7866425
50
353.4935184
51
0.2205433
0
ARC
8
back_labelLayer
10
298.2302853
20
50.3759212
40
2.8732539
50
359.768079
51
6.3095564
0
ARC
8
back_labelLayer
10
299.3125674
20
50.5001215
40
1.7838837
50
6.1648603
51
16.0396119
0
ARC
8
back_labelLayer
10
300.0097799
20
50.7055899
40
1.0570527
50
15.777887
51
32.0151777
0
ARC
8
back_labelLayer
10
300.2272705
20
50.8301451
40
0.8066667
50
32.7034494
51
35.5246317
0
ARC
8
back_labelLayer
10
300.3067025
20
50.8866086
40
0.7092116
50
35.5408282
51
79.8011391
0
ARC
8
back_labelLayer
10
300.2114633
20
50.481729
40
1.1247734
50
78.6781359
51
90.375008
0
LINE
8
back_labelLayer
10
304.7919922
20
48.7500331
11
304.4316406
21
48.7500331
0
LINE
8
back_labelLayer
10
304.4316406
20
48.7500331
11
304.3349609
21
49.2070643
0
LINE
8
back_labelLayer
10
304.3349609
20
49.2070643
11
304.3115234
21
49.2070643
0
LINE
8
back_labelLayer
10
303.7724609
20
50.6572597
11
304.3173828
21
50.6748378
0
LINE
8
back_labelLayer
10
304.3173828
20
50.6748378
11
304.3173828
21
50.8740565
0
LINE
8
back_labelLayer
10
302.7265625
20
51.366244
11
302.5771484
21
51.7383143
0
LINE
8
back_labelLayer
10
304.7919922
20
50.9414393
11
304.7919922
21
48.7500331
0
LINE
8
back_labelLayer
10
304.3056641
20
50.0390956
11
304.3056641
21
50.3291347
0
LINE
8
back_labelLayer
10
304.3056641
20
50.3291347
11
303.8193359
21
50.3086268
0
ARC
8
back_labelLayer
10
302.7291882
20
50.456396
40
2.0160889
50
314.7445539
51
321.7071679
0
ARC
8
back_labelLayer
10
303.2245188
20
49.9531048
40
1.3099408
50
304.8485516
51
314.8530606
0
ARC
8
back_labelLayer
10
303.4624562
20
49.614427
40
0.8960418
50
294.3932937
51
304.7370788
0
ARC
8
back_labelLayer
10
303.381172
20
49.8250407
40
1.1214996
50
281.2979111
51
293.7314316
0
ARC
8
back_labelLayer
10
303.2737063
20
50.3458706
40
1.6532937
50
272.9335459
51
281.4139103
0
ARC
8
back_labelLayer
10
303.2380921
20
50.8798794
40
2.1884408
50
269.9538175
51
273.1492318
0
ARC
8
back_labelLayer
10
303.2257861
20
50.1838844
40
1.4924823
50
258.671988
51
270.4047055
0
ARC
8
back_labelLayer
10
303.1221139
20
49.6879601
40
0.9858646
50
238.3272538
51
258.9184269
0
ARC
8
back_labelLayer
10
303.0506893
20
49.557649
40
0.837494
50
227.7691066
51
237.8048863
0
ARC
8
back_labelLayer
10
303.0283271
20
49.526434
40
0.7993632
50
192.0827223
51
227.4521272
0
ARC
8
back_labelLayer
10
303.4404431
20
49.6280264
40
1.2236848
50
179.5457232
51
192.6949867
0
ARC
8
back_labelLayer
10
303.0575928
20
49.6723334
40
0.8415077
50
115.4904586
51
182.3568144
0
ARC
8
back_labelLayer
10
303.4790312
20
48.8993264
40
1.7213007
50
101.3568462
51
117.0798338
0
ARC
8
back_labelLayer
10
303.8174813
20
47.3177128
40
3.3386553
50
92.4696228
51
101.706484
0
ARC
8
back_labelLayer
10
303.9147533
20
45.9087123
40
4.7506786
50
91.7163803
51
92.9094538
0
ARC
8
back_labelLayer
10
302.9205367
20
50.8815318
40
1.3968661
50
359.693383
51
8.0035374
0
ARC
8
back_labelLayer
10
303.448958
20
50.9585115
40
0.8628779
50
7.8272085
51
20.6041894
0
ARC
8
back_labelLayer
10
303.7479672
20
51.072898
40
0.5427444
50
20.4093846
51
41.4479619
0
ARC
8
back_labelLayer
10
303.7921457
20
51.0971816
40
0.4936794
50
42.729541
51
71.0380098
0
ARC
8
back_labelLayer
10
303.6881316
20
50.8143661
40
0.7949723
50
70.5715928
51
83.9927897
0
ARC
8
back_labelLayer
10
303.6384421
20
50.4107134
40
1.2016298
50
83.6507733
51
90.1753032
0
ARC
8
back_labelLayer
10
303.6471597
20
50.0290009
40
1.5833854
50
90.4484916
51
103.766521
0
ARC
8
back_labelLayer
10
303.8333513
20
49.2438189
40
2.3903267
50
103.6226139
51
112.4320078
0
ARC
8
back_labelLayer
10
304.1525718
20
48.4378282
40
3.2571647
50
112.2123108
51
115.9640381
0
ARC
8
back_labelLayer
10
303.6414023
20
49.7646684
40
2.2423012
50
106.3568417
51
118.3349862
0
ARC
8
back_labelLayer
10
303.7368561
20
49.4698425
40
2.5520904
50
104.5161349
51
106.549062
0
ARC
8
back_labelLayer
10
303.6668717
20
49.7614596
40
2.2522471
50
90.0714645
51
104.65209
0
ARC
8
back_labelLayer
10
303.6757087
20
49.959735
40
2.054003
50
81.5680266
51
90.3248678
0
ARC
8
back_labelLayer
10
303.7944658
20
50.7334247
40
1.2712688
50
68.2273739
51
81.749363
0
ARC
8
back_labelLayer
10
303.959879
20
51.144989
40
0.827709
50
47.8683148
51
68.2934084
0
ARC
8
back_labelLayer
10
303.9867249
20
51.1985927
40
0.7701143
50
19.2331074
51
46.6741003
0
ARC
8
back_labelLayer
10
303.5395089
20
51.0322267
40
1.2472107
50
6.3379165
51
19.6815716
0
ARC
8
back_labelLayer
10
302.8784215
20
50.9480312
40
1.9135819
50
359.8026292
51
6.6583584
0
ARC
8
back_labelLayer
10
303.3428419
20
50.4317715
40
1.3390011
50
269.5791963
51
282.0413667
0
ARC
8
back_labelLayer
10
303.440511
20
49.9985498
40
0.8949506
50
281.7121456
51
306.4593398
0
ARC
8
back_labelLayer
10
303.4838326
20
49.9273101
40
0.8119447
50
306.9880106
51
313.8559704
0
ARC
8
back_labelLayer
10
303.4786677
20
49.9258479
40
0.8144826
50
314.1892323
51
347.4269576
0
ARC
8
back_labelLayer
10
303.0706712
20
50.0280896
40
1.2350001
50
346.9177575
51
0.2824209
0
ARC
8
back_labelLayer
10
302.7160522
20
50.0391572
40
1.5896119
50
359.820498
51
359.997781
0
ARC
8
back_labelLayer
10
303.9350153
20
46.7396334
40
3.5708677
50
91.8564397
51
96.4478549
0
ARC
8
back_labelLayer
10
303.7739799
20
48.133107
40
2.1681273
50
96.3545387
51
102.9953595
0
ARC
8
back_labelLayer
10
303.5553882
20
49.0618367
40
1.2140359
50
102.7996039
51
113.2432709
0
ARC
8
back_labelLayer
10
303.3751871
20
49.4928151
40
0.7469365
50
113.588768
51
121.6804291
0
ARC
8
back_labelLayer
10
303.2499781
20
49.6835084
40
0.5189405
50
120.9734499
51
172.4179485
0
ARC
8
back_labelLayer
10
303.4946805
20
49.6346295
40
0.7681229
50
171.21215
51
180.2059121
0
ARC
8
back_labelLayer
10
303.4215582
20
49.6261274
40
0.6950194
50
179.5266637
51
192.7787847
0
ARC
8
back_labelLayer
10
303.1864466
20
49.5691352
40
0.4531396
50
192.3265193
51
222.0579379
0
ARC
8
back_labelLayer
10
303.168935
20
49.5586544
40
0.433135
50
222.580338
51
229.2549939
0
ARC
8
back_labelLayer
10
303.2280523
20
49.6347595
40
0.529402
50
229.7836663
51
254.2724353
0
ARC
8
back_labelLayer
10
303.306762
20
49.897053
40
0.8032244
50
253.939691
51
266.453295
0
ARC
8
back_labelLayer
10
303.3318839
20
50.1866897
40
1.0938837
50
266.0784588
51
270.058868
0
LINE
8
back_labelLayer
10
307.9355469
20
51.8525722
11
307.7861328
21
51.4394862
0
LINE
8
back_labelLayer
10
307.8886719
20
49.2890956
11
307.8886719
21
48.8584315
0
ARC
8
back_labelLayer
10
307.0616366
20
50.5089738
40
1.8176007
50
256.4243553
51
270.4889833
0
ARC
8
back_labelLayer
10
306.9163924
20
49.9421025
40
1.2325011
50
221.7976325
51
256.8020696
0
ARC
8
back_labelLayer
10
307.0570468
20
50.0460259
40
1.4067185
50
196.0166737
51
221.1348958
0
ARC
8
back_labelLayer
10
307.7639431
20
50.2620898
40
2.1458272
50
183.5913445
51
196.3539579
0
ARC
8
back_labelLayer
10
308.5557894
20
50.331853
40
2.9405567
50
179.9387984
51
183.9815308
0
ARC
8
back_labelLayer
10
308.2985348
20
50.3522714
40
2.683356
50
169.8978172
51
180.3689133
0
ARC
8
back_labelLayer
10
307.3644101
20
50.5250714
40
1.7334151
50
153.0875481
51
170.105116
0
ARC
8
back_labelLayer
10
307.0099809
20
50.6944245
40
1.3407498
50
138.6550665
51
152.6852996
0
ARC
8
back_labelLayer
10
306.9438208
20
50.7426369
40
1.259254
50
101.4913094
51
138.3133865
0
ARC
8
back_labelLayer
10
307.0956865
20
50.1105927
40
1.9090207
50
89.5891599
51
102.1788111
0
ARC
8
back_labelLayer
10
307.1073655
20
49.8249093
40
2.1946559
50
77.7702188
51
89.9475373
0
ARC
8
back_labelLayer
10
307.0658019
20
49.5956434
40
2.4275365
50
74.6797347
51
77.9577563
0
ARC
8
back_labelLayer
10
307.290207
20
50.4086337
40
1.5841465
50
70.0945478
51
74.7385864
0
ARC
8
back_labelLayer
10
307.5036275
20
50.993515
40
0.9615467
50
63.5035822
51
70.186066
0
ARC
8
back_labelLayer
10
307.6103795
20
51.2164251
40
0.7144346
50
62.9260972
51
63.1899667
0
ARC
8
back_labelLayer
10
306.9872303
20
49.4289299
40
2.1634653
50
68.3294057
51
74.8831827
0
ARC
8
back_labelLayer
10
306.8731094
20
49.0242822
40
2.5838761
50
74.7801905
51
77.4498518
0
ARC
8
back_labelLayer
10
306.9929073
20
49.5866082
40
2.0089618
50
77.2999898
51
81.7344942
0
ARC
8
back_labelLayer
10
307.0803188
20
50.1956836
40
1.3936474
50
81.6910216
51
87.5078809
0
ARC
8
back_labelLayer
10
307.0971879
20
50.5111284
40
1.077772
50
87.6746453
51
89.9751021
0
ARC
8
back_labelLayer
10
307.0735479
20
50.5104197
40
1.07875
50
88.7194257
51
112.5667287
0
ARC
8
back_labelLayer
10
306.9968956
20
50.7638546
40
0.8157334
50
114.4265898
51
161.6632749
0
ARC
8
back_labelLayer
10
307.7583593
20
50.4658093
40
1.6328741
50
160.1418329
51
175.1368075
0
ARC
8
back_labelLayer
10
308.80646
20
50.3481189
40
2.6873292
50
174.5310309
51
180.1549064
0
ARC
8
back_labelLayer
10
308.4743925
20
50.3286924
40
2.3552832
50
179.7041642
51
188.0743508
0
ARC
8
back_labelLayer
10
307.6260388
20
50.2045703
40
1.4979104
50
187.9315389
51
200.3885612
0
ARC
8
back_labelLayer
10
307.1673356
20
50.0346441
40
1.0087447
50
200.4183663
51
216.6392824
0
ARC
8
back_labelLayer
10
306.9750351
20
49.8971734
40
0.772415
50
216.969559
51
261.3103085
0
ARC
8
back_labelLayer
10
307.059901
20
50.2928258
40
1.1765948
50
260.135895
51
270.2692257
0
ARC
8
back_labelLayer
10
307.0559845
20
51.1520447
40
2.0358226
50
270.2658247
51
286.2891684
0
ARC
8
back_labelLayer
10
306.9322452
20
51.6135337
40
2.5135163
50
286.0459739
51
292.3654872
0
ARC
8
back_labelLayer
10
307.2618207
20
50.0915976
40
1.3833441
50
282.0343953
51
296.9454456
0
ARC
8
back_labelLayer
10
307.1195506
20
50.7327552
40
2.0400813
50
272.5980517
51
282.1878166
0
ARC
8
back_labelLayer
10
307.0787578
20
51.3583
40
2.6668611
50
269.9654229
51
272.8643616
0
LINE
8
back_labelLayer
10
309.1074219
20
50.3935878
11
309.1308594
21
50.3935878
0
LINE
8
back_labelLayer
10
309.5146484
20
50.8623378
11
310.5517578
21
51.9609706
0
LINE
8
back_labelLayer
10
310.5517578
20
51.9609706
11
311.1289063
21
51.9609706
0
LINE
8
back_labelLayer
10
311.1289063
20
51.9609706
11
309.828125
21
50.5928065
0
LINE
8
back_labelLayer
10
309.828125
20
50.5928065
11
311.2197266
21
48.7500331
0
LINE
8
back_labelLayer
10
311.2197266
20
48.7500331
11
310.6308594
21
48.7500331
0
LINE
8
back_labelLayer
10
310.6308594
20
48.7500331
11
309.4970703
21
50.2676112
0
LINE
8
back_labelLayer
10
309.4970703
20
50.2676112
11
309.1308594
21
49.951205
0
LINE
8
back_labelLayer
10
309.1308594
20
49.951205
11
309.1308594
21
48.7500331
0
LINE
8
back_labelLayer
10
309.1308594
20
48.7500331
11
308.6503906
21
48.7500331
0
LINE
8
back_labelLayer
10
308.6503906
20
48.7500331
11
308.6503906
21
53.3086268
0
LINE
8
back_labelLayer
10
308.6503906
20
53.3086268
11
309.1308594
21
53.3086268
0
LINE
8
back_labelLayer
10
309.1308594
20
53.3086268
11
309.1308594
21
50.8916347
0
ARC
8
back_labelLayer
10
311.4805428
20
48.7303883
40
2.8787575
50
142.3232675
51
144.7076206
0
ARC
8
back_labelLayer
10
313.0137534
20
47.5477935
40
4.8150592
50
140.4330406
51
142.3365541
0
ARC
8
back_labelLayer
10
315.0121943
20
45.9027167
40
7.4035008
50
139.2798916
51
140.4702502
0
ARC
8
back_labelLayer
10
317.320813
20
43.9174747
40
10.4483169
50
138.3416634
51
139.2877607
0
ARC
8
back_labelLayer
10
305.889943
20
50.8976996
40
3.2409221
50
358.2739698
51
359.892778
0
ARC
8
back_labelLayer
10
303.3690846
20
50.9679478
40
5.7627554
50
357.5041591
51
358.3307699
0
ARC
8
back_labelLayer
10
299.5961054
20
51.1345979
40
9.5394127
50
356.632413
51
357.4910017
0
ARC
8
back_labelLayer
10
293.3210406
20
51.5005776
40
15.8251407
50
356.0329296
51
356.6442156
0
ARC
8
back_labelLayer
10
290.4654793
20
51.6908458
40
18.687025
50
356.0193107
51
356.0566743
0
LINE
8
right_outsideCutPath
10
616
20
66
11
616
21
56.125
0
LINE
8
right_outsideCutPath
10
616
20
56.125
11
613
21
56.125
0
LINE
8
right_outsideCutPath
10
613
20
56.125
11
613
21
52.625
0
LINE
8
right_outsideCutPath
10
613
20
52.625
11
616.25
21
52.625
0
LINE
8
right_outsideCutPath
10
616.25
20
52.625
11
616.25
21
51
0
LINE
8
right_outsideCutPath
10
616.25
20
51
11
616.25
21
51
0
LINE
8
right_outsideCutPath
10
616.25
20
51
11
616.25
21
49.375
0
LINE
8
right_outsideCutPath
10
616.25
20
49.375
11
613
21
49.375
0
LINE
8
right_outsideCutPath
10
613
20
49.375
11
613
21
45.875
0
LINE
8
right_outsideCutPath
10
613
20
45.875
11
616
21
45.875
0
LINE
8
right_outsideCutPath
10
616
20
45.875
11
616
21
36
0
LINE
8
right_outsideCutPath
10
616
20
36
11
633
21
36
0
LINE
8
right_outsideCutPath
10
633
20
36
11
633
21
39
0
LINE
8
right_outsideCutPath
10
633
20
39
11
651.375
21
39
0
LINE
8
right_outsideCutPath
10
651.375
20
39
11
651.375
21
40.95
0
LINE
8
right_outsideCutPath
10
651.375
20
40.95
11
650.125
21
40.95
0
LINE
8
right_outsideCutPath
10
650.125
20
40.95
11
650.125
21
43.6
0
LINE
8
right_outsideCutPath
10
650.125
20
43.6
11
651.375
21
43.6
0
LINE
8
right_outsideCutPath
10
651.375
20
43.6
11
651.375
21
46.25
0
LINE
8
right_outsideCutPath
10
651.375
20
46.25
11
654.625
21
46.25
0
LINE
8
right_outsideCutPath
10
654.625
20
46.25
11
654.625
21
43.6
0
LINE
8
right_outsideCutPath
10
654.625
20
43.6
11
655.875
21
43.6
0
LINE
8
right_outsideCutPath
10
655.875
20
43.6
11
655.875
21
40.95
0
LINE
8
right_outsideCutPath
10
655.875
20
40.95
11
654.625
21
40.95
0
LINE
8
right_outsideCutPath
10
654.625
20
40.95
11
654.625
21
39
0
LINE
8
right_outsideCutPath
10
654.625
20
39
11
673
21
39
0
LINE
8
right_outsideCutPath
10
673
20
39
11
673
21
36
0
LINE
8
right_outsideCutPath
10
673
20
36
11
713
21
36
0
LINE
8
right_outsideCutPath
10
713
20
36
11
713
21
39
0
LINE
8
right_outsideCutPath
10
713
20
39
11
731.375
21
39
0
LINE
8
right_outsideCutPath
10
731.375
20
39
11
731.375
21
40.95
0
LINE
8
right_outsideCutPath
10
731.375
20
40.95
11
730.125
21
40.95
0
LINE
8
right_outsideCutPath
10
730.125
20
40.95
11
730.125
21
43.6
0
LINE
8
right_outsideCutPath
10
730.125
20
43.6
11
731.375
21
43.6
0
LINE
8
right_outsideCutPath
10
731.375
20
43.6
11
731.375
21
46.25
0
LINE
8
right_outsideCutPath
10
731.375
20
46.25
11
734.625
21
46.25
0
LINE
8
right_outsideCutPath
10
734.625
20
46.25
11
734.625
21
43.6
0
LINE
8
right_outsideCutPath
10
734.625
20
43.6
11
735.875
21
43.6
0
LINE
8
right_outsideCutPath
10
735.875
20
43.6
11
735.875
21
40.95
0
LINE
8
right_outsideCutPath
10
735.875
20
40.95
11
734.625
21
40.95
0
LINE
8
right_outsideCutPath
10
734.625
20
40.95
11
734.625
21
39
0
LINE
8
right_outsideCutPath
10
734.625
20
39
11
753
21
39
0
LINE
8
right_outsideCutPath
10
753
20
39
11
753
21
36
0
LINE
8
right_outsideCutPath
10
753
20
36
11
793
21
36
0
LINE
8
right_outsideCutPath
10
793
20
36
11
793
21
39
0
LINE
8
right_outsideCutPath
10
793
20
39
11
811.375
21
39
0
LINE
8
right_outsideCutPath
10
811.375
20
39
11
811.375
21
40.95
0
LINE
8
right_outsideCutPath
10
811.375
20
40.95
11
810.125
21
40.95
0
LINE
8
right_outsideCutPath
10
810.125
20
40.95
11
810.125
21
43.6
0
LINE
8
right_outsideCutPath
10
810.125
20
43.6
11
811.375
21
43.6
0
LINE
8
right_outsideCutPath
10
811.375
20
43.6
11
811.375
21
46.25
0
LINE
8
right_outsideCutPath
10
811.375
20
46.25
11
814.625
21
46.25
0
LINE
8
right_outsideCutPath
10
814.625
20
46.25
11
814.625
21
43.6
0
LINE
8
right_outsideCutPath
10
814.625
20
43.6
11
815.875
21
43.6
0
LINE
8
right_outsideCutPath
10
815.875
20
43.6
11
815.875
21
40.95
0
LINE
8
right_outsideCutPath
10
815.875
20
40.95
11
814.625
21
40.95
0
LINE
8
right_outsideCutPath
10
814.625
20
40.95
11
814.625
21
39
0
LINE
8
right_outsideCutPath
10
814.625
20
39
11
833
21
39
0
LINE
8
right_outsideCutPath
10
833
20
39
11
833
21
36
0
LINE
8
right_outsideCutPath
10
833
20
36
11
850
21
36
0
LINE
8
right_outsideCutPath
10
850
20
36
11
850
21
45.875
0
LINE
8
right_outsideCutPath
10
850
20
45.875
11
853
21
45.875
0
LINE
8
right_outsideCutPath
10
853
20
45.875
11
853
21
49.375
0
LINE
8
right_outsideCutPath
10
853
20
49.375
11
849.75
21
49.375
0
LINE
8
right_outsideCutPath
10
849.75
20
49.375
11
849.75
21
51
0
LINE
8
right_outsideCutPath
10
849.75
20
51
11
849.75
21
51
0
LINE
8
right_outsideCutPath
10
849.75
20
51
11
849.75
21
52.625
0
LINE
8
right_outsideCutPath
10
849.75
20
52.625
11
853
21
52.625
0
LINE
8
right_outsideCutPath
10
853
20
52.625
11
853
21
56.125
0
LINE
8
right_outsideCutPath
10
853
20
56.125
11
850
21
56.125
0
LINE
8
right_outsideCutPath
10
850
20
56.125
11
850
21
66
0
LINE
8
right_outsideCutPath
10
850
20
66
11
833
21
66
0
LINE
8
right_outsideCutPath
10
833
20
66
11
833
21
63
0
LINE
8
right_outsideCutPath
10
833
20
63
11
814.625
21
63
0
LINE
8
right_outsideCutPath
10
814.625
20
63
11
814.625
21
61.05
0
LINE
8
right_outsideCutPath
10
814.625
20
61.05
11
815.875
21
61.05
0
LINE
8
right_outsideCutPath
10
815.875
20
61.05
11
815.875
21
58.4
0
LINE
8
right_outsideCutPath
10
815.875
20
58.4
11
814.625
21
58.4
0
LINE
8
right_outsideCutPath
10
814.625
20
58.4
11
814.625
21
55.75
0
LINE
8
right_outsideCutPath
10
814.625
20
55.75
11
811.375
21
55.75
0
LINE
8
right_outsideCutPath
10
811.375
20
55.75
11
811.375
21
58.4
0
LINE
8
right_outsideCutPath
10
811.375
20
58.4
11
810.125
21
58.4
0
LINE
8
right_outsideCutPath
10
810.125
20
58.4
11
810.125
21
61.05
0
LINE
8
right_outsideCutPath
10
810.125
20
61.05
11
811.375
21
61.05
0
LINE
8
right_outsideCutPath
10
811.375
20
61.05
11
811.375
21
63
0
LINE
8
right_outsideCutPath
10
811.375
20
63
11
793
21
63
0
LINE
8
right_outsideCutPath
10
793
20
63
11
793
21
66
0
LINE
8
right_outsideCutPath
10
793
20
66
11
753
21
66
0
LINE
8
right_outsideCutPath
10
753
20
66
11
753
21
63
0
LINE
8
right_outsideCutPath
10
753
20
63
11
734.625
21
63
0
LINE
8
right_outsideCutPath
10
734.625
20
63
11
734.625
21
61.05
0
LINE
8
right_outsideCutPath
10
734.625
20
61.05
11
735.875
21
61.05
0
LINE
8
right_outsideCutPath
10
735.875
20
61.05
11
735.875
21
58.4
0
LINE
8
right_outsideCutPath
10
735.875
20
58.4
11
734.625
21
58.4
0
LINE
8
right_outsideCutPath
10
734.625
20
58.4
11
734.625
21
55.75
0
LINE
8
right_outsideCutPath
10
734.625
20
55.75
11
731.375
21
55.75
0
LINE
8
right_outsideCutPath
10
731.375
20
55.75
11
731.375
21
58.4
0
LINE
8
right_outsideCutPath
10
731.375
20
58.4
11
730.125
21
58.4
0
LINE
8
right_outsideCutPath
10
730.125
20
58.4
11
730.125
21
61.05
0
LINE
8
right_outsideCutPath
10
730.125
20
61.05
11
731.375
21
61.05
0
LINE
8
right_outsideCutPath
10
731.375
20
61.05
11
731.375
21
63
0
LINE
8
right_outsideCutPath
10
731.375
20
63
11
713
21
63
0
LINE
8
right_outsideCutPath
10
713
20
63
11
713
21
66
0
LINE
8
right_outsideCutPath
10
713
20
66
11
673
21
66
0
LINE
8
right_outsideCutPath
10
673
20
66
11
673
21
63
0
LINE
8
right_outsideCutPath
10
673
20
63
11
654.625
21
63
0
LINE
8
right_outsideCutPath
10
654.625
20
63
11
654.625
21
61.05
0
LINE
8
right_outsideCutPath
10
654.625
20
61.05
11
655.875
21
61.05
0
LINE
8
right_outsideCutPath
10
655.875
20
61.05
11
655.875
21
58.4
0
LINE
8
right_outsideCutPath
10
655.875
20
58.4
11
654.625
21
58.4
0
LINE
8
right_outsideCutPath
10
654.625
20
58.4
11
654.625
21
55.75
0
LINE
8
right_outsideCutPath
10
654.625
20
55.75
11
651.375
21
55.75
0
LINE
8
right_outsideCutPath
10
651.375
20
55.75
11
651.375
21
58.4
0
LINE
8
right_outsideCutPath
10
651.375
20
58.4
11
650.125
21
58.4
0
LINE
8
right_outsideCutPath
10
650.125
20
58.4
11
650.125
21
61.05
0
LINE
8
right_outsideCutPath
10
650.125
20
61.05
11
651.375
21
61.05
0
LINE
8
right_outsideCutPath
10
651.375
20
61.05
11
651.375
21
63
0
LINE
8
right_outsideCutPath
10
651.375
20
63
11
633
21
63
0
LINE
8
right_outsideCutPath
10
633
20
63
11
633
21
66
0
LINE
8
right_outsideCutPath
10
633
20
66
11
616
21
66
0
LINE
8
right_labelLayer
10
728.6420898
20
52.675799
11
728.574707
21
52.2246271
0
LINE
8
right_labelLayer
10
727.2797852
20
51.1640802
11
727.2797852
21
49.441424
0
LINE
8
right_labelLayer
10
727.2797852
20
49.441424
11
726.793457
21
49.441424
0
LINE
8
right_labelLayer
10
726.793457
20
49.441424
11
726.793457
21
52.6523615
0
LINE
8
right_labelLayer
10
726.793457
20
52.6523615
11
727.1948242
21
52.6523615
0
LINE
8
right_labelLayer
10
727.1948242
20
52.6523615
11
727.2504883
21
52.0576349
0
LINE
8
right_labelLayer
10
727.2504883
20
52.0576349
11
727.2739258
21
52.0576349
0
ARC
8
right_labelLayer
10
728.2632905
20
50.4782714
40
2.2326894
50
84.9923143
51
90.1280485
0
ARC
8
right_labelLayer
10
728.3169126
20
51.0790528
40
1.6295208
50
78.4891262
51
85.0266149
0
ARC
8
right_labelLayer
10
728.1088058
20
50.1325224
40
2.1433539
50
77.4453821
51
81.6360842
0
ARC
8
right_labelLayer
10
728.2021876
20
50.7762215
40
1.4929184
50
81.5883484
51
87.1917083
0
ARC
8
right_labelLayer
10
728.2224673
20
51.1280137
40
1.140559
50
87.343391
51
89.9659779
0
ARC
8
right_labelLayer
10
728.2177551
20
51.4259267
40
0.842663
50
89.6335522
51
137.0880746
0
ARC
8
right_labelLayer
10
728.4245619
20
51.1933676
40
1.1528498
50
135.620924
51
138.8377333
0
ARC
8
right_labelLayer
10
728.3942565
20
51.222948
40
1.1105672
50
138.957568
51
174.5422119
0
ARC
8
right_labelLayer
10
728.7559731
20
51.1663529
40
1.4761897
50
173.690817
51
180.0882094
0
ARC
8
right_labelLayer
10
728.7048078
20
51.2514827
40
1.6423473
50
139.4139472
51
150.6032957
0
ARC
8
right_labelLayer
10
728.4103362
20
51.5038124
40
1.2545538
50
124.232174
51
139.4160736
0
ARC
8
right_labelLayer
10
728.2528801
20
51.7414909
40
0.9694794
50
89.6796416
51
124.4405817
0
LINE
8
right_labelLayer
10
729.7290039
20
52.6523615
11
729.7290039
21
49.441424
0
LINE
8
right_labelLayer
10
729.7290039
20
49.441424
11
729.2426758
21
49.441424
0
LINE
8
right_labelLayer
10
729.2426758
20
49.441424
11
729.2426758
21
52.6523615
0
LINE
8
right_labelLayer
10
729.2426758
20
52.6523615
11
729.7290039
21
52.6523615
0
ARC
8
right_labelLayer
10
729.74055
20
53.5258128
40
0.5389001
50
170.8450285
51
180.3544893
0
ARC
8
right_labelLayer
10
729.5388078
20
53.5595472
40
0.3343628
50
155.9677402
51
171.0517628
0
ARC
8
right_labelLayer
10
729.4410999
20
53.6028952
40
0.2274711
50
133.7880972
51
155.917063
0
ARC
8
right_labelLayer
10
729.4771746
20
53.5630122
40
0.2812306
50
92.6445565
51
133.4710355
0
ARC
8
right_labelLayer
10
729.4885703
20
53.4735076
40
0.3712367
50
89.9692443
51
93.7641536
0
ARC
8
right_labelLayer
10
729.4932098
20
53.5582401
40
0.2865385
50
46.3708394
51
90.8879008
0
ARC
8
right_labelLayer
10
729.5217279
20
53.5876813
40
0.2455515
50
17.7251268
51
46.4473664
0
ARC
8
right_labelLayer
10
729.3887417
20
53.5418863
40
0.3861796
50
4.9427601
51
18.1899944
0
ARC
8
right_labelLayer
10
729.219571
20
53.5235974
40
0.5563091
50
359.8847744
51
5.31818
0
ARC
8
right_labelLayer
10
729.2727032
20
53.5190617
40
0.5031873
50
349.834638
51
0.3890721
0
ARC
8
right_labelLayer
10
729.4558964
20
53.4848889
40
0.3168412
50
332.6322646
51
350.070575
0
ARC
8
right_labelLayer
10
729.5271957
20
53.4496829
40
0.2373427
50
313.615343
51
332.2675633
0
ARC
8
right_labelLayer
10
729.4928356
20
53.4809689
40
0.2837147
50
269.1788421
51
314.2807343
0
ARC
8
right_labelLayer
10
729.4855456
20
53.5061865
40
0.3089199
50
250.4998648
51
270.597957
0
ARC
8
right_labelLayer
10
729.4761974
20
53.4712318
40
0.2728647
50
225.1300787
51
249.900121
0
ARC
8
right_labelLayer
10
729.4615612
20
53.4550633
40
0.2510823
50
197.7934749
51
224.8941087
0
ARC
8
right_labelLayer
10
729.5985592
20
53.5020107
40
0.3958835
50
184.9925882
51
198.2040513
0
ARC
8
right_labelLayer
10
729.7758399
20
53.5212816
40
0.574181
50
179.8805517
51
185.3687495
0
LINE
8
right_labelLayer
10
732.277832
20
52.6523615
11
733.3881836
21
52.6523615
0
LINE
8
right_labelLayer
10
733.3881836
20
52.6523615
11
733.3881836
21
52.3447443
0
LINE
8
right_labelLayer
10
733.3881836
20
52.3447443
11
732.793457
21
52.2744318
0
LINE
8
right_labelLayer
10
731.6977539
20
49.9511896
11
732.2661133
21
49.9511896
0
LINE
8
right_labelLayer
10
732.1108398
20
49.5146661
11
731.527832
21
49.5146661
0
ARC
8
right_labelLayer
10
732.1737194
20
51.7839777
40
0.790329
50
29.4583093
51
38.3577343
0
ARC
8
right_labelLayer
10
731.8507268
20
51.5995944
40
1.1622423
50
23.1845739
51
29.5421401
0
ARC
8
right_labelLayer
10
731.5426495
20
51.4629742
40
1.4992325
50
21.2505024
51
23.3488555
0
ARC
8
right_labelLayer
10
732.0663895
20
51.6712633
40
0.9356209
50
6.8504346
51
20.9872455
0
ARC
8
right_labelLayer
10
731.8028576
20
51.6355322
40
1.2015401
50
359.8711523
51
7.0431979
0
ARC
8
right_labelLayer
10
731.8895701
20
51.6212383
40
1.1148847
50
342.5649545
51
0.5957358
0
ARC
8
right_labelLayer
10
732.0951884
20
51.564459
40
0.9017314
50
310.6097881
51
342.0923693
0
ARC
8
right_labelLayer
10
731.9798856
20
51.6985777
40
1.0786
50
284.9315743
51
310.622267
0
ARC
8
right_labelLayer
10
731.8355949
20
52.2041979
40
1.6043524
50
272.5335456
51
285.2579127
0
ARC
8
right_labelLayer
10
731.7984991
20
52.7109884
40
2.1123382
50
269.9691929
51
272.9311182
0
ARC
8
right_labelLayer
10
731.7938949
20
52.1616412
40
1.5629945
50
263.483732
51
270.1271417
0
ARC
8
right_labelLayer
10
731.7684557
20
51.9199437
40
1.3199732
50
259.4965691
51
263.3902218
0
ARC
8
right_labelLayer
10
731.9260015
20
49.8537287
40
0.8653987
50
117.3935227
51
128.4095833
0
ARC
8
right_labelLayer
10
731.7032141
20
50.1301114
40
0.5104231
50
128.0881882
51
147.1400337
0
ARC
8
right_labelLayer
10
731.5831884
20
50.2106579
40
0.3659069
50
147.5369119
51
180.2592786
0
ARC
8
right_labelLayer
10
731.4693249
20
50.2058871
40
0.252059
50
179.2919095
51
198.358019
0
ARC
8
right_labelLayer
10
731.4221301
20
50.1934837
40
0.2033831
50
199.2291172
51
239.5692103
0
ARC
8
right_labelLayer
10
731.4617669
20
50.2483926
40
0.2708786
50
238.222717
51
239.8425829
0
ARC
8
right_labelLayer
10
731.4924764
20
50.3117659
40
0.3411429
50
240.7301368
51
254.5027299
0
ARC
8
right_labelLayer
10
731.5855829
20
50.6326035
40
0.675205
50
254.1636393
51
262.2124525
0
ARC
8
right_labelLayer
10
731.6593408
20
51.1477577
40
1.1956068
50
262.0555495
51
267.2082528
0
ARC
8
right_labelLayer
10
731.6949631
20
51.8011867
40
1.8499991
50
267.091982
51
270.0864321
0
ARC
8
right_labelLayer
10
732.2767443
20
47.9604651
40
1.9907529
50
81.5744533
51
90.3059723
0
ARC
8
right_labelLayer
10
732.3859426
20
48.6726381
40
1.2702714
50
68.3671155
51
81.7399551
0
ARC
8
right_labelLayer
10
732.5285645
20
49.0371236
40
0.8788815
50
52.1879739
51
68.2501454
0
ARC
8
right_labelLayer
10
732.6283583
20
49.1715901
40
0.7114775
50
8.6201346
51
51.8982214
0
ARC
8
right_labelLayer
10
732.2786021
20
49.0975841
40
1.0685766
50
359.7430052
51
9.732662
0
ARC
8
right_labelLayer
10
732.2942566
20
49.0795568
40
1.0529945
50
340.5268827
51
0.720131
0
ARC
8
right_labelLayer
10
732.448969
20
49.0410347
40
0.8944203
50
302.9903424
51
339.5494761
0
ARC
8
right_labelLayer
10
732.2856824
20
49.2487298
40
1.1577824
50
303.1877059
51
304.1716509
0
ARC
8
right_labelLayer
10
732.1352059
20
49.5094675
40
1.458454
50
286.2542059
51
302.5279929
0
ARC
8
right_labelLayer
10
731.8597627
20
50.4180015
40
2.4077912
50
276.4939848
51
286.4953873
0
ARC
8
right_labelLayer
10
731.6879039
20
51.8546273
40
3.854645
50
269.7544863
51
276.6169901
0
ARC
8
right_labelLayer
10
731.6585503
20
50.7247331
40
2.7247457
50
262.563442
51
270.2699249
0
ARC
8
right_labelLayer
10
731.5250964
20
49.7355957
40
1.7266607
50
251.210205
51
262.7064262
0
ARC
8
right_labelLayer
10
731.3327439
20
49.1710123
40
1.1302097
50
235.9667715
51
251.2229191
0
ARC
8
right_labelLayer
10
731.12887
20
48.8801652
40
0.7751027
50
208.9036372
51
236.4231202
0
ARC
8
right_labelLayer
10
731.1475858
20
48.8723185
40
0.7878553
50
182.2079673
51
207.7461343
0
ARC
8
right_labelLayer
10
731.3859719
20
48.8961193
40
1.0270852
50
179.9786462
51
183.0223929
0
ARC
8
right_labelLayer
10
731.1023915
20
48.9095484
40
0.7436193
50
138.3916167
51
181.0052657
0
ARC
8
right_labelLayer
10
731.1809185
20
48.8389764
40
0.8491964
50
113.8121435
51
138.3496494
0
ARC
8
right_labelLayer
10
731.3298767
20
48.5173099
40
1.203638
50
102.2870749
51
114.1172096
0
ARC
8
right_labelLayer
10
731.283071
20
50.1526655
40
0.5047468
50
216.5861998
51
245.4968213
0
ARC
8
right_labelLayer
10
731.3553223
20
50.213964
40
0.5993292
50
215.4651484
51
217.1747492
0
ARC
8
right_labelLayer
10
731.2349723
20
50.1270359
40
0.4508726
50
182.1767699
51
215.3415994
0
ARC
8
right_labelLayer
10
731.3420157
20
50.1385267
40
0.5583242
50
179.9832885
51
182.937908
0
ARC
8
right_labelLayer
10
731.3398153
20
50.1433902
40
0.5561438
50
161.7225333
51
180.4842754
0
ARC
8
right_labelLayer
10
731.2786686
20
50.1600753
40
0.4928607
50
144.4963264
51
161.3350217
0
ARC
8
right_labelLayer
10
731.4416622
20
50.0385994
40
0.696111
50
132.7258711
51
144.1480311
0
ARC
8
right_labelLayer
10
731.7029208
20
49.7596068
40
1.0783261
50
125.2213988
51
132.8655389
0
ARC
8
right_labelLayer
10
731.9655637
20
49.3948846
40
1.5277601
50
121.235205
51
125.3793557
0
ARC
8
right_labelLayer
10
731.4999518
20
51.48872
40
0.8525724
50
215.1640713
51
247.4747794
0
ARC
8
right_labelLayer
10
731.6591307
20
51.6171769
40
1.0567671
50
212.4713237
51
215.8873605
0
ARC
8
right_labelLayer
10
731.6172475
20
51.5872174
40
1.0053514
50
183.0160897
51
212.3123489
0
ARC
8
right_labelLayer
10
731.8377887
20
51.6118041
40
1.226949
50
179.9757955
51
183.6207677
0
ARC
8
right_labelLayer
10
732.0158666
20
51.6241908
40
1.4050769
50
166.8195406
51
180.4839707
0
ARC
8
right_labelLayer
10
731.5497513
20
51.7418757
40
0.9244435
50
132.3287542
51
167.3340726
0
ARC
8
right_labelLayer
10
731.6121132
20
51.6522356
40
1.0328059
50
106.2189082
51
131.5377302
0
ARC
8
right_labelLayer
10
731.7698962
20
51.1413463
40
1.5674575
50
93.6329445
51
106.5408712
0
ARC
8
right_labelLayer
10
731.8214099
20
50.5630507
40
2.147906
50
89.9380986
51
94.0268559
0
ARC
8
right_labelLayer
10
731.8297479
20
50.8468585
40
1.8641064
50
82.5851549
51
90.1849552
0
ARC
8
right_labelLayer
10
731.8867046
20
51.287539
40
1.4197607
50
74.0088892
51
82.5693955
0
ARC
8
right_labelLayer
10
731.3160262
20
48.8957187
40
0.4884346
50
179.2207508
51
200.9356012
0
ARC
8
right_labelLayer
10
731.2579422
20
48.8822685
40
0.4294574
50
202.0286297
51
236.1457797
0
ARC
8
right_labelLayer
10
731.3455066
20
48.9934569
40
0.5706769
50
235.0636517
51
238.5040671
0
ARC
8
right_labelLayer
10
731.4472556
20
49.1752014
40
0.7788469
50
239.106661
51
254.486223
0
ARC
8
right_labelLayer
10
731.5829403
20
49.6430403
40
1.2659447
50
254.2323965
51
263.4937961
0
ARC
8
right_labelLayer
10
731.6681755
20
50.3649361
40
1.9928514
50
263.4107747
51
270.1457584
0
ARC
8
right_labelLayer
10
731.6772439
20
50.8705251
40
2.498437
50
269.9082997
51
270.0000508
0
ARC
8
right_labelLayer
10
731.6889013
20
51.6413934
40
3.2693261
50
269.7957383
51
275.399142
0
ARC
8
right_labelLayer
10
731.811265
20
50.3852384
40
2.007234
50
275.2956713
51
283.3516479
0
ARC
8
right_labelLayer
10
732.0106165
20
49.5641589
40
1.16232
50
283.1370249
51
295.8572862
0
ARC
8
right_labelLayer
10
732.158336
20
49.2416706
40
0.8077298
50
296.4046884
51
301.80088
0
ARC
8
right_labelLayer
10
732.216243
20
49.1618546
40
0.7094162
50
301.2230976
51
318.6238116
0
ARC
8
right_labelLayer
10
732.3468671
20
49.0411917
40
0.5316562
50
319.0765737
51
1.1406817
0
ARC
8
right_labelLayer
10
732.2204485
20
49.0569889
40
0.6579902
50
359.546026
51
10.9903745
0
ARC
8
right_labelLayer
10
732.4746103
20
49.108684
40
0.3986408
50
10.6608783
51
30.9362805
0
ARC
8
right_labelLayer
10
732.5551932
20
49.1534057
40
0.3065464
50
31.5095094
51
58.0777431
0
ARC
8
right_labelLayer
10
732.4796667
20
49.0181725
40
0.4613232
50
58.9971827
51
73.8586696
0
ARC
8
right_labelLayer
10
732.3270081
20
48.5184133
40
0.9838517
50
73.4100275
51
81.590764
0
ARC
8
right_labelLayer
10
732.197663
20
47.681388
40
1.8308022
50
81.4172036
51
86.5757054
0
ARC
8
right_labelLayer
10
732.1183966
20
46.4202852
40
3.0943903
50
86.5053521
51
90.1399217
0
ARC
8
right_labelLayer
10
731.5208755
20
48.3967664
40
1.1179214
50
89.6434607
51
100.0209069
0
ARC
8
right_labelLayer
10
731.4506125
20
48.7789912
40
0.7293063
50
99.8102755
51
116.8229817
0
ARC
8
right_labelLayer
10
731.3821758
20
48.9233182
40
0.5696414
50
117.230572
51
130.5021584
0
ARC
8
right_labelLayer
10
731.3470267
20
48.9684951
40
0.5124679
50
130.794473
51
169.0413581
0
ARC
8
right_labelLayer
10
731.6058226
20
48.9075494
40
0.7782032
50
168.2581678
51
180.3819666
0
ARC
8
right_labelLayer
10
732.0405856
20
51.6167811
40
0.9493047
50
179.5618153
51
191.6529015
0
ARC
8
right_labelLayer
10
731.7105194
20
51.5454689
40
0.611646
50
191.3554915
51
213.366054
0
ARC
8
right_labelLayer
10
731.631253
20
51.4996988
40
0.5202996
50
213.9573465
51
227.7972084
0
ARC
8
right_labelLayer
10
731.7002172
20
51.5833403
40
0.6286066
50
228.2620647
51
254.7341633
0
ARC
8
right_labelLayer
10
731.7883199
20
51.8853551
40
0.943178
50
254.4016197
51
267.4348917
0
ARC
8
right_labelLayer
10
731.8113095
20
52.1937994
40
1.2523756
50
267.0157196
51
270.0321271
0
ARC
8
right_labelLayer
10
731.8263296
20
52.00082
40
1.0594928
50
269.2256865
51
284.377287
0
ARC
8
right_labelLayer
10
731.9707369
20
51.4977021
40
0.536483
50
282.7796345
51
346.4828763
0
ARC
8
right_labelLayer
10
731.538997
20
51.6199953
40
0.9850123
50
345.4362338
51
0.7465965
0
ARC
8
right_labelLayer
10
731.478303
20
51.6477835
40
1.0457297
50
359.180676
51
15.0431126
0
ARC
8
right_labelLayer
10
731.9521455
20
51.7860071
40
0.5523499
50
13.9535726
51
77.6673891
0
ARC
8
right_labelLayer
10
731.8161972
20
51.2988278
40
1.0577149
50
76.1094851
51
90.7028403
0
ARC
8
right_labelLayer
10
731.7958482
20
51.3360367
40
1.0204529
50
89.5859391
51
101.3334214
0
ARC
8
right_labelLayer
10
731.7229226
20
51.6838581
40
0.6650903
50
101.0620226
51
121.9739402
0
ARC
8
right_labelLayer
10
731.6716765
20
51.7760474
40
0.5597761
50
122.5211242
51
134.9965493
0
ARC
8
right_labelLayer
10
731.6927727
20
51.7634113
40
0.5836587
50
135.583946
51
163.0016118
0
ARC
8
right_labelLayer
10
732.000983
20
51.6623899
40
0.9079606
50
162.591156
51
175.7343842
0
ARC
8
right_labelLayer
10
732.3706967
20
51.6259704
40
1.2793895
50
175.3394248
51
180.086398
0
LINE
8
right_labelLayer
10
736.730957
20
49.441424
11
736.2446289
21
49.441424
0
LINE
8
right_labelLayer
10
736.2446289
20
49.441424
11
736.2446289
21
51.5185724
0
LINE
8
right_labelLayer
10
734.5336914
20
51.1201349
11
734.5336914
21
49.441424
0
LINE
8
right_labelLayer
10
734.5336914
20
49.441424
11
734.0473633
21
49.441424
0
LINE
8
right_labelLayer
10
734.0473633
20
49.441424
11
734.0473633
21
54.0000177
0
LINE
8
right_labelLayer
10
734.0473633
20
54.0000177
11
734.5336914
21
54.0000177
0
LINE
8
right_labelLayer
10
734.5336914
20
54.0000177
11
734.5336914
21
52.6201349
0
LINE
8
right_labelLayer
10
734.5102539
20
52.207049
11
734.5395508
21
52.207049
0
LINE
8
right_labelLayer
10
736.730957
20
51.5361505
11
736.730957
21
49.441424
0
ARC
8
right_labelLayer
10
734.8699388
20
51.5264576
40
1.3747128
50
359.6713544
51
8.6877624
0
ARC
8
right_labelLayer
10
735.379439
20
51.6072625
40
0.8588578
50
8.4931085
51
22.6579903
0
ARC
8
right_labelLayer
10
735.6383088
20
51.7148416
40
0.5785249
50
22.7023647
51
42.3420402
0
ARC
8
right_labelLayer
10
735.6674044
20
51.7279302
40
0.5482932
50
43.3790558
51
71.5386894
0
ARC
8
right_labelLayer
10
735.5585923
20
51.4238861
40
0.871175
50
71.0827481
51
84.3691501
0
ARC
8
right_labelLayer
10
735.5097469
20
51.0086105
40
1.2892634
50
84.0196907
51
90.151063
0
ARC
8
right_labelLayer
10
735.4958655
20
50.8262083
40
1.4716983
50
89.5919072
51
100.3594858
0
ARC
8
right_labelLayer
10
735.3916557
20
51.373846
40
0.9142571
50
100.1067459
51
118.0847485
0
ARC
8
right_labelLayer
10
735.2856691
20
51.5818189
40
0.6808906
50
118.4551708
51
139.6705754
0
ARC
8
right_labelLayer
10
735.3920755
20
51.5090893
40
0.8091887
50
140.6208301
51
160.5048649
0
ARC
8
right_labelLayer
10
735.9529478
20
51.3014556
40
1.4072249
50
160.1566708
51
171.5313103
0
ARC
8
right_labelLayer
10
736.8604412
20
51.1576718
40
2.3260141
50
171.3201969
51
178.3407359
0
ARC
8
right_labelLayer
10
737.672735
20
51.1213868
40
3.1390439
50
178.1080255
51
180.0228504
0
ARC
8
right_labelLayer
10
730.1586071
20
52.6149248
40
4.3750874
50
357.8674557
51
0.0682304
0
ARC
8
right_labelLayer
10
731.6451628
20
52.5582094
40
2.8874512
50
354.982793
51
357.8944309
0
ARC
8
right_labelLayer
10
732.6266184
20
52.4727388
40
1.9022813
50
351.9713027
51
354.9620112
0
ARC
8
right_labelLayer
10
735.3633081
20
51.6917606
40
0.9716472
50
119.8316015
51
147.9726117
0
ARC
8
right_labelLayer
10
735.4809403
20
51.5110613
40
1.1869808
50
116.6656991
51
120.4183631
0
ARC
8
right_labelLayer
10
735.5029346
20
51.4533068
40
1.248479
50
96.665296
51
116.3782144
0
ARC
8
right_labelLayer
10
735.5502691
20
51.1267298
40
1.5783689
50
89.8927846
51
96.9959629
0
ARC
8
right_labelLayer
10
735.5654037
20
50.7320249
40
1.9731085
50
80.6863327
51
90.3537188
0
ARC
8
right_labelLayer
10
735.6882619
20
51.4546635
40
1.2401204
50
65.6023059
51
80.8844134
0
ARC
8
right_labelLayer
10
735.8357964
20
51.7869426
40
0.8765767
50
46.7399899
51
65.4131451
0
ARC
8
right_labelLayer
10
735.8458183
20
51.818595
40
0.84678
50
19.2204356
51
45.7660465
0
ARC
8
right_labelLayer
10
735.3575604
20
51.6375942
40
1.367446
50
6.4733665
51
19.6467911
0
ARC
8
right_labelLayer
10
734.6279639
20
51.5436924
40
2.1030066
50
359.7945231
51
6.7743509
0
LINE
8
right_labelLayer
10
739.206543
20
49.8427911
11
739.206543
21
49.4707208
0
LINE
8
right_labelLayer
10
737.7651367
20
50.3642755
11
737.7651367
21
52.2744318
0
LINE
8
right_labelLayer
10
737.7651367
20
52.2744318
11
737.3051758
21
52.2744318
0
LINE
8
right_labelLayer
10
737.3051758
20
52.2744318
11
737.3051758
21
52.5088068
0
LINE
8
right_labelLayer
10
737.3051758
20
52.5088068
11
737.7651367
21
52.7109552
0
LINE
8
right_labelLayer
10
737.7651367
20
52.7109552
11
737.9702148
21
53.3965021
0
LINE
8
right_labelLayer
10
737.9702148
20
53.3965021
11
738.2514648
21
53.3965021
0
LINE
8
right_labelLayer
10
738.2514648
20
53.3965021
11
738.2514648
21
52.6523615
0
LINE
8
right_labelLayer
10
738.2514648
20
52.6523615
11
739.1831055
21
52.6523615
0
LINE
8
right_labelLayer
10
739.1831055
20
52.6523615
11
739.1831055
21
52.2744318
0
LINE
8
right_labelLayer
10
739.1831055
20
52.2744318
11
738.2514648
21
52.2744318
0
LINE
8
right_labelLayer
10
738.2514648
20
52.2744318
11
738.2514648
21
50.3847833
0
ARC
8
right_labelLayer
10
738.7704264
20
51.3813427
40
1.5971488
50
269.8803067
51
278.3028861
0
ARC
8
right_labelLayer
10
738.7855166
20
51.2578611
40
1.4727852
50
278.4156826
51
279.0079693
0
ARC
8
right_labelLayer
10
738.606479
20
52.4016562
40
2.6305066
50
278.9588155
51
280.5104563
0
ARC
8
right_labelLayer
10
738.7772775
20
51.4852533
40
1.6983234
50
280.4845744
51
282.6270635
0
ARC
8
right_labelLayer
10
738.9269994
20
50.8201076
40
1.0165355
50
282.5877786
51
285.5796974
0
ARC
8
right_labelLayer
10
739.0033326
20
50.5395797
40
0.7258158
50
285.7229919
51
286.2587204
0
ARC
8
right_labelLayer
10
739.0020833
20
49.9031643
40
0.478342
50
287.9886298
51
295.3048258
0
ARC
8
right_labelLayer
10
738.8867107
20
50.2522119
40
0.84596
50
283.3068243
51
288.119837
0
ARC
8
right_labelLayer
10
738.7648439
20
50.7605269
40
1.3686781
50
280.0069092
51
283.3737271
0
ARC
8
right_labelLayer
10
738.6832525
20
51.2032812
40
1.8188776
50
279.1864695
51
280.1144539
0
ARC
8
right_labelLayer
10
738.6332067
20
51.4879833
40
2.1079215
50
275.5260628
51
279.2938845
0
ARC
8
right_labelLayer
10
738.6896183
20
50.8987745
40
1.5160189
50
270.8933569
51
275.5483787
0
ARC
8
right_labelLayer
10
738.6967241
20
50.6273007
40
1.2444705
50
270.0024528
51
270.7611186
0
ARC
8
right_labelLayer
10
738.6771531
20
50.6528996
40
1.270221
50
253.7848084
51
270.8852241
0
ARC
8
right_labelLayer
10
738.5266658
20
50.1396787
40
0.7353942
50
190.3817819
51
253.8772252
0
ARC
8
right_labelLayer
10
739.293697
20
50.3470705
40
1.5286573
50
179.3551249
51
192.8477761
0
ARC
8
right_labelLayer
10
739.2307485
20
50.3786575
40
0.9793029
50
179.6415966
51
189.7505385
0
ARC
8
right_labelLayer
10
738.8850371
20
50.3169966
40
0.6281464
50
189.5479551
51
205.7873402
0
ARC
8
right_labelLayer
10
738.7429672
20
50.2514852
40
0.4717333
50
206.12956
51
221.4083365
0
ARC
8
right_labelLayer
10
738.7270319
20
50.2393931
40
0.4517861
50
221.5948522
51
262.350566
0
ARC
8
right_labelLayer
10
738.7649206
20
50.4342274
40
0.6500338
50
261.3265738
51
270.1912059
0
LINE
8
bottom_outsideCutPath
10
859
20
483
11
859
21
466
0
LINE
8
bottom_outsideCutPath
10
859
20
466
11
856
21
466
0
LINE
8
bottom_outsideCutPath
10
856
20
466
11
856
21
447.625
0
LINE
8
bottom_outsideCutPath
10
856
20
447.625
11
859.25
21
447.625
0
LINE
8
bottom_outsideCutPath
10
859.25
20
447.625
11
859.25
21
446
0
LINE
8
bottom_outsideCutPath
10
859.25
20
446
11
859.25
21
446
0
LINE
8
bottom_outsideCutPath
10
859.25
20
446
11
859.25
21
444.375
0
LINE
8
bottom_outsideCutPath
10
859.25
20
444.375
11
856
21
444.375
0
LINE
8
bottom_outsideCutPath
10
856
20
444.375
11
856
21
426
0
LINE
8
bottom_outsideCutPath
10
856
20
426
11
859
21
426
0
LINE
8
bottom_outsideCutPath
10
859
20
426
11
859
21
386
0
LINE
8
bottom_outsideCutPath
10
859
20
386
11
856
21
386
0
LINE
8
bottom_outsideCutPath
10
856
20
386
11
856
21
367.625
0
LINE
8
bottom_outsideCutPath
10
856
20
367.625
11
859.25
21
367.625
0
LINE
8
bottom_outsideCutPath
10
859.25
20
367.625
11
859.25
21
366
0
LINE
8
bottom_outsideCutPath
10
859.25
20
366
11
859.25
21
366
0
LINE
8
bottom_outsideCutPath
10
859.25
20
366
11
859.25
21
364.375
0
LINE
8
bottom_outsideCutPath
10
859.25
20
364.375
11
856
21
364.375
0
LINE
8
bottom_outsideCutPath
10
856
20
364.375
11
856
21
346
0
LINE
8
bottom_outsideCutPath
10
856
20
346
11
859
21
346
0
LINE
8
bottom_outsideCutPath
10
859
20
346
11
859
21
306
0
LINE
8
bottom_outsideCutPath
10
859
20
306
11
856
21
306
0
LINE
8
bottom_outsideCutPath
10
856
20
306
11
856
21
287.625
0
LINE
8
bottom_outsideCutPath
10
856
20
287.625
11
859.25
21
287.625
0
LINE
8
bottom_outsideCutPath
10
859.25
20
287.625
11
859.25
21
286
0
LINE
8
bottom_outsideCutPath
10
859.25
20
286
11
859.25
21
286
0
LINE
8
bottom_outsideCutPath
10
859.25
20
286
11
859.25
21
284.375
0
LINE
8
bottom_outsideCutPath
10
859.25
20
284.375
11
856
21
284.375
0
LINE
8
bottom_outsideCutPath
10
856
20
284.375
11
856
21
266
0
LINE
8
bottom_outsideCutPath
10
856
20
266
11
859
21
266
0
LINE
8
bottom_outsideCutPath
10
859
20
266
11
859
21
249
0
LINE
8
bottom_outsideCutPath
10
859
20
249
11
906.8333333
21
249
0
LINE
8
bottom_outsideCutPath
10
906.8333333
20
249
11
906.8333333
21
246
0
LINE
8
bottom_outsideCutPath
10
906.8333333
20
246
11
956.0416667
21
246
0
LINE
8
bottom_outsideCutPath
10
956.0416667
20
246
11
956.0416667
21
249.25
0
LINE
8
bottom_outsideCutPath
10
956.0416667
20
249.25
11
957.6666667
21
249.25
0
LINE
8
bottom_outsideCutPath
10
957.6666667
20
249.25
11
957.6666667
21
249.25
0
LINE
8
bottom_outsideCutPath
10
957.6666667
20
249.25
11
959.2916667
21
249.25
0
LINE
8
bottom_outsideCutPath
10
959.2916667
20
249.25
11
959.2916667
21
246
0
LINE
8
bottom_outsideCutPath
10
959.2916667
20
246
11
1008.5
21
246
0
LINE
8
bottom_outsideCutPath
10
1008.5
20
246
11
1008.5
21
249
0
LINE
8
bottom_outsideCutPath
10
1008.5
20
249
11
1110.1666667
21
249
0
LINE
8
bottom_outsideCutPath
10
1110.1666667
20
249
11
1110.1666667
21
246
0
LINE
8
bottom_outsideCutPath
10
1110.1666667
20
246
11
1159.375
21
246
0
LINE
8
bottom_outsideCutPath
10
1159.375
20
246
11
1159.375
21
249.25
0
LINE
8
bottom_outsideCutPath
10
1159.375
20
249.25
11
1161
21
249.25
0
LINE
8
bottom_outsideCutPath
10
1161
20
249.25
11
1161
21
249.25
0
LINE
8
bottom_outsideCutPath
10
1161
20
249.25
11
1162.625
21
249.25
0
LINE
8
bottom_outsideCutPath
10
1162.625
20
249.25
11
1162.625
21
246
0
LINE
8
bottom_outsideCutPath
10
1162.625
20
246
11
1211.8333333
21
246
0
LINE
8
bottom_outsideCutPath
10
1211.8333333
20
246
11
1211.8333333
21
249
0
LINE
8
bottom_outsideCutPath
10
1211.8333333
20
249
11
1313.5
21
249
0
LINE
8
bottom_outsideCutPath
10
1313.5
20
249
11
1313.5
21
246
0
LINE
8
bottom_outsideCutPath
10
1313.5
20
246
11
1362.7083333
21
246
0
LINE
8
bottom_outsideCutPath
10
1362.7083333
20
246
11
1362.7083333
21
249.25
0
LINE
8
bottom_outsideCutPath
10
1362.7083333
20
249.25
11
1364.3333333
21
249.25
0
LINE
8
bottom_outsideCutPath
10
1364.3333333
20
249.25
11
1364.3333333
21
249.25
0
LINE
8
bottom_outsideCutPath
10
1364.3333333
20
249.25
11
1365.9583333
21
249.25
0
LINE
8
bottom_outsideCutPath
10
1365.9583333
20
249.25
11
1365.9583333
21
246
0
LINE
8
bottom_outsideCutPath
10
1365.9583333
20
246
11
1415.1666667
21
246
0
LINE
8
bottom_outsideCutPath
10
1415.1666667
20
246
11
1415.1666667
21
249
0
LINE
8
bottom_outsideCutPath
10
1415.1666667
20
249
11
1463
21
249
0
LINE
8
bottom_outsideCutPath
10
1463
20
249
11
1463
21
266
0
LINE
8
bottom_outsideCutPath
10
1463
20
266
11
1466
21
266
0
LINE
8
bottom_outsideCutPath
10
1466
20
266
11
1466
21
284.375
0
LINE
8
bottom_outsideCutPath
10
1466
20
284.375
11
1462.75
21
284.375
0
LINE
8
bottom_outsideCutPath
10
1462.75
20
284.375
11
1462.75
21
286
0
LINE
8
bottom_outsideCutPath
10
1462.75
20
286
11
1462.75
21
286
0
LINE
8
bottom_outsideCutPath
10
1462.75
20
286
11
1462.75
21
287.625
0
LINE
8
bottom_outsideCutPath
10
1462.75
20
287.625
11
1466
21
287.625
0
LINE
8
bottom_outsideCutPath
10
1466
20
287.625
11
1466
21
306
0
LINE
8
bottom_outsideCutPath
10
1466
20
306
11
1463
21
306
0
LINE
8
bottom_outsideCutPath
10
1463
20
306
11
1463
21
346
0
LINE
8
bottom_outsideCutPath
10
1463
20
346
11
1466
21
346
0
LINE
8
bottom_outsideCutPath
10
1466
20
346
11
1466
21
364.375
0
LINE
8
bottom_outsideCutPath
10
1466
20
364.375
11
1462.75
21
364.375
0
LINE
8
bottom_outsideCutPath
10
1462.75
20
364.375
11
1462.75
21
366
0
LINE
8
bottom_outsideCutPath
10
1462.75
20
366
11
1462.75
21
366
0
LINE
8
bottom_outsideCutPath
10
1462.75
20
366
11
1462.75
21
367.625
0
LINE
8
bottom_outsideCutPath
10
1462.75
20
367.625
11
1466
21
367.625
0
LINE
8
bottom_outsideCutPath
10
1466
20
367.625
11
1466
21
386
0
LINE
8
bottom_outsideCutPath
10
1466
20
386
11
1463
21
386
0
LINE
8
bottom_outsideCutPath
10
1463
20
386
11
1463
21
426
0
LINE
8
bottom_outsideCutPath
10
1463
20
426
11
1466
21
426
0
LINE
8
bottom_outsideCutPath
10
1466
20
426
11
1466
21
444.375
0
LINE
8
bottom_outsideCutPath
10
1466
20
444.375
11
1462.75
21
444.375
0
LINE
8
bottom_outsideCutPath
10
1462.75
20
444.375
11
1462.75
21
446
0
LINE
8
bottom_outsideCutPath
10
1462.75
20
446
11
1462.75
21
446
0
LINE
8
bottom_outsideCutPath
10
1462.75
20
446
11
1462.75
21
447.625
0
LINE
8
bottom_outsideCutPath
10
1462.75
20
447.625
11
1466
21
447.625
0
LINE
8
bottom_outsideCutPath
10
1466
20
447.625
11
1466
21
466
0
LINE
8
bottom_outsideCutPath
10
1466
20
466
11
1463
21
466
0
LINE
8
bottom_outsideCutPath
10
1463
20
466
11
1463
21
483
0
LINE
8
bottom_outsideCutPath
10
1463
20
483
11
1415.1666667
21
483
0
LINE
8
bottom_outsideCutPath
10
1415.1666667
20
483
11
1415.1666667
21
486
0
LINE
8
bottom_outsideCutPath
10
1415.1666667
20
486
11
1365.9583333
21
486
0
LINE
8
bottom_outsideCutPath
10
1365.9583333
20
486
11
1365.9583333
21
482.75
0
LINE
8
bottom_outsideCutPath
10
1365.9583333
20
482.75
11
1364.3333333
21
482.75
0
LINE
8
bottom_outsideCutPath
10
1364.3333333
20
482.75
11
1364.3333333
21
482.75
0
LINE
8
bottom_outsideCutPath
10
1364.3333333
20
482.75
11
1362.7083333
21
482.75
0
LINE
8
bottom_outsideCutPath
10
1362.7083333
20
482.75
11
1362.7083333
21
486
0
LINE
8
bottom_outsideCutPath
10
1362.7083333
20
486
11
1313.5
21
486
0
LINE
8
bottom_outsideCutPath
10
1313.5
20
486
11
1313.5
21
483
0
LINE
8
bottom_outsideCutPath
10
1313.5
20
483
11
1211.8333333
21
483
0
LINE
8
bottom_outsideCutPath
10
1211.8333333
20
483
11
1211.8333333
21
486
0
LINE
8
bottom_outsideCutPath
10
1211.8333333
20
486
11
1162.625
21
486
0
LINE
8
bottom_outsideCutPath
10
1162.625
20
486
11
1162.625
21
482.75
0
LINE
8
bottom_outsideCutPath
10
1162.625
20
482.75
11
1161
21
482.75
0
LINE
8
bottom_outsideCutPath
10
1161
20
482.75
11
1161
21
482.75
0
LINE
8
bottom_outsideCutPath
10
1161
20
482.75
11
1159.375
21
482.75
0
LINE
8
bottom_outsideCutPath
10
1159.375
20
482.75
11
1159.375
21
486
0
LINE
8
bottom_outsideCutPath
10
1159.375
20
486
11
1110.1666667
21
486
0
LINE
8
bottom_outsideCutPath
10
1110.1666667
20
486
11
1110.1666667
21
483
0
LINE
8
bottom_outsideCutPath
10
1110.1666667
20
483
11
1008.5
21
483
0
LINE
8
bottom_outsideCutPath
10
1008.5
20
483
11
1008.5
21
486
0
LINE
8
bottom_outsideCutPath
10
1008.5
20
486
11
959.2916667
21
486
0
LINE
8
bottom_outsideCutPath
10
959.2916667
20
486
11
959.2916667
21
482.75
0
LINE
8
bottom_outsideCutPath
10
959.2916667
20
482.75
11
957.6666667
21
482.75
0
LINE
8
bottom_outsideCutPath
10
957.6666667
20
482.75
11
957.6666667
21
482.75
0
LINE
8
bottom_outsideCutPath
10
957.6666667
20
482.75
11
956.0416667
21
482.75
0
LINE
8
bottom_outsideCutPath
10
956.0416667
20
482.75
11
956.0416667
21
486
0
LINE
8
bottom_outsideCutPath
10
956.0416667
20
486
11
906.8333333
21
486
0
LINE
8
bottom_outsideCutPath
10
906.8333333
20
486
11
906.8333333
21
483
0
LINE
8
bottom_outsideCutPath
10
906.8333333
20
483
11
859
21
483
0
LINE
8
bottom_labelLayer
10
1085.9295739
20
351.3052939
11
1085.6483239
21
351.3052939
0
LINE
8
bottom_labelLayer
10
1085.6483239
20
351.3052939
11
1084.8280114
21
348.0006064
0
LINE
8
bottom_labelLayer
10
1084.8280114
20
348.0006064
11
1082.0389489
21
348.0006064
0
LINE
8
bottom_labelLayer
10
1082.0389489
20
348.0006064
11
1082.0389489
21
384.4693564
0
LINE
8
bottom_labelLayer
10
1082.0389489
20
384.4693564
11
1085.9295739
21
384.4693564
0
LINE
8
bottom_labelLayer
10
1085.9295739
20
384.4693564
11
1085.9295739
21
375.6099814
0
LINE
8
bottom_labelLayer
10
1085.7420739
20
370.2662314
11
1085.9295739
21
370.2662314
0
ARC
8
bottom_labelLayer
10
1094.1087879
20
362.2194591
40
11.8910951
50
74.2393273
51
90.5623812
0
ARC
8
bottom_labelLayer
10
1094.8950682
20
365.1039566
40
8.9015124
50
38.5631251
51
74.0670402
0
ARC
8
bottom_labelLayer
10
1092.8716202
20
363.5306062
40
11.4645226
50
16.4709244
51
38.4075331
0
ARC
8
bottom_labelLayer
10
1087.0423406
20
361.7027152
40
17.573135
50
5.133852
51
16.7973363
0
ARC
8
bottom_labelLayer
10
1079.6833749
20
360.9209992
40
24.972818
50
359.8779298
51
5.4093543
0
ARC
8
bottom_labelLayer
10
1081.8449004
20
360.7332099
40
22.811633
50
350.6562814
51
0.3380356
0
ARC
8
bottom_labelLayer
10
1089.7974057
20
359.380576
40
14.7450955
50
335.8305923
51
350.8254832
0
ARC
8
bottom_labelLayer
10
1093.2955669
20
357.8707202
40
10.935535
50
321.3161475
51
335.5436135
0
ARC
8
bottom_labelLayer
10
1094.6329417
20
356.7809631
40
9.2104605
50
274.0640063
51
321.4081019
0
ARC
8
bottom_labelLayer
10
1094.0099073
20
360.727507
40
13.1956625
50
269.922567
51
275.5481561
0
ARC
8
bottom_labelLayer
10
1093.9264647
20
359.3327859
40
11.8011118
50
255.7755392
51
270.318542
0
ARC
8
bottom_labelLayer
10
1093.5896938
20
357.8365467
40
10.2680775
50
245.9801611
51
255.5455756
0
ARC
8
bottom_labelLayer
10
1092.9373994
20
356.319633
40
8.6170306
50
215.5850176
51
245.8361706
0
ARC
8
bottom_labelLayer
10
1004.8132652
20
375.5414058
40
81.1163377
50
358.1123171
51
0.0484378
0
ARC
8
bottom_labelLayer
10
1027.3890945
20
374.7834657
40
58.5277948
50
355.7238659
51
358.1258988
0
ARC
8
bottom_labelLayer
10
1037.3426912
20
374.0995443
40
48.5509479
50
355.4715306
51
355.6528747
0
ARC
8
bottom_labelLayer
10
1093.1854202
20
365.2065344
40
8.845781
50
95.1835151
51
145.1108981
0
ARC
8
bottom_labelLayer
10
1093.9629303
20
360.8220967
40
13.2879168
50
89.8743366
51
96.8145443
0
ARC
8
bottom_labelLayer
10
1093.3481206
20
359.9194951
40
10.9329773
50
89.573129
51
100.7324259
0
ARC
8
bottom_labelLayer
10
1092.5387756
20
364.0085841
40
6.7647819
50
100.4469409
51
119.6700738
0
ARC
8
bottom_labelLayer
10
1091.7882687
20
365.4117457
40
5.1742582
50
120.1402904
51
142.4248941
0
ARC
8
bottom_labelLayer
10
1093.0299279
20
364.5903494
40
6.6600752
50
143.3382433
51
161.2559813
0
ARC
8
bottom_labelLayer
10
1098.2222745
20
362.7468917
40
12.1696613
50
160.8926291
51
171.2334268
0
ARC
8
bottom_labelLayer
10
1106.8903438
20
361.3485305
40
20.9496773
50
171.066786
51
177.8456859
0
ARC
8
bottom_labelLayer
10
1115.9049485
20
360.8900514
40
29.9753827
50
177.6176768
51
180.0425434
0
ARC
8
bottom_labelLayer
10
1111.6538581
20
360.7673443
40
25.7244803
50
179.7762693
51
185.7075306
0
ARC
8
bottom_labelLayer
10
1101.5116417
20
359.7223359
40
15.5286487
50
185.59249
51
194.2050636
0
ARC
8
bottom_labelLayer
10
1095.0145941
20
358.0361276
40
8.8165654
50
193.9430381
51
208.0218432
0
ARC
8
bottom_labelLayer
10
1092.3858825
20
356.6988283
40
5.8680002
50
208.5536467
51
217.5605275
0
ARC
8
bottom_labelLayer
10
1092.1717126
20
356.6097497
40
5.6442415
50
218.1690452
51
253.8047193
0
ARC
8
bottom_labelLayer
10
1093.2186103
20
359.8374419
40
9.0364519
50
253.1382449
51
266.848314
0
ARC
8
bottom_labelLayer
10
1093.5121776
20
363.2995234
40
12.5098594
50
266.3775735
51
270.0510507
0
ARC
8
bottom_labelLayer
10
1093.6063168
20
358.545148
40
7.7559231
50
269.3868903
51
285.8630646
0
ARC
8
bottom_labelLayer
10
1094.1825331
20
356.4626235
40
5.5952233
50
286.0162866
51
326.8497351
0
ARC
8
bottom_labelLayer
10
1091.401413
20
358.3050134
40
8.931199
50
326.7105061
51
343.6661781
0
ARC
8
bottom_labelLayer
10
1086.1953176
20
359.8958254
40
14.3746986
50
343.4171442
51
353.6369165
0
ARC
8
bottom_labelLayer
10
1078.3320425
20
360.8288579
40
22.293009
50
353.4934809
51
0.2205455
0
ARC
8
bottom_labelLayer
10
1077.6389106
20
361.0077111
40
22.9861641
50
359.7680806
51
6.3095202
0
ARC
8
bottom_labelLayer
10
1086.2973324
20
362.0013151
40
14.2710377
50
6.1648675
51
16.0396407
0
ARC
8
bottom_labelLayer
10
1091.8749448
20
363.6450351
40
8.4564821
50
15.7779497
51
32.0151225
0
ARC
8
bottom_labelLayer
10
1093.6142148
20
364.6410498
40
6.4541762
50
32.7034233
51
35.5242375
0
ARC
8
bottom_labelLayer
10
1094.2503791
20
365.0932077
40
5.6736964
50
35.5408386
51
79.801122
0
ARC
8
bottom_labelLayer
10
1093.4884608
20
361.8541501
40
8.9982115
50
78.6781219
51
90.3749628
0
ARC
8
bottom_labelLayer
10
1113.5286746
20
360.7323109
40
20.0966684
50
349.1761924
51
0.3862662
0
ARC
8
bottom_labelLayer
10
1120.2947423
20
359.3834829
40
13.1977895
50
330.2507105
51
349.4116455
0
ARC
8
bottom_labelLayer
10
1122.3770021
20
358.3012066
40
10.8533328
50
318.1439766
51
329.756625
0
ARC
8
bottom_labelLayer
10
1122.7528193
20
358.0000275
40
10.3724838
50
278.895917
51
317.9979115
0
ARC
8
bottom_labelLayer
10
1121.7844793
20
362.6394343
40
15.1077213
50
269.7502909
51
279.8033212
0
ARC
8
bottom_labelLayer
10
1121.6274353
20
360.0254155
40
12.4938919
50
253.543696
51
270.4182433
0
ARC
8
bottom_labelLayer
10
1121.2115421
20
358.4166277
40
10.8333399
50
238.8115585
51
253.2428266
0
ARC
8
bottom_labelLayer
10
1121.0773142
20
358.1466956
40
10.5329405
50
207.7947044
51
238.675796
0
ARC
8
bottom_labelLayer
10
1123.0034709
20
359.3263599
40
12.7877747
50
205.6560336
51
208.4461097
0
ARC
8
bottom_labelLayer
10
1124.4868525
20
359.944421
40
14.3927612
50
188.9102466
51
205.3171401
0
ARC
8
bottom_labelLayer
10
1129.4864032
20
360.7911831
40
19.4632301
50
179.7744728
51
189.0932858
0
ARC
8
bottom_labelLayer
10
1130.2239037
20
361.0046191
40
20.2010432
50
169.2442975
51
180.3880772
0
ARC
8
bottom_labelLayer
10
1123.3637856
20
362.3606161
40
13.2084882
50
150.7111502
51
169.4695465
0
ARC
8
bottom_labelLayer
10
1121.1738295
20
363.4852382
40
10.7486876
50
138.1759503
51
150.2287411
0
ARC
8
bottom_labelLayer
10
1120.8095413
20
363.7647849
40
10.2908652
50
99.1759363
51
137.9832719
0
ARC
8
bottom_labelLayer
10
1121.812186
20
359.0462304
40
15.1107906
50
89.7326342
51
100.0759831
0
ARC
8
bottom_labelLayer
10
1122.0125805
20
361.0840155
40
13.0734861
50
73.5222756
51
90.5692279
0
ARC
8
bottom_labelLayer
10
1122.7792623
20
363.8695758
40
10.1850128
50
41.1445655
51
73.2133825
0
ARC
8
bottom_labelLayer
10
1121.3157273
20
362.6116876
40
12.1147824
50
13.5014346
51
41.0703413
0
ARC
8
bottom_labelLayer
10
1115.6613778
20
361.1320189
40
17.9587187
50
1.1277205
51
13.8800038
0
ARC
8
bottom_labelLayer
10
1110.7908913
20
360.8710145
40
22.8339955
50
359.9919188
51
1.5419906
0
ARC
8
bottom_labelLayer
10
1133.7563483
20
360.7666838
40
19.7020339
50
179.7059588
51
187.9160805
0
ARC
8
bottom_labelLayer
10
1126.5302772
20
359.7286664
40
12.4019063
50
187.7639318
51
200.0976809
0
ARC
8
bottom_labelLayer
10
1122.5494346
20
358.270081
40
8.1622632
50
200.0845853
51
216.9131611
0
ARC
8
bottom_labelLayer
10
1121.0957779
20
357.2321019
40
6.3767284
50
217.3009547
51
261.7099106
0
ARC
8
bottom_labelLayer
10
1121.7706171
20
360.4523738
40
9.6627951
50
260.5033253
51
270.2476726
0
ARC
8
bottom_labelLayer
10
1121.899423
20
359.826169
40
9.0369192
50
269.448163
51
284.7255748
0
ARC
8
bottom_labelLayer
10
1122.6148229
20
357.1729854
40
6.2890581
50
284.5662317
51
322.633386
0
ARC
8
bottom_labelLayer
10
1120.9421826
20
358.3813941
40
8.351998
50
323.0089243
51
342.6390508
0
ARC
8
bottom_labelLayer
10
1116.1580871
20
359.9449766
40
13.3848638
50
342.3615621
51
353.7537674
0
ARC
8
bottom_labelLayer
10
1109.0999134
20
360.7957496
40
20.4938497
50
353.5363061
51
0.2014186
0
ARC
8
bottom_labelLayer
10
1110.1813004
20
360.9668733
40
19.4125888
50
359.7075683
51
7.897267
0
ARC
8
bottom_labelLayer
10
1117.2907476
20
361.9860767
40
12.2305755
50
7.7439931
51
20.0690245
0
ARC
8
bottom_labelLayer
10
1121.2524007
20
363.4398569
40
8.0106093
50
20.0256975
51
37.4350566
0
ARC
8
bottom_labelLayer
10
1122.5668406
20
364.372565
40
6.4001963
50
37.9577612
51
80.4006217
0
ARC
8
bottom_labelLayer
10
1121.8198846
20
361.0397271
40
9.8125925
50
79.34534
51
90.3174871
0
ARC
8
bottom_labelLayer
10
1121.6815756
20
361.5933054
40
9.259244
50
89.4806021
51
103.8804973
0
ARC
8
bottom_labelLayer
10
1120.9035593
20
364.5559927
40
6.1965884
50
103.4685209
51
142.3118913
0
ARC
8
bottom_labelLayer
10
1122.4160853
20
363.4922775
40
8.04427
50
142.90258
51
162.3749602
0
ARC
8
bottom_labelLayer
10
1127.1820531
20
361.9040324
40
13.0676058
50
162.0653208
51
173.1674858
0
ARC
8
bottom_labelLayer
10
1134.6134659
20
360.9562008
40
20.559082
50
173.0086217
51
180.2463804
0
LINE
8
bottom_labelLayer
10
1152.2576989
20
351.2115439
11
1152.2576989
21
348.2349814
0
LINE
8
bottom_labelLayer
10
1140.7264489
20
355.3834189
11
1140.7264489
21
370.6646689
0
LINE
8
bottom_labelLayer
10
1140.7264489
20
370.6646689
11
1137.0467614
21
370.6646689
0
LINE
8
bottom_labelLayer
10
1137.0467614
20
370.6646689
11
1137.0467614
21
372.5396689
0
LINE
8
bottom_labelLayer
10
1137.0467614
20
372.5396689
11
1140.7264489
21
374.1568564
0
LINE
8
bottom_labelLayer
10
1140.7264489
20
374.1568564
11
1142.3670739
21
379.6412314
0
LINE
8
bottom_labelLayer
10
1142.3670739
20
379.6412314
11
1144.6170739
21
379.6412314
0
LINE
8
bottom_labelLayer
10
1144.6170739
20
379.6412314
11
1144.6170739
21
373.6881064
0
LINE
8
bottom_labelLayer
10
1144.6170739
20
373.6881064
11
1152.0701989
21
373.6881064
0
LINE
8
bottom_labelLayer
10
1152.0701989
20
373.6881064
11
1152.0701989
21
370.6646689
0
LINE
8
bottom_labelLayer
10
1152.0701989
20
370.6646689
11
1144.6170739
21
370.6646689
0
LINE
8
bottom_labelLayer
10
1144.6170739
20
370.6646689
11
1144.6170739
21
355.5474814
0
ARC
8
bottom_labelLayer
10
1148.7687553
20
363.5201106
40
12.7773446
50
269.880356
51
278.3028338
0
ARC
8
bottom_labelLayer
10
1148.8906891
20
362.5242424
40
11.7743293
50
278.4154985
51
279.0081852
0
ARC
8
bottom_labelLayer
10
1147.4566933
20
371.6851582
40
21.0467908
50
278.9590023
51
280.5104412
0
ARC
8
bottom_labelLayer
10
1148.8230617
20
364.3537681
40
13.589165
50
280.4847652
51
282.6268478
0
ARC
8
bottom_labelLayer
10
1150.0213575
20
359.0301388
40
8.1323445
50
282.5876314
51
285.5795281
0
ARC
8
bottom_labelLayer
10
1150.6219325
20
356.8213707
40
5.8434484
50
285.7237847
51
286.2561282
0
ARC
8
bottom_labelLayer
10
1150.6219881
20
351.6945995
40
3.8268142
50
287.9887831
51
295.3048298
0
ARC
8
bottom_labelLayer
10
1149.698966
20
354.4871649
40
6.767946
50
283.3069401
51
288.1197638
0
ARC
8
bottom_labelLayer
10
1148.7238823
20
358.5545686
40
10.950584
50
280.0070276
51
283.3734888
0
ARC
8
bottom_labelLayer
10
1148.0717259
20
362.0936457
40
14.5491693
50
279.18625
51
280.1143525
0
ARC
8
bottom_labelLayer
10
1147.6710515
20
364.3727009
40
16.8629899
50
275.526042
51
279.2939492
0
ARC
8
bottom_labelLayer
10
1148.1223273
20
359.6591332
40
12.1278722
50
270.8932567
51
275.5483853
0
ARC
8
bottom_labelLayer
10
1148.1790257
20
357.5059501
40
9.9740936
50
270.0031491
51
270.7604206
0
ARC
8
bottom_labelLayer
10
1148.0225745
20
357.6923862
40
10.1617427
50
253.784798
51
270.8852574
0
ARC
8
bottom_labelLayer
10
1146.8186789
20
353.5866421
40
5.8831512
50
190.3817648
51
253.8772413
0
ARC
8
bottom_labelLayer
10
1152.9549255
20
355.2457737
40
12.2292513
50
179.355099
51
192.8477572
0
ARC
8
bottom_labelLayer
10
1152.4513489
20
355.4984839
40
7.8344282
50
179.6416623
51
189.7505963
0
ARC
8
bottom_labelLayer
10
1149.6856411
20
355.0051847
40
5.0251596
50
189.5479455
51
205.7873677
0
ARC
8
bottom_labelLayer
10
1148.5490539
20
354.4810677
40
3.7738191
50
206.1294271
51
221.4083989
0
ARC
8
bottom_labelLayer
10
1148.4216143
20
354.3843686
40
3.6142978
50
221.5949153
51
262.3505225
0
ARC
8
bottom_labelLayer
10
1148.7247115
20
355.9430161
40
5.2002511
50
261.3266336
51
270.1912974
0
LINE
8
bottom_labelLayer
10
1169.2030114
20
351.2115439
11
1169.2030114
21
348.2349814
0
LINE
8
bottom_labelLayer
10
1157.6717614
20
355.3834189
11
1157.6717614
21
370.6646689
0
LINE
8
bottom_labelLayer
10
1157.6717614
20
370.6646689
11
1153.9920739
21
370.6646689
0
LINE
8
bottom_labelLayer
10
1153.9920739
20
370.6646689
11
1153.9920739
21
372.5396689
0
LINE
8
bottom_labelLayer
10
1153.9920739
20
372.5396689
11
1157.6717614
21
374.1568564
0
LINE
8
bottom_labelLayer
10
1157.6717614
20
374.1568564
11
1159.3123864
21
379.6412314
0
LINE
8
bottom_labelLayer
10
1159.3123864
20
379.6412314
11
1161.5623864
21
379.6412314
0
LINE
8
bottom_labelLayer
10
1161.5623864
20
379.6412314
11
1161.5623864
21
373.6881064
0
LINE
8
bottom_labelLayer
10
1161.5623864
20
373.6881064
11
1169.0155114
21
373.6881064
0
LINE
8
bottom_labelLayer
10
1169.0155114
20
373.6881064
11
1169.0155114
21
370.6646689
0
LINE
8
bottom_labelLayer
10
1169.0155114
20
370.6646689
11
1161.5623864
21
370.6646689
0
LINE
8
bottom_labelLayer
10
1161.5623864
20
370.6646689
11
1161.5623864
21
355.5474814
0
ARC
8
bottom_labelLayer
10
1165.7140678
20
363.5201106
40
12.7773446
50
269.880356
51
278.3028338
0
ARC
8
bottom_labelLayer
10
1165.8360016
20
362.5242424
40
11.7743293
50
278.4154985
51
279.0081852
0
ARC
8
bottom_labelLayer
10
1164.4020058
20
371.6851582
40
21.0467908
50
278.9590023
51
280.5104412
0
ARC
8
bottom_labelLayer
10
1165.7683742
20
364.3537681
40
13.589165
50
280.4847652
51
282.6268478
0
ARC
8
bottom_labelLayer
10
1166.96667
20
359.0301388
40
8.1323445
50
282.5876314
51
285.5795281
0
ARC
8
bottom_labelLayer
10
1167.567245
20
356.8213707
40
5.8434484
50
285.7237847
51
286.2561282
0
ARC
8
bottom_labelLayer
10
1167.5673006
20
351.6945995
40
3.8268142
50
287.9887831
51
295.3048298
0
ARC
8
bottom_labelLayer
10
1166.6442785
20
354.4871649
40
6.767946
50
283.3069401
51
288.1197638
0
ARC
8
bottom_labelLayer
10
1165.6691948
20
358.5545686
40
10.950584
50
280.0070276
51
283.3734888
0
ARC
8
bottom_labelLayer
10
1165.0170384
20
362.0936457
40
14.5491693
50
279.18625
51
280.1143525
0
ARC
8
bottom_labelLayer
10
1164.616364
20
364.3727009
40
16.8629899
50
275.526042
51
279.2939492
0
ARC
8
bottom_labelLayer
10
1165.0676398
20
359.6591332
40
12.1278722
50
270.8932567
51
275.5483853
0
ARC
8
bottom_labelLayer
10
1165.1243382
20
357.5059501
40
9.9740936
50
270.0031491
51
270.7604206
0
ARC
8
bottom_labelLayer
10
1164.967887
20
357.6923862
40
10.1617427
50
253.784798
51
270.8852574
0
ARC
8
bottom_labelLayer
10
1163.7639914
20
353.5866421
40
5.8831512
50
190.3817648
51
253.8772413
0
ARC
8
bottom_labelLayer
10
1169.900238
20
355.2457737
40
12.2292513
50
179.355099
51
192.8477572
0
ARC
8
bottom_labelLayer
10
1169.3966614
20
355.4984839
40
7.8344282
50
179.6416623
51
189.7505963
0
ARC
8
bottom_labelLayer
10
1166.6309536
20
355.0051847
40
5.0251596
50
189.5479455
51
205.7873677
0
ARC
8
bottom_labelLayer
10
1165.4943664
20
354.4810677
40
3.7738191
50
206.1294271
51
221.4083989
0
ARC
8
bottom_labelLayer
10
1165.3669268
20
354.3843686
40
3.6142978
50
221.5949153
51
262.3505225
0
ARC
8
bottom_labelLayer
10
1165.670024
20
355.9430161
40
5.2002511
50
261.3266336
51
270.1912974
0
ARC
8
bottom_labelLayer
10
1176.4114871
20
360.7323109
40
20.0966684
50
349.1761924
51
0.3862662
0
ARC
8
bottom_labelLayer
10
1183.1775548
20
359.3834829
40
13.1977895
50
330.2507105
51
349.4116455
0
ARC
8
bottom_labelLayer
10
1185.2598146
20
358.3012066
40
10.8533328
50
318.1439766
51
329.756625
0
ARC
8
bottom_labelLayer
10
1185.6356318
20
358.0000275
40
10.3724838
50
278.895917
51
317.9979115
0
ARC
8
bottom_labelLayer
10
1184.6672918
20
362.6394343
40
15.1077213
50
269.7502909
51
279.8033212
0
ARC
8
bottom_labelLayer
10
1184.5102478
20
360.0254155
40
12.4938919
50
253.543696
51
270.4182433
0
ARC
8
bottom_labelLayer
10
1184.0943546
20
358.4166277
40
10.8333399
50
238.8115585
51
253.2428266
0
ARC
8
bottom_labelLayer
10
1183.9601267
20
358.1466956
40
10.5329405
50
207.7947044
51
238.675796
0
ARC
8
bottom_labelLayer
10
1185.8862834
20
359.3263599
40
12.7877747
50
205.6560336
51
208.4461097
0
ARC
8
bottom_labelLayer
10
1187.369665
20
359.944421
40
14.3927612
50
188.9102466
51
205.3171401
0
ARC
8
bottom_labelLayer
10
1192.3692157
20
360.7911831
40
19.4632301
50
179.7744728
51
189.0932858
0
ARC
8
bottom_labelLayer
10
1193.1067162
20
361.0046191
40
20.2010432
50
169.2442975
51
180.3880772
0
ARC
8
bottom_labelLayer
10
1186.2465981
20
362.3606161
40
13.2084882
50
150.7111502
51
169.4695465
0
ARC
8
bottom_labelLayer
10
1184.056642
20
363.4852382
40
10.7486876
50
138.1759503
51
150.2287411
0
ARC
8
bottom_labelLayer
10
1183.6923538
20
363.7647849
40
10.2908652
50
99.1759363
51
137.9832719
0
ARC
8
bottom_labelLayer
10
1184.6949985
20
359.0462304
40
15.1107906
50
89.7326342
51
100.0759831
0
ARC
8
bottom_labelLayer
10
1184.895393
20
361.0840155
40
13.0734861
50
73.5222756
51
90.5692279
0
ARC
8
bottom_labelLayer
10
1185.6620748
20
363.8695758
40
10.1850128
50
41.1445655
51
73.2133825
0
ARC
8
bottom_labelLayer
10
1184.1985398
20
362.6116876
40
12.1147824
50
13.5014346
51
41.0703413
0
ARC
8
bottom_labelLayer
10
1178.5441903
20
361.1320189
40
17.9587187
50
1.1277205
51
13.8800038
0
ARC
8
bottom_labelLayer
10
1173.6737038
20
360.8710145
40
22.8339955
50
359.9919188
51
1.5419906
0
ARC
8
bottom_labelLayer
10
1196.6391608
20
360.7666838
40
19.7020339
50
179.7059588
51
187.9160805
0
ARC
8
bottom_labelLayer
10
1189.4130897
20
359.7286664
40
12.4019063
50
187.7639318
51
200.0976809
0
ARC
8
bottom_labelLayer
10
1185.4322471
20
358.270081
40
8.1622632
50
200.0845853
51
216.9131611
0
ARC
8
bottom_labelLayer
10
1183.9785904
20
357.2321019
40
6.3767284
50
217.3009547
51
261.7099106
0
ARC
8
bottom_labelLayer
10
1184.6534296
20
360.4523738
40
9.6627951
50
260.5033253
51
270.2476726
0
ARC
8
bottom_labelLayer
10
1184.7822355
20
359.826169
40
9.0369192
50
269.448163
51
284.7255748
0
ARC
8
bottom_labelLayer
10
1185.4976354
20
357.1729854
40
6.2890581
50
284.5662317
51
322.633386
0
ARC
8
bottom_labelLayer
10
1183.8249951
20
358.3813941
40
8.351998
50
323.0089243
51
342.6390508
0
ARC
8
bottom_labelLayer
10
1179.0408996
20
359.9449766
40
13.3848638
50
342.3615621
51
353.7537674
0
ARC
8
bottom_labelLayer
10
1171.9827259
20
360.7957496
40
20.4938497
50
353.5363061
51
0.2014186
0
ARC
8
bottom_labelLayer
10
1173.0641129
20
360.9668733
40
19.4125888
50
359.7075683
51
7.897267
0
ARC
8
bottom_labelLayer
10
1180.1735601
20
361.9860767
40
12.2305755
50
7.7439931
51
20.0690245
0
ARC
8
bottom_labelLayer
10
1184.1352132
20
363.4398569
40
8.0106093
50
20.0256975
51
37.4350566
0
ARC
8
bottom_labelLayer
10
1185.4496531
20
364.372565
40
6.4001963
50
37.9577612
51
80.4006217
0
ARC
8
bottom_labelLayer
10
1184.7026971
20
361.0397271
40
9.8125925
50
79.34534
51
90.3174871
0
ARC
8
bottom_labelLayer
10
1184.5643881
20
361.5933054
40
9.259244
50
89.4806021
51
103.8804973
0
ARC
8
bottom_labelLayer
10
1183.7863718
20
364.5559927
40
6.1965884
50
103.4685209
51
142.3118913
0
ARC
8
bottom_labelLayer
10
1185.2988978
20
363.4922775
40
8.04427
50
142.90258
51
162.3749602
0
ARC
8
bottom_labelLayer
10
1190.0648656
20
361.9040324
40
13.0676058
50
162.0653208
51
173.1674858
0
ARC
8
bottom_labelLayer
10
1197.4962784
20
360.9562008
40
20.559082
50
173.0086217
51
180.2463804
0
LINE
8
bottom_labelLayer
10
1239.9608239
20
348.0006064
11
1236.0701989
21
348.0006064
0
LINE
8
bottom_labelLayer
10
1236.0701989
20
348.0006064
11
1236.0701989
21
364.7115439
0
LINE
8
bottom_labelLayer
10
1223.5780114
20
362.3443564
11
1223.5780114
21
348.0006064
0
LINE
8
bottom_labelLayer
10
1223.5780114
20
348.0006064
11
1219.6873864
21
348.0006064
0
LINE
8
bottom_labelLayer
10
1219.6873864
20
348.0006064
11
1219.6873864
21
364.7115439
0
LINE
8
bottom_labelLayer
10
1207.2186364
20
361.4771689
11
1207.2186364
21
348.0006064
0
LINE
8
bottom_labelLayer
10
1207.2186364
20
348.0006064
11
1203.3280114
21
348.0006064
0
LINE
8
bottom_labelLayer
10
1203.3280114
20
348.0006064
11
1203.3280114
21
373.6881064
0
LINE
8
bottom_labelLayer
10
1203.3280114
20
373.6881064
11
1206.4920739
21
373.6881064
0
LINE
8
bottom_labelLayer
10
1206.4920739
20
373.6881064
11
1207.1248864
21
370.1724814
0
LINE
8
bottom_labelLayer
10
1207.1248864
20
370.1724814
11
1207.3123864
21
370.1724814
0
LINE
8
bottom_labelLayer
10
1222.7811364
20
369.7974814
11
1222.9686364
21
369.7974814
0
LINE
8
bottom_labelLayer
10
1239.9608239
20
364.7584189
11
1239.9608239
21
348.0006064
0
ARC
8
bottom_labelLayer
10
1224.5927065
20
364.7726759
40
11.4776552
50
359.6948313
51
8.1471462
0
ARC
8
bottom_labelLayer
10
1228.820286
20
365.3983091
40
7.2041091
50
7.9864601
51
20.794952
0
ARC
8
bottom_labelLayer
10
1231.1571685
20
366.2934801
40
4.701656
50
20.7071363
51
40.021741
0
ARC
8
bottom_labelLayer
10
1231.669837
20
366.6289118
40
4.0939929
50
41.0408075
51
73.1792664
0
ARC
8
bottom_labelLayer
10
1230.9280208
20
364.3852818
40
6.4565807
50
72.6395425
51
86.2568006
0
ARC
8
bottom_labelLayer
10
1230.690373
20
361.8208307
40
9.0313447
50
85.814476
51
90.0685106
0
ARC
8
bottom_labelLayer
10
1230.6030684
20
360.8412637
40
10.0111976
50
89.5621416
51
101.2961688
0
ARC
8
bottom_labelLayer
10
1229.8490553
20
364.4509842
40
6.3237917
50
101.0032281
51
121.7840526
0
ARC
8
bottom_labelLayer
10
1229.2758215
20
365.4743696
40
5.1522007
50
122.359727
51
140.2884088
0
ARC
8
bottom_labelLayer
10
1230.3071343
20
364.7181761
40
6.4291724
50
140.9765336
51
161.1699458
0
ARC
8
bottom_labelLayer
10
1234.1923019
20
363.3355315
40
10.5528133
50
160.8731703
51
172.5272574
0
ARC
8
bottom_labelLayer
10
1240.6843706
20
362.4389278
40
17.1064095
50
172.3776544
51
180.1829592
0
ARC
8
bottom_labelLayer
10
1245.233336
20
362.3443802
40
21.6553245
50
179.8943721
51
180.000063
0
ARC
8
bottom_labelLayer
10
1208.209894
20
364.7726759
40
11.4776552
50
359.6948313
51
8.1471462
0
ARC
8
bottom_labelLayer
10
1212.4374735
20
365.3983091
40
7.2041091
50
7.9864601
51
20.794952
0
ARC
8
bottom_labelLayer
10
1214.774356
20
366.2934801
40
4.701656
50
20.7071363
51
40.021741
0
ARC
8
bottom_labelLayer
10
1215.2976839
20
366.6362777
40
4.0811169
50
41.06107
51
72.8993571
0
ARC
8
bottom_labelLayer
10
1214.5418168
20
364.3859832
40
6.4544746
50
72.3600897
51
85.9561872
0
ARC
8
bottom_labelLayer
10
1214.2859438
20
361.7415954
40
9.1105823
50
85.5237838
51
90.0793659
0
ARC
8
bottom_labelLayer
10
1214.1986654
20
361.1892636
40
9.6631937
50
89.5573243
51
101.4832183
0
ARC
8
bottom_labelLayer
10
1213.4569816
20
364.6642136
40
6.1102472
50
101.154634
51
123.0655662
0
ARC
8
bottom_labelLayer
10
1212.9528273
20
365.5424296
40
5.0995099
50
123.7020547
51
142.3022026
0
ARC
8
bottom_labelLayer
10
1214.1337841
20
364.7412541
40
6.5244512
50
143.0769772
51
161.3913758
0
ARC
8
bottom_labelLayer
10
1218.8941424
20
363.0600052
40
11.572668
50
161.0234472
51
171.4469083
0
ARC
8
bottom_labelLayer
10
1226.7747872
20
361.8255255
40
19.5493276
50
171.3041906
51
178.3501659
0
ARC
8
bottom_labelLayer
10
1234.3067113
20
361.4891391
40
27.0880775
50
178.097625
51
180.0253189
0
ARC
8
bottom_labelLayer
10
1213.9036305
20
366.2965047
40
7.6464171
50
117.1209519
51
149.5423709
0
ARC
8
bottom_labelLayer
10
1214.6840134
20
364.9094726
40
9.2369031
50
93.8343275
51
117.5072107
0
ARC
8
bottom_labelLayer
10
1214.8995569
20
363.0002925
40
11.1565659
50
89.9662104
51
94.2831377
0
ARC
8
bottom_labelLayer
10
1215.0286981
20
361.4195159
40
12.7379302
50
77.5572206
51
90.5512964
0
ARC
8
bottom_labelLayer
10
1216.2106385
20
366.5032578
40
7.5191609
50
52.7027105
51
78.0053764
0
ARC
8
bottom_labelLayer
10
1216.6317419
20
367.2867338
40
6.6422065
50
22.2097932
51
51.4970562
0
ARC
8
bottom_labelLayer
10
1230.0166739
20
365.7582355
40
8.1234438
50
119.4041778
51
150.1828823
0
ARC
8
bottom_labelLayer
10
1230.9174305
20
364.3885074
40
9.7596082
50
118.258362
51
120.0630478
0
ARC
8
bottom_labelLayer
10
1230.9150354
20
364.2880415
40
9.8470919
50
95.8635103
51
117.9693241
0
ARC
8
bottom_labelLayer
10
1231.2483027
20
361.8782572
40
12.2786113
50
89.9196992
51
96.261748
0
ARC
8
bottom_labelLayer
10
1231.3552931
20
360.6331242
40
13.5240303
50
79.9361047
51
90.3803712
0
ARC
8
bottom_labelLayer
10
1232.2564211
20
365.5135315
40
8.5613158
50
62.9723179
51
80.1665223
0
ARC
8
bottom_labelLayer
10
1233.1984265
20
367.4461615
40
6.4118062
50
44.2290017
51
62.622907
0
ARC
8
bottom_labelLayer
10
1232.9182475
20
367.3223885
40
6.6997561
50
19.5612113
51
43.3161126
0
ARC
8
bottom_labelLayer
10
1228.8492036
20
365.7940514
40
11.0459343
50
7.5041846
51
19.9645406
0
ARC
8
bottom_labelLayer
10
1222.1160232
20
364.8485121
40
17.8450279
50
359.7107329
51
7.6907198
0
ENDSEC
0
EOF